STARTFONT 2.1
COMMENT
COMMENT Converted from OpenType font "Q:\font stuff\winfont\NicoMoji-Regular.ttf" by "otf2bdf 3.0".
COMMENT
FONT -FreeType-Nico Moji-Medium-R-Normal--159-1600-72-72-P-925-ISO10646-1
SIZE 160 72 72
FONTBOUNDINGBOX 177 207 -17 -47
STARTPROPERTIES 19
FOUNDRY "FreeType"
FAMILY_NAME "Nico Moji"
WEIGHT_NAME "Medium"
SLANT "R"
SETWIDTH_NAME "Normal"
ADD_STYLE_NAME ""
PIXEL_SIZE 159
POINT_SIZE 1600
RESOLUTION_X 72
RESOLUTION_Y 72
SPACING "P"
AVERAGE_WIDTH 925
CHARSET_REGISTRY "ISO10646"
CHARSET_ENCODING "1"
FONT_ASCENT 137
FONT_DESCENT 22
COPYRIGHT "Copyright 2016 The Nico Moji Project Authors."
_OTF_FONTFILE "Q:\font stuff\winfont\NicoMoji-Regular.ttf"
_OTF_PSNAME "NicoMoji-Regular"
ENDPROPERTIES
CHARS 440
STARTCHAR 0020
ENCODING 32
SWIDTH 500 0
DWIDTH 80 0
BBX 0 0 0 0
BITMAP
ENDCHAR
STARTCHAR 0021
ENCODING 33
SWIDTH 312 0
DWIDTH 50 0
BBX 26 105 12 -1
BITMAP
00FF8000
03FFE000
07FFF000
0FFFF800
0FFFFC00
1FFFFC00
1FFFFE00
1FFFFE00
3FFFFE00
3FFFFE00
3FFFFE00
3FFFFE00
3FFFFE00
3FFFFE00
3FFFFE00
3FFFFE00
3FFFFE00
3FFFFE00
3FFFFE00
3FFFFE00
3FFFFE00
3FFFFE00
3FFFFE00
3FFFFE00
3FFFFE00
3FFFFE00
3FFFFE00
3FFFFE00
3FFFFE00
3FFFFE00
3FFFFE00
3FFFFE00
3FFFFE00
3FFFFE00
3FFFFE00
3FFFFE00
3FFFFE00
3FFFFE00
3FFFFE00
3FFFFE00
3FFFFE00
3FFFFE00
3FFFFE00
3FFFFE00
3FFFFE00
3FFFFE00
3FFFFE00
3FFFFE00
3FFFFE00
3FFFFE00
3FFFFE00
3FFFFE00
3FFFFE00
3FFFFE00
3FFFFE00
3FFFFE00
3FFFFE00
3FFFFE00
3FFFFE00
3FFFFE00
3FFFFE00
3FFFFE00
3FFFFE00
3FFFFE00
3FFFFE00
3FFFFE00
1FFFFE00
1FFFFE00
1FFFFC00
0FFFF800
07FFF800
03FFF000
01FFC000
003F0000
00000000
00000000
00000000
00000000
00000000
00000000
00000000
00000000
00000000
00080000
01FFC000
07FFF000
0FFFFC00
1FFFFE00
3FFFFF00
7FFFFF00
7FFFFF80
FFFFFF80
FFFFFF80
FFFFFFC0
FFFFFFC0
FFFFFFC0
FFFFFF80
7FFFFF80
7FFFFF80
3FFFFF00
3FFFFE00
1FFFFC00
07FFF800
03FFE000
007F0000
ENDCHAR
STARTCHAR 0022
ENCODING 34
SWIDTH 575 0
DWIDTH 92 0
BBX 64 57 14 68
BITMAP
007E000000007E00
03FF80000003FF80
07FFE0000007FFE0
0FFFF000000FFFF0
1FFFF800001FFFF8
3FFFFC00003FFFFC
3FFFFC00003FFFFC
7FFFFE00007FFFFE
7FFFFE00007FFFFE
7FFFFE00007FFFFE
FFFFFE0000FFFFFE
FFFFFE0000FFFFFE
FFFFFF0000FFFFFF
FFFFFE0000FFFFFE
FFFFFE0000FFFFFE
FFFFFE0000FFFFFE
7FFFFE00007FFFFE
7FFFFE00007FFFFE
7FFFFE00007FFFFE
7FFFFE00007FFFFE
7FFFFE00007FFFFE
7FFFFE00007FFFFE
7FFFFE00007FFFFE
7FFFFE00007FFFFE
7FFFFE00007FFFFE
7FFFFE00007FFFFE
7FFFFE00007FFFFE
7FFFFE00007FFFFE
7FFFFC00007FFFFC
3FFFFC00003FFFFC
3FFFFC00003FFFFC
3FFFFC00003FFFFC
3FFFFC00003FFFFC
3FFFFC00003FFFFC
3FFFFC00003FFFFC
3FFFF800003FFFF8
1FFFF800001FFFF8
1FFFF800001FFFF8
1FFFF800001FFFF8
1FFFF800001FFFF8
1FFFF800001FFFF8
1FFFF800001FFFF8
1FFFF000001FFFF0
0FFFF000000FFFF0
0FFFF000000FFFF0
0FFFF000000FFFF0
0FFFF000000FFFF0
0FFFF000000FFFF0
0FFFF000000FFFF0
0FFFE000000FFFE0
0FFFE000000FFFE0
07FFE0000007FFE0
07FFE0000007FFE0
03FFC0000003FFC0
03FF80000003FF80
00FF00000000FF00
003C000000003C00
ENDCHAR
STARTCHAR 0023
ENCODING 35
SWIDTH 587 0
DWIDTH 94 0
BBX 83 118 6 0
BITMAP
0000000780000001E00000
0000001FE0000007F80000
0000003FF000000FFC0000
0000007FF800001FFE0000
000000FFF800003FFE0000
000000FFF800003FFE0000
000000FFF800003FFE0000
000001FFF800007FFE0000
000001FFF800007FFE0000
000001FFF800007FFE0000
000001FFF800007FFE0000
000001FFF800007FFE0000
000001FFF000007FFE0000
000001FFF000007FFE0000
000001FFF000007FFC0000
000003FFF00000FFFC0000
000003FFF00000FFFC0000
000003FFF00000FFFC0000
000003FFF00000FFFC0000
000003FFF00000FFFC0000
000003FFF00000FFFC0000
000003FFE00000FFFC0000
000007FFE00000FFFC0000
000007FFE00001FFF80000
000007FFE00001FFF80000
000007FFE00001FFF80000
000007FFE00001FFF80000
000007FFE00001FFF80000
000007FFE00001FFF80000
000007FFC00001FFF80000
00000FFFE00003FFF80000
007FFFFFFFFFFFFFFFFC00
01FFFFFFFFFFFFFFFFFF00
03FFFFFFFFFFFFFFFFFF80
07FFFFFFFFFFFFFFFFFFC0
0FFFFFFFFFFFFFFFFFFFC0
0FFFFFFFFFFFFFFFFFFFC0
0FFFFFFFFFFFFFFFFFFFE0
0FFFFFFFFFFFFFFFFFFFE0
0FFFFFFFFFFFFFFFFFFFE0
0FFFFFFFFFFFFFFFFFFFC0
0FFFFFFFFFFFFFFFFFFFC0
07FFFFFFFFFFFFFFFFFFC0
03FFFFFFFFFFFFFFFFFF80
01FFFFFFFFFFFFFFFFFF00
007FFFFFFFFFFFFFFFFC00
00003FFF80000FFFE00000
00003FFF00000FFFE00000
00003FFF00000FFFC00000
00003FFF00000FFFC00000
00003FFF00000FFFC00000
00003FFF00000FFFC00000
00003FFF00000FFFC00000
00007FFF00000FFFC00000
00007FFE00000FFFC00000
00007FFE00001FFFC00000
00007FFE00001FFF800000
00007FFE00001FFF800000
00007FFE00001FFF800000
00007FFE00001FFF800000
00007FFE00001FFF800000
0000FFFE00001FFF800000
0000FFFC00001FFF800000
0000FFFC00003FFF800000
0000FFFC00003FFF000000
0000FFFC00003FFF000000
0000FFFC00003FFF000000
0001FFFC00003FFF000000
07FFFFFFFFFFFFFFFFC000
1FFFFFFFFFFFFFFFFFF000
3FFFFFFFFFFFFFFFFFF800
7FFFFFFFFFFFFFFFFFFC00
7FFFFFFFFFFFFFFFFFFE00
FFFFFFFFFFFFFFFFFFFE00
FFFFFFFFFFFFFFFFFFFE00
FFFFFFFFFFFFFFFFFFFE00
FFFFFFFFFFFFFFFFFFFE00
7FFFFFFFFFFFFFFFFFFE00
7FFFFFFFFFFFFFFFFFFE00
7FFFFFFFFFFFFFFFFFFC00
3FFFFFFFFFFFFFFFFFF800
1FFFFFFFFFFFFFFFFFF000
07FFFFFFFFFFFFFFFFC000
0003FFF00000FFFC000000
0003FFF00000FFFC000000
0003FFF00000FFFC000000
0003FFF00000FFFC000000
0007FFF00000FFFC000000
0007FFE00001FFFC000000
0007FFE00001FFF8000000
0007FFE00001FFF8000000
0007FFE00001FFF8000000
0007FFE00001FFF8000000
0007FFE00001FFF8000000
0007FFE00001FFF8000000
0007FFE00001FFF8000000
000FFFC00003FFF8000000
000FFFC00003FFF0000000
000FFFC00003FFF0000000
000FFFC00003FFF0000000
000FFFC00003FFF0000000
000FFFC00003FFF0000000
000FFFC00003FFF0000000
000FFFC00003FFF0000000
001FFF800007FFF0000000
001FFF800007FFE0000000
001FFF800007FFE0000000
001FFF800007FFE0000000
001FFF800007FFE0000000
001FFF800007FFE0000000
001FFF800007FFE0000000
001FFF800007FFE0000000
001FFF000007FFC0000000
001FFF000007FFC0000000
001FFE000003FF80000000
000FFC000003FF00000000
0007F8000001FE00000000
0001C00000007800000000
ENDCHAR
STARTCHAR 0024
ENCODING 36
SWIDTH 587 0
DWIDTH 94 0
BBX 72 155 11 -19
BITMAP
00000000FF00000000
00000001FF80000000
00000003FFC0000000
00000007FFE0000000
00000007FFE0000000
0000000FFFF0000000
0000000FFFF0000000
0000000FFFF0000000
0000000FFFF0000000
0000000FFFF0000000
0000000FFFF0000000
0000000FFFF0000000
0000000FFFF0000000
0000000FFFF0000000
0000000FFFF0000000
0000000FFFF0000000
0000000FFFF0000000
0000000FFFF0000000
0000001FFFFE000000
000001FFFFFFE00000
00000FFFFFFFFC0000
00003FFFFFFFFF0000
0000FFFFFFFFFFC000
0003FFFFFFFFFFF000
0007FFFFFFFFFFF800
000FFFFFFFFFFFFE00
001FFFFFFFFFFFFF00
003FFFFFFFFFFFFF80
007FFFFFFFFFFFFFC0
00FFFFFFFFFFFFFFC0
01FFFFFFFFFFFFFFE0
03FFFFFFFFFFFFFFE0
03FFFFFFFFFFFFFFE0
07FFFFFFFFFFFFFFE0
0FFFFFFFFFFFFFFFE0
0FFFFFFFFFFFFFFFE0
0FFFFFFFF8FFFFFFC0
1FFFFFFE0003FFFFC0
1FFFFFF80000FFFF80
3FFFFFF000003FFF00
3FFFFFE000000FFE00
3FFFFFC0000003F800
3FFFFF800000000000
7FFFFF800000000000
7FFFFF000000000000
7FFFFF000000000000
7FFFFF000000000000
7FFFFF000000000000
7FFFFF000000000000
7FFFFF000000000000
7FFFFF000000000000
7FFFFF000000000000
7FFFFF000000000000
7FFFFF000000000000
7FFFFF800000000000
7FFFFF800000000000
7FFFFFC00000000000
7FFFFFE00000000000
3FFFFFF00000000000
3FFFFFF80000000000
3FFFFFFC0000000000
1FFFFFFE0000000000
1FFFFFFF8000000000
0FFFFFFFE000000000
0FFFFFFFF800000000
07FFFFFFFE00000000
07FFFFFFFF80000000
03FFFFFFFFC0000000
01FFFFFFFFF8000000
00FFFFFFFFFE000000
007FFFFFFFFF800000
003FFFFFFFFFE00000
001FFFFFFFFFF00000
000FFFFFFFFFFC0000
0007FFFFFFFFFF0000
0003FFFFFFFFFF8000
0000FFFFFFFFFFE000
00007FFFFFFFFFF000
00001FFFFFFFFFF800
000007FFFFFFFFFC00
000003FFFFFFFFFE00
000000FFFFFFFFFF00
0000003FFFFFFFFF80
0000000FFFFFFFFFC0
00000003FFFFFFFFE0
00000000FFFFFFFFF0
000000003FFFFFFFF0
000000000FFFFFFFF8
0000000003FFFFFFF8
0000000001FFFFFFFC
00000000007FFFFFFC
00000000003FFFFFFC
00000000001FFFFFFE
00000000000FFFFFFE
000000000007FFFFFE
000000000003FFFFFF
000000000001FFFFFF
000000000000FFFFFF
000000000000FFFFFF
0000000000007FFFFF
0000000000007FFFFF
0000000000007FFFFF
0000000000007FFFFF
0000000000007FFFFF
0000000000007FFFFF
0000000000007FFFFF
0000000000007FFFFF
0000000000007FFFFF
0000000000007FFFFF
0000000000007FFFFF
000000000000FFFFFF
03F000000000FFFFFE
0FFE00000001FFFFFE
1FFF00000003FFFFFE
3FFFC0000007FFFFFC
7FFFF000000FFFFFFC
7FFFFE00003FFFFFFC
FFFFFFE001FFFFFFF8
FFFFFFFFFFFFFFFFF8
FFFFFFFFFFFFFFFFF0
FFFFFFFFFFFFFFFFF0
FFFFFFFFFFFFFFFFE0
FFFFFFFFFFFFFFFFE0
FFFFFFFFFFFFFFFFC0
FFFFFFFFFFFFFFFF80
7FFFFFFFFFFFFFFF00
7FFFFFFFFFFFFFFE00
3FFFFFFFFFFFFFFC00
0FFFFFFFFFFFFFF800
07FFFFFFFFFFFFF000
01FFFFFFFFFFFFE000
007FFFFFFFFFFF8000
001FFFFFFFFFFE0000
0003FFFFFFFFF80000
00007FFFFFFFE00000
00000FFFFFFE000000
0000007FFFF0000000
0000000FFFF0000000
0000000FFFF0000000
0000000FFFF0000000
0000000FFFF0000000
0000000FFFF0000000
0000000FFFF0000000
0000000FFFF0000000
0000000FFFF0000000
0000000FFFF0000000
0000000FFFF0000000
0000000FFFF0000000
0000000FFFF0000000
0000000FFFF0000000
00000007FFE0000000
00000007FFE0000000
00000003FFC0000000
00000000FF80000000
000000003C00000000
ENDCHAR
STARTCHAR 0025
ENCODING 37
SWIDTH 962 0
DWIDTH 154 0
BBX 144 123 5 -2
BITMAP
000001FFC00000000000000007C000000000
00000FFFFC000000000000003FE000000000
00007FFFFF800000000000007FF000000000
0001FFFFFFE0000000000000FFF000000000
0003FFFFFFF0000000000001FFF000000000
000FFFFFFFFC000000000003FFF000000000
001FFFFFFFFE000000000003FFF000000000
003FFFFFFFFF000000000007FFE000000000
007FFFFFFFFF800000000007FFE000000000
00FFFFFFFFFFC0000000000FFFC000000000
01FFFFFFFFFFC0000000000FFFC000000000
01FFFFFFFFFFE0000000001FFF8000000000
03FFFFFFFFFFF0000000001FFF8000000000
07FFFFC0FFFFF0000000003FFF0000000000
07FFFF003FFFF8000000003FFF0000000000
0FFFFE001FFFFC000000007FFE0000000000
0FFFFC000FFFFC000000007FFE0000000000
1FFFF80007FFFC00000000FFFC0000000000
1FFFF00007FFFE00000000FFF80000000000
1FFFF00003FFFE00000001FFF80000000000
3FFFE00003FFFF00000001FFF00000000000
3FFFE00001FFFF00000003FFF00000000000
3FFFE00001FFFF00000007FFE00000000000
7FFFC00001FFFF00000007FFE00000000000
7FFFC00000FFFF8000000FFFC00000000000
7FFFC00000FFFF8000000FFFC00000000000
7FFFC00000FFFF8000001FFF800000000000
7FFFC00000FFFF8000001FFF800000000000
7FFF800000FFFF8000003FFF000000000000
FFFF8000007FFFC000003FFF000000000000
FFFF8000007FFFC000007FFE000000000000
FFFF8000007FFFC000007FFE000000000000
FFFF8000007FFFC00000FFFC000000000000
FFFF8000007FFFC00000FFFC000000000000
FFFF8000007FFFC00001FFF8000000000000
FFFF8000007FFFC00001FFF8000000000000
FFFF8000007FFFC00003FFF0000000000000
FFFF8000007FFFC00003FFF0000000000000
FFFF8000007FFFC00007FFE0000000000000
FFFF8000007FFFC00007FFC0000000000000
FFFF8000007FFFC0000FFFC0000000000000
FFFF8000007FFFC0000FFF80000000000000
FFFF8000007FFFC0001FFF80000000000000
FFFF8000007FFFC0003FFF00000000000000
FFFF8000007FFFC0003FFF00000000000000
FFFF8000007FFFC0007FFE00000000000000
7FFFC00000FFFF80007FFE00000000000000
7FFFC00000FFFF8000FFFC00000000000000
7FFFC00000FFFF8000FFFC000003FF000000
7FFFC00000FFFF8001FFF800003FFFF00000
7FFFC00000FFFF8001FFF80001FFFFFE0000
3FFFE00001FFFF0003FFF00007FFFFFF8000
3FFFE00001FFFF0003FFF0000FFFFFFFC000
3FFFE00001FFFF0007FFE0003FFFFFFFE000
3FFFF00003FFFF0007FFE0007FFFFFFFF800
1FFFF00003FFFE000FFFC000FFFFFFFFFC00
1FFFF80007FFFE000FFFC001FFFFFFFFFE00
0FFFF80007FFFC001FFF8003FFFFFFFFFF00
0FFFFC000FFFFC001FFF0003FFFFFFFFFF00
0FFFFE001FFFF8003FFF0007FFFFFFFFFF80
07FFFF003FFFF8003FFE000FFFFFFFFFFFC0
03FFFFC0FFFFF0007FFE001FFFFE03FFFFC0
03FFFFFFFFFFF0007FFC001FFFF800FFFFE0
01FFFFFFFFFFE000FFFC003FFFF0007FFFF0
00FFFFFFFFFFC001FFF8003FFFE0003FFFF0
00FFFFFFFFFFC001FFF8007FFFC0001FFFF0
007FFFFFFFFF8003FFF0007FFFC0001FFFF8
003FFFFFFFFF0003FFF0007FFF80000FFFF8
001FFFFFFFFE0007FFE000FFFF80000FFFFC
000FFFFFFFF80007FFE000FFFF000007FFFC
0003FFFFFFF0000FFFC000FFFF000007FFFC
0001FFFFFFE0000FFFC000FFFF000007FFFC
00007FFFFF80001FFF8001FFFE000003FFFE
00000FFFFC00001FFF8001FFFE000003FFFE
000000FFC000003FFF0001FFFE000003FFFE
000000000000003FFF0001FFFE000003FFFE
000000000000007FFE0001FFFE000003FFFE
000000000000007FFE0003FFFC000001FFFF
00000000000000FFFC0003FFFC000001FFFF
00000000000000FFF80003FFFC000001FFFF
00000000000001FFF80003FFFC000001FFFF
00000000000001FFF00003FFFC000001FFFF
00000000000003FFF00003FFFC000001FFFF
00000000000003FFE00003FFFC000001FFFF
00000000000007FFE00003FFFC000001FFFF
00000000000007FFC00003FFFC000001FFFF
0000000000000FFFC00003FFFC000001FFFF
0000000000001FFF800003FFFC000001FFFF
0000000000001FFF800003FFFC000001FFFF
0000000000003FFF000003FFFC000001FFFF
0000000000003FFF000003FFFC000001FFFF
0000000000007FFE000003FFFC000001FFFF
0000000000007FFE000003FFFC000001FFFF
000000000000FFFC000003FFFC000001FFFF
000000000000FFFC000001FFFE000003FFFE
000000000001FFF8000001FFFE000003FFFE
000000000001FFF8000001FFFE000003FFFE
000000000003FFF0000001FFFE000003FFFE
000000000003FFF0000001FFFE000003FFFE
000000000007FFE0000000FFFF000007FFFC
000000000007FFC0000000FFFF000007FFFC
00000000000FFFC0000000FFFF000007FFFC
00000000000FFF80000000FFFF80000FFFF8
00000000001FFF800000007FFF80000FFFF8
00000000001FFF000000007FFFC0001FFFF8
00000000003FFF000000003FFFC0001FFFF0
00000000003FFE000000003FFFE0003FFFF0
00000000007FFE000000001FFFF0007FFFE0
0000000000FFFC000000001FFFF800FFFFE0
0000000000FFFC000000000FFFFF07FFFFC0
0000000001FFF8000000000FFFFFFFFFFFC0
0000000001FFF80000000007FFFFFFFFFF80
0000000003FFF00000000003FFFFFFFFFF00
0000000003FFF00000000001FFFFFFFFFE00
0000000007FFE00000000001FFFFFFFFFE00
0000000007FFE00000000000FFFFFFFFFC00
000000000FFFC000000000007FFFFFFFF800
000000000FFFC000000000001FFFFFFFE000
000000000FFF8000000000000FFFFFFFC000
000000000FFF00000000000007FFFFFF0000
000000000FFE00000000000001FFFFFE0000
0000000007F8000000000000003FFFF00000
0000000003E00000000000000003FF000000
ENDCHAR
STARTCHAR 0026
ENCODING 38
SWIDTH 737 0
DWIDTH 118 0
BBX 108 123 5 -2
BITMAP
0000000000FFF000000000000000
000000001FFFFF00000000000000
00000000FFFFFFE0000000000000
00000003FFFFFFF8000000000000
00000007FFFFFFFC000000000000
0000001FFFFFFFFF000000000000
0000003FFFFFFFFF800000000000
0000007FFFFFFFFFC00000000000
000000FFFFFFFFFFE00000000000
000001FFFFFFFFFFF00000000000
000003FFFFFFFFFFF80000000000
000007FFFFFFFFFFF80000000000
00000FFFFFFFFFFFFC0000000000
00000FFFFFFFFFFFFC0000000000
00001FFFFFFFFFFFFE0000000000
00003FFFFFFFFFFFFE0000000000
00003FFFFFE03FFFFF0000000000
00007FFFFF801FFFFF0000000000
00007FFFFF0007FFFF0000000000
00007FFFFE0007FFFF0000000000
0000FFFFFC0003FFFF8000000000
0000FFFFF80003FFFF8000000000
0000FFFFF80001FFFF8000000000
0000FFFFF00001FFFF8000000000
0001FFFFF00001FFFF8000000000
0001FFFFF00001FFFF8000000000
0001FFFFE00001FFFF8000000000
0001FFFFE00001FFFF8000000000
0001FFFFE00001FFFF8000000000
0001FFFFE00001FFFF8000000000
0001FFFFE00003FFFF8000000000
0001FFFFE00003FFFF0000000000
0001FFFFE00003FFFF0000000000
0001FFFFE00007FFFF0000000000
0001FFFFE00007FFFF0000000000
0001FFFFE0000FFFFE0000000000
0000FFFFF0001FFFFE0000000000
0000FFFFF0003FFFFC0000000000
0000FFFFF0007FFFFC0000000000
0000FFFFF000FFFFF80000000000
0000FFFFF801FFFFF80000000000
00007FFFF803FFFFF00000000000
00007FFFF807FFFFE00000000000
00007FFFFC1FFFFFE00000000000
00007FFFFC3FFFFFC00000000000
00003FFFFEFFFFFF800000000000
00003FFFFFFFFFFF000000000000
00001FFFFFFFFFFE000000000000
00001FFFFFFFFFFC000000000000
00001FFFFFFFFFF8000000000000
00000FFFFFFFFFF0000000000000
00000FFFFFFFFFE0000000000000
000007FFFFFFFFC0000000000000
000007FFFFFFFF80000000000000
000003FFFFFFFE00000000000000
000003FFFFFFFC0000000007FC00
000007FFFFFFF8000000001FFE00
00000FFFFFFFE0000000003FFF00
00001FFFFFFFC0000000007FFF80
00007FFFFFFF8000000000FFFFC0
0000FFFFFFFF0000000001FFFFC0
0001FFFFFFFF8000000003FFFFC0
0007FFFFFFFFC000000007FFFFC0
000FFFFFFFFFC000000007FFFFC0
001FFFFFFFFFE00000000FFFFFC0
003FFFFFFFFFF00000000FFFFF80
007FFFFFFFFFF80000001FFFFF80
00FFFFFFFFFFFC0000001FFFFF00
00FFFFFFFFFFFE0000001FFFFF00
01FFFFFFFFFFFF0000003FFFFF00
03FFFFFFFFFFFF8000003FFFFE00
07FFFFFFFFFFFFC000007FFFFE00
07FFFFFE7FFFFFE000007FFFFC00
0FFFFFFC3FFFFFF00000FFFFFC00
0FFFFFF83FFFFFF80000FFFFF800
1FFFFFF01FFFFFFC0001FFFFF800
1FFFFFE00FFFFFFE0001FFFFF000
3FFFFFC007FFFFFF0003FFFFF000
3FFFFF8003FFFFFFC007FFFFE000
3FFFFF8001FFFFFFE007FFFFE000
7FFFFF0001FFFFFFF00FFFFFC000
7FFFFF0000FFFFFFF81FFFFFC000
7FFFFE00007FFFFFFC1FFFFF8000
7FFFFE00003FFFFFFF3FFFFF8000
7FFFFE00001FFFFFFFFFFFFF0000
FFFFFC00000FFFFFFFFFFFFE0000
FFFFFC000007FFFFFFFFFFFE0000
FFFFFC000003FFFFFFFFFFFC0000
FFFFFC000001FFFFFFFFFFFC0000
FFFFFC000000FFFFFFFFFFF80000
FFFFFC0000007FFFFFFFFFF00000
FFFFFE0000003FFFFFFFFFF00000
FFFFFE0000001FFFFFFFFFE00000
7FFFFE0000000FFFFFFFFFC00000
7FFFFE00000007FFFFFFFFC00000
7FFFFF00000001FFFFFFFFC00000
7FFFFF00000000FFFFFFFFE00000
7FFFFF800000007FFFFFFFF80000
7FFFFFC00000003FFFFFFFFE0000
3FFFFFE00000003FFFFFFFFF8000
3FFFFFF0000000FFFFFFFFFFE000
3FFFFFF8000003FFFFFFFFFFFC00
1FFFFFFE00000FFFFFFFFFFFFE00
1FFFFFFF80003FFFFFFFFFFFFF00
0FFFFFFFF003FFFFFFFFFFFFFF80
0FFFFFFFFFFFFFFFFFFFFFFFFFC0
07FFFFFFFFFFFFFFFFFFFFFFFFC0
03FFFFFFFFFFFFFFFFFFFFFFFFE0
03FFFFFFFFFFFFFFFFFFFFFFFFE0
01FFFFFFFFFFFFFFFFFFFFFFFFE0
00FFFFFFFFFFFFFFFFFFFFFFFFF0
007FFFFFFFFFFFFFFFCFFFFFFFE0
003FFFFFFFFFFFFFFF03FFFFFFE0
001FFFFFFFFFFFFFFE00FFFFFFE0
000FFFFFFFFFFFFFF8007FFFFFE0
0007FFFFFFFFFFFFF0001FFFFFC0
0003FFFFFFFFFFFFC00007FFFFC0
0000FFFFFFFFFFFF000000FFFF80
00003FFFFFFFFFFC0000003FFF00
00000FFFFFFFFFE000000007FC00
000003FFFFFFFF0000000000F000
0000003FFFFFF000000000000000
00000001FFFE0000000000000000
ENDCHAR
STARTCHAR 0027
ENCODING 39
SWIDTH 325 0
DWIDTH 52 0
BBX 24 57 14 68
BITMAP
007E00
03FF80
07FFE0
0FFFF0
1FFFF8
3FFFFC
3FFFFC
7FFFFE
7FFFFE
7FFFFE
FFFFFE
FFFFFE
FFFFFF
FFFFFE
FFFFFE
FFFFFE
7FFFFE
7FFFFE
7FFFFE
7FFFFE
7FFFFE
7FFFFE
7FFFFE
7FFFFE
7FFFFE
7FFFFE
7FFFFE
7FFFFE
7FFFFC
3FFFFC
3FFFFC
3FFFFC
3FFFFC
3FFFFC
3FFFFC
3FFFF8
1FFFF8
1FFFF8
1FFFF8
1FFFF8
1FFFF8
1FFFF8
1FFFF0
0FFFF0
0FFFF0
0FFFF0
0FFFF0
0FFFF0
0FFFF0
0FFFE0
0FFFE0
07FFE0
07FFE0
03FFC0
03FF80
00FF00
003C00
ENDCHAR
STARTCHAR 0028
ENCODING 40
SWIDTH 375 0
DWIDTH 60 0
BBX 36 161 14 -31
BITMAP
0000001800
000001FF00
000003FF80
000007FFC0
00000FFFE0
00001FFFE0
00001FFFE0
00003FFFF0
00003FFFF0
00007FFFE0
00007FFFE0
0000FFFFE0
0000FFFFC0
0001FFFFC0
0001FFFF80
0003FFFF80
0003FFFF00
0007FFFF00
0007FFFE00
0007FFFE00
000FFFFE00
000FFFFC00
001FFFFC00
001FFFF800
001FFFF800
003FFFF800
003FFFF000
007FFFF000
007FFFF000
007FFFE000
00FFFFE000
00FFFFC000
00FFFFC000
01FFFFC000
01FFFFC000
01FFFF8000
03FFFF8000
03FFFF8000
03FFFF0000
03FFFF0000
07FFFF0000
07FFFF0000
07FFFE0000
0FFFFE0000
0FFFFE0000
0FFFFE0000
0FFFFC0000
0FFFFC0000
1FFFFC0000
1FFFFC0000
1FFFFC0000
1FFFFC0000
1FFFF80000
3FFFF80000
3FFFF80000
3FFFF80000
3FFFF80000
3FFFF80000
3FFFF00000
7FFFF00000
7FFFF00000
7FFFF00000
7FFFF00000
7FFFF00000
7FFFF00000
7FFFF00000
7FFFF00000
7FFFE00000
FFFFE00000
FFFFE00000
FFFFE00000
FFFFE00000
FFFFE00000
FFFFE00000
FFFFE00000
FFFFE00000
FFFFE00000
FFFFE00000
FFFFE00000
FFFFE00000
FFFFE00000
FFFFE00000
FFFFE00000
FFFFE00000
FFFFE00000
FFFFE00000
FFFFE00000
FFFFE00000
FFFFE00000
FFFFE00000
FFFFE00000
FFFFE00000
FFFFE00000
FFFFE00000
7FFFF00000
7FFFF00000
7FFFF00000
7FFFF00000
7FFFF00000
7FFFF00000
7FFFF00000
7FFFF00000
7FFFF00000
3FFFF00000
3FFFF80000
3FFFF80000
3FFFF80000
3FFFF80000
3FFFF80000
1FFFF80000
1FFFFC0000
1FFFFC0000
1FFFFC0000
1FFFFC0000
0FFFFC0000
0FFFFE0000
0FFFFE0000
0FFFFE0000
07FFFE0000
07FFFE0000
07FFFF0000
07FFFF0000
03FFFF0000
03FFFF0000
03FFFF8000
03FFFF8000
01FFFF8000
01FFFFC000
01FFFFC000
00FFFFC000
00FFFFE000
00FFFFE000
007FFFE000
007FFFF000
003FFFF000
003FFFF000
003FFFF800
001FFFF800
001FFFF800
001FFFFC00
000FFFFC00
000FFFFE00
0007FFFE00
0007FFFF00
0003FFFF00
0003FFFF00
0001FFFF80
0001FFFF80
0001FFFFC0
0000FFFFC0
0000FFFFE0
00007FFFE0
00007FFFE0
00003FFFF0
00001FFFF0
00001FFFE0
00000FFFE0
00000FFFC0
000007FFC0
000003FF80
000000FE00
ENDCHAR
STARTCHAR 0029
ENCODING 41
SWIDTH 375 0
DWIDTH 60 0
BBX 36 161 11 -31
BITMAP
0180000000
0FF8000000
1FFC000000
3FFE000000
7FFF000000
7FFF000000
7FFF800000
FFFF800000
FFFFC00000
7FFFE00000
7FFFE00000
7FFFF00000
3FFFF00000
3FFFF80000
1FFFF80000
1FFFF80000
0FFFFC0000
0FFFFC0000
07FFFE0000
07FFFE0000
07FFFF0000
03FFFF0000
03FFFF8000
01FFFF8000
01FFFF8000
01FFFFC000
00FFFFC000
00FFFFE000
00FFFFE000
007FFFE000
007FFFF000
007FFFF000
003FFFF000
003FFFF800
003FFFF800
001FFFF800
001FFFFC00
001FFFFC00
000FFFFC00
000FFFFC00
000FFFFE00
000FFFFE00
0007FFFE00
0007FFFE00
0007FFFF00
0007FFFF00
0007FFFF00
0003FFFF00
0003FFFF80
0003FFFF80
0003FFFF80
0003FFFF80
0001FFFF80
0001FFFFC0
0001FFFFC0
0001FFFFC0
0001FFFFC0
0001FFFFC0
0000FFFFC0
0000FFFFE0
0000FFFFE0
0000FFFFE0
0000FFFFE0
0000FFFFE0
0000FFFFE0
0000FFFFE0
0000FFFFE0
0000FFFFE0
00007FFFF0
00007FFFF0
00007FFFF0
00007FFFF0
00007FFFF0
00007FFFF0
00007FFFF0
00007FFFF0
00007FFFF0
00007FFFF0
00007FFFF0
00007FFFF0
00007FFFF0
00007FFFF0
00007FFFF0
00007FFFF0
00007FFFF0
00007FFFF0
00007FFFF0
00007FFFF0
00007FFFF0
00007FFFF0
00007FFFF0
00007FFFF0
00007FFFF0
00007FFFE0
0000FFFFE0
0000FFFFE0
0000FFFFE0
0000FFFFE0
0000FFFFE0
0000FFFFE0
0000FFFFE0
0000FFFFE0
0000FFFFC0
0001FFFFC0
0001FFFFC0
0001FFFFC0
0001FFFFC0
0001FFFFC0
0001FFFFC0
0001FFFF80
0003FFFF80
0003FFFF80
0003FFFF80
0003FFFF80
0003FFFF00
0007FFFF00
0007FFFF00
0007FFFF00
0007FFFE00
000FFFFE00
000FFFFE00
000FFFFE00
000FFFFC00
001FFFFC00
001FFFFC00
001FFFF800
001FFFF800
003FFFF800
003FFFF000
003FFFF000
007FFFF000
007FFFE000
007FFFE000
00FFFFE000
00FFFFC000
00FFFFC000
01FFFFC000
01FFFF8000
03FFFF8000
03FFFF0000
03FFFF0000
07FFFF0000
07FFFE0000
0FFFFE0000
0FFFFC0000
0FFFFC0000
1FFFF80000
1FFFF80000
3FFFF00000
3FFFF00000
7FFFE00000
7FFFE00000
7FFFC00000
FFFFC00000
FFFF800000
7FFF800000
7FFF000000
7FFF000000
3FFE000000
1FFC000000
07F0000000
ENDCHAR
STARTCHAR 002A
ENCODING 42
SWIDTH 506 0
DWIDTH 81 0
BBX 63 60 9 70
BITMAP
0000000FE0000000
0000001FF0000000
0000003FF8000000
0000007FFC000000
0000007FFC000000
0000007FFC000000
0000007FFE000000
000000FFFE000000
000000FFFE000000
000000FFFE000000
000000FFFE000000
000000FFFE000000
000000FFFE000000
000000FFFE000000
000000FFFE000000
000000FFFE000000
000000FFFE000000
010001FFFE000100
0FF801FFFF003FE0
3FFF81FFFF03FFF8
3FFFFBFFFFBFFFF8
7FFFFFFFFFFFFFFC
7FFFFFFFFFFFFFFC
FFFFFFFFFFFFFFFE
FFFFFFFFFFFFFFFE
FFFFFFFFFFFFFFFC
7FFFFFFFFFFFFFFC
7FFFFFFFFFFFFFFC
3FFFFFFFFFFFFFF8
1FFFFFFFFFFFFFF0
0FFFFFFFFFFFFFE0
01FFFFFFFFFFFF00
007FFFFFFFFFFC00
001FFFFFFFFFF000
0007FFFFFFFF8000
0000FFFFFFFE0000
00007FFFFFFC0000
00007FFFFFF80000
00007FFFFFFC0000
0000FFFFFFFE0000
0000FFFFFFFE0000
0001FFFFFFFF0000
0003FFFFFFFF0000
0003FFFFFFFF8000
0007FFFFFFFFC000
0007FFFFFFFFC000
000FFFFFFFFFE000
001FFFFC7FFFE000
001FFFF83FFFF000
003FFFF01FFFF800
003FFFF01FFFF800
003FFFE00FFFF800
007FFFC007FFF800
007FFF8003FFF800
003FFF0001FFF800
003FFE0000FFF800
001FFC00007FF000
001FF800003FF000
0007F000001FC000
0001C00000070000
ENDCHAR
STARTCHAR 002B
ENCODING 43
SWIDTH 587 0
DWIDTH 94 0
BBX 81 85 6 17
BITMAP
0000000007F00000000000
000000000FF80000000000
000000003FFE0000000000
000000003FFE0000000000
000000007FFF0000000000
00000000FFFF0000000000
00000000FFFF8000000000
00000000FFFF8000000000
00000000FFFF8000000000
00000000FFFF8000000000
00000000FFFF8000000000
00000000FFFF8000000000
00000000FFFF8000000000
00000000FFFF8000000000
00000000FFFF8000000000
00000000FFFF8000000000
00000000FFFF8000000000
00000000FFFF8000000000
00000000FFFF8000000000
00000000FFFF8000000000
00000000FFFF8000000000
00000000FFFF8000000000
00000000FFFF8000000000
00000000FFFF8000000000
00000000FFFF8000000000
00000000FFFF8000000000
00000000FFFF8000000000
00000000FFFF8000000000
00000000FFFF8000000000
00000000FFFF8000000000
00000000FFFF8000000000
00000000FFFF8000000000
00000000FFFF8000000000
00000000FFFF8000000000
07FFFFFFFFFFFFFFFFF000
1FFFFFFFFFFFFFFFFFFC00
3FFFFFFFFFFFFFFFFFFE00
7FFFFFFFFFFFFFFFFFFF00
7FFFFFFFFFFFFFFFFFFF00
FFFFFFFFFFFFFFFFFFFF80
FFFFFFFFFFFFFFFFFFFF80
FFFFFFFFFFFFFFFFFFFF80
FFFFFFFFFFFFFFFFFFFF80
FFFFFFFFFFFFFFFFFFFF80
FFFFFFFFFFFFFFFFFFFF80
FFFFFFFFFFFFFFFFFFFF80
7FFFFFFFFFFFFFFFFFFF00
7FFFFFFFFFFFFFFFFFFF00
3FFFFFFFFFFFFFFFFFFE00
1FFFFFFFFFFFFFFFFFFC00
07FFFFFFFFFFFFFFFFF000
00000000FFFF8000000000
00000000FFFF8000000000
00000000FFFF8000000000
00000000FFFF8000000000
00000000FFFF8000000000
00000000FFFF8000000000
00000000FFFF8000000000
00000000FFFF8000000000
00000000FFFF8000000000
00000000FFFF8000000000
00000000FFFF8000000000
00000000FFFF8000000000
00000000FFFF8000000000
00000000FFFF8000000000
00000000FFFF8000000000
00000000FFFF8000000000
00000000FFFF8000000000
00000000FFFF8000000000
00000000FFFF8000000000
00000000FFFF8000000000
00000000FFFF8000000000
00000000FFFF8000000000
00000000FFFF8000000000
00000000FFFF8000000000
00000000FFFF8000000000
00000000FFFF8000000000
00000000FFFF8000000000
00000000FFFF8000000000
00000000FFFF8000000000
000000007FFF0000000000
000000003FFE0000000000
000000003FFE0000000000
000000000FF80000000000
0000000007F00000000000
ENDCHAR
STARTCHAR 002C
ENCODING 44
SWIDTH 325 0
DWIDTH 52 0
BBX 33 60 11 -32
BITMAP
001FF80000
007FFE0000
01FFFF8000
03FFFFC000
0FFFFFE000
0FFFFFF000
1FFFFFF800
3FFFFFFC00
3FFFFFFC00
7FFFFFFE00
7FFFFFFE00
7FFFFFFE00
7FFFFFFF00
7FFFFFFF00
7FFFFFFF00
7FFFFFFF00
7FFFFFFF80
7FFFFFFF80
3FFFFFFF80
3FFFFFFF80
3FFFFFFF80
1FFFFFFF80
0FFFFFFF80
07FFFFFF80
03FFFFFF80
01FFFFFF80
007FFFFF80
0007FFFF80
00007FFF80
00007FFF80
00007FFF00
00007FFF00
0000FFFF00
0000FFFF00
0000FFFF00
0001FFFE00
0001FFFE00
0003FFFE00
0003FFFC00
0007FFFC00
000FFFF800
001FFFF800
003FFFF000
007FFFF000
00FFFFE000
03FFFFC000
0FFFFFC000
1FFFFF8000
3FFFFF0000
7FFFFE0000
7FFFFC0000
FFFFF80000
FFFFF00000
FFFFE00000
FFFFC00000
FFFF800000
FFFE000000
7FFC000000
3FF0000000
1FC0000000
ENDCHAR
STARTCHAR 002D
ENCODING 45
SWIDTH 368 0
DWIDTH 59 0
BBX 44 17 8 37
BITMAP
07FFFFFFFC00
1FFFFFFFFF00
3FFFFFFFFF80
7FFFFFFFFFC0
7FFFFFFFFFE0
FFFFFFFFFFE0
FFFFFFFFFFE0
FFFFFFFFFFF0
FFFFFFFFFFF0
FFFFFFFFFFF0
FFFFFFFFFFE0
FFFFFFFFFFE0
7FFFFFFFFFE0
7FFFFFFFFFC0
3FFFFFFFFF80
1FFFFFFFFF00
07FFFFFFFC00
ENDCHAR
STARTCHAR 002E
ENCODING 46
SWIDTH 325 0
DWIDTH 52 0
BBX 30 30 11 -2
BITMAP
003FF000
00FFFC00
03FFFF00
07FFFF80
0FFFFFC0
1FFFFFE0
1FFFFFE0
3FFFFFF0
3FFFFFF0
7FFFFFF8
7FFFFFF8
7FFFFFF8
7FFFFFF8
FFFFFFFC
FFFFFFFC
FFFFFFFC
FFFFFFFC
7FFFFFF8
7FFFFFF8
7FFFFFF8
7FFFFFF8
3FFFFFF0
3FFFFFF0
1FFFFFE0
1FFFFFE0
0FFFFFC0
07FFFF80
03FFFE00
00FFFC00
003FF000
ENDCHAR
STARTCHAR 002F
ENCODING 47
SWIDTH 387 0
DWIDTH 62 0
BBX 52 158 4 -30
BITMAP
00000000000600
00000000007F80
0000000000FFC0
0000000003FFE0
0000000003FFF0
0000000007FFF0
000000000FFFF0
000000000FFFF0
000000000FFFF0
000000000FFFE0
000000001FFFE0
000000001FFFE0
000000001FFFE0
000000001FFFC0
000000003FFFC0
000000003FFFC0
000000003FFFC0
000000003FFF80
000000007FFF80
000000007FFF80
000000007FFF80
000000007FFF00
00000000FFFF00
00000000FFFF00
00000000FFFF00
00000000FFFE00
00000001FFFE00
00000001FFFE00
00000001FFFE00
00000001FFFC00
00000003FFFC00
00000003FFFC00
00000003FFFC00
00000003FFF800
00000007FFF800
00000007FFF800
00000007FFF800
00000007FFF000
0000000FFFF000
0000000FFFF000
0000000FFFF000
0000000FFFE000
0000001FFFE000
0000001FFFE000
0000001FFFE000
0000001FFFC000
0000003FFFC000
0000003FFFC000
0000003FFF8000
0000003FFF8000
0000007FFF8000
0000007FFF8000
0000007FFF0000
0000007FFF0000
000000FFFF0000
000000FFFF0000
000000FFFE0000
000000FFFE0000
000001FFFE0000
000001FFFE0000
000001FFFC0000
000001FFFC0000
000003FFFC0000
000003FFFC0000
000003FFF80000
000003FFF80000
000007FFF80000
000007FFF80000
000007FFF00000
000007FFF00000
00000FFFF00000
00000FFFF00000
00000FFFE00000
00000FFFE00000
00001FFFE00000
00001FFFE00000
00001FFFC00000
00001FFFC00000
00003FFFC00000
00003FFFC00000
00003FFF800000
00003FFF800000
00007FFF800000
00007FFF800000
00007FFF000000
00007FFF000000
0000FFFF000000
0000FFFF000000
0000FFFE000000
0000FFFE000000
0001FFFE000000
0001FFFE000000
0001FFFC000000
0001FFFC000000
0003FFFC000000
0003FFFC000000
0003FFF8000000
0003FFF8000000
0007FFF8000000
0007FFF8000000
0007FFF0000000
0007FFF0000000
000FFFF0000000
000FFFF0000000
000FFFE0000000
000FFFE0000000
001FFFE0000000
001FFFE0000000
001FFFC0000000
001FFFC0000000
003FFFC0000000
003FFFC0000000
003FFF80000000
003FFF80000000
007FFF80000000
007FFF80000000
007FFF00000000
007FFF00000000
00FFFF00000000
00FFFF00000000
00FFFE00000000
00FFFE00000000
01FFFE00000000
01FFFE00000000
01FFFC00000000
01FFFC00000000
03FFFC00000000
03FFFC00000000
03FFF800000000
03FFF800000000
07FFF800000000
07FFF800000000
07FFF000000000
07FFF000000000
0FFFF000000000
0FFFF000000000
0FFFE000000000
0FFFE000000000
1FFFE000000000
1FFFE000000000
1FFFC000000000
1FFFC000000000
3FFFC000000000
3FFFC000000000
3FFF8000000000
3FFF8000000000
7FFF8000000000
7FFF8000000000
7FFF0000000000
7FFF0000000000
FFFF0000000000
FFFF0000000000
FFFE0000000000
FFFE0000000000
FFFC0000000000
7FF80000000000
3FF00000000000
1FC00000000000
ENDCHAR
STARTCHAR 0030
ENCODING 48
SWIDTH 781 0
DWIDTH 125 0
BBX 113 93 6 0
BITMAP
00000000FFFFFFFFFFFF8000000000
0000007FFFFFFFFFFFFFFF00000000
000003FFFFFFFFFFFFFFFFC0000000
00000FFFFFFFFFFFFFFFFFF0000000
00001FFFFFFFFFFFFFFFFFFC000000
00007FFFFFFFFFFFFFFFFFFE000000
0000FFFFFFFFFFFFFFFFFFFF800000
0001FFFFFFFFFFFFFFFFFFFFC00000
0003FFFFFFFFFFFFFFFFFFFFE00000
0007FFFFFFFFFFFFFFFFFFFFF00000
000FFFFFFFFFFFFFFFFFFFFFF80000
001FFFFFFFFFFFFFFFFFFFFFFC0000
003FFFFFFFFFFFFFFFFFFFFFFC0000
003FFFFFFFFFFFFFFFFFFFFFFE0000
007FFFFFFFFFFFFFFFFFFFFFFF0000
00FFFFFFFFFFFFFFFFFFFFFFFF0000
00FFFFFFFFFFFFFFFFFFFFFFFF8000
01FFFFFFFFFFFFFFFFFFFFFFFFC000
03FFFFFFFFFFFFFFFFFFFFFFFFC000
03FFFFFFFFFFFFFFFFFFFFFFFFE000
07FFFFFFFFFFFFFFFFFFFFFFFFE000
07FFFFFFF0000000000FFFFFFFF000
07FFFFFE0000000000007FFFFFF000
0FFFFFF80000000000001FFFFFF800
0FFFFFF00000000000000FFFFFF800
1FFFFFE000000000000007FFFFF800
1FFFFFC000000000000003FFFFFC00
1FFFFF8000000000000001FFFFFC00
3FFFFF0000000000000000FFFFFC00
3FFFFF0000000000000000FFFFFE00
3FFFFE00000000000000007FFFFE00
3FFFFE00000000000000007FFFFE00
7FFFFC00000000000000003FFFFE00
7FFFFC00000000000000003FFFFF00
7FFFF800000000000000001FFFFF00
7FFFF800000000000000001FFFFF00
7FFFF800000000000000001FFFFF00
7FFFF000000000000000000FFFFF00
FFFFF000000000000000000FFFFF00
FFFFF000000000000000000FFFFF80
FFFFF000000000000000000FFFFF80
FFFFE0000000000000000007FFFF80
FFFFE0000000000000000007FFFF80
FFFFE0000000000000000007FFFF80
FFFFE0000000000000000007FFFF80
FFFFE0000000000000000007FFFF80
FFFFE0000000000000000007FFFF80
FFFFE0000000000000000007FFFF80
FFFFE0000000000000000007FFFF80
FFFFE0000000000000000007FFFF80
FFFFE0000000000000000007FFFF80
FFFFE0000000000000000007FFFF80
FFFFE000000000000000000FFFFF80
FFFFF000000000000000000FFFFF80
FFFFF000000000000000000FFFFF80
7FFFF000000000000000000FFFFF00
7FFFF000000000000000000FFFFF00
7FFFF800000000000000001FFFFF00
7FFFF800000000000000001FFFFF00
7FFFF800000000000000001FFFFF00
7FFFFC00000000000000003FFFFF00
3FFFFC00000000000000003FFFFE00
3FFFFE00000000000000007FFFFE00
3FFFFE00000000000000007FFFFE00
3FFFFF0000000000000000FFFFFE00
1FFFFF8000000000000001FFFFFC00
1FFFFFC000000000000003FFFFFC00
1FFFFFE000000000000007FFFFFC00
0FFFFFF00000000000000FFFFFF800
0FFFFFF80000000000001FFFFFF800
0FFFFFFE0000000000007FFFFFF000
07FFFFFFC00000000007FFFFFFF000
07FFFFFFFFFFFFFFFFFFFFFFFFF000
03FFFFFFFFFFFFFFFFFFFFFFFFE000
03FFFFFFFFFFFFFFFFFFFFFFFFE000
01FFFFFFFFFFFFFFFFFFFFFFFFC000
01FFFFFFFFFFFFFFFFFFFFFFFF8000
00FFFFFFFFFFFFFFFFFFFFFFFF8000
007FFFFFFFFFFFFFFFFFFFFFFF0000
007FFFFFFFFFFFFFFFFFFFFFFE0000
003FFFFFFFFFFFFFFFFFFFFFFE0000
001FFFFFFFFFFFFFFFFFFFFFFC0000
000FFFFFFFFFFFFFFFFFFFFFF80000
000FFFFFFFFFFFFFFFFFFFFFF00000
0007FFFFFFFFFFFFFFFFFFFFE00000
0003FFFFFFFFFFFFFFFFFFFFC00000
0001FFFFFFFFFFFFFFFFFFFF800000
00007FFFFFFFFFFFFFFFFFFF000000
00003FFFFFFFFFFFFFFFFFFC000000
00000FFFFFFFFFFFFFFFFFF8000000
000003FFFFFFFFFFFFFFFFE0000000
0000007FFFFFFFFFFFFFFF00000000
00000003FFFFFFFFFFFFE000000000
ENDCHAR
STARTCHAR 0031
ENCODING 49
SWIDTH 781 0
DWIDTH 125 0
BBX 53 97 20 -2
BITMAP
0000000001F800
0000000007FF00
000000001FFF80
000000003FFFC0
000000007FFFE0
00000000FFFFF0
00000003FFFFF0
00000007FFFFF0
0000000FFFFFF8
0000003FFFFFF8
0000007FFFFFF8
000000FFFFFFF8
000001FFFFFFF8
000007FFFFFFF8
00000FFFFFFFF8
00001FFFFFFFF8
00007FFFFFFFF8
0000FFFFFFFFF8
0001FFFFFFFFF8
0003FFFFFFFFF8
000FFFFFFFFFF8
001FFFFFFFFFF8
003FFFFFFFFFF8
00FFFFFFFFFFF8
01FFFFFFFFFFF8
03FFFFFFFFFFF8
07FFFFFFFFFFF8
1FFFFFFFFFFFF8
3FFFFFFFFFFFF8
3FFFFFFFFFFFF8
7FFFFFFFFFFFF8
7FFFFFFFFFFFF8
FFFFFFFEFFFFF8
FFFFFFFCFFFFF8
FFFFFFF8FFFFF8
FFFFFFE0FFFFF8
FFFFFFC0FFFFF8
FFFFFF80FFFFF8
FFFFFE00FFFFF8
7FFFFC00FFFFF8
7FFFF800FFFFF8
3FFFE000FFFFF8
1FFFC000FFFFF8
0FFF8000FFFFF8
07FE0000FFFFF8
00F80000FFFFF8
00000000FFFFF8
00000000FFFFF8
00000000FFFFF8
00000000FFFFF8
00000000FFFFF8
00000000FFFFF8
00000000FFFFF8
00000000FFFFF8
00000000FFFFF8
00000000FFFFF8
00000000FFFFF8
00000000FFFFF8
00000000FFFFF8
00000000FFFFF8
00000000FFFFF8
00000000FFFFF8
00000000FFFFF8
00000000FFFFF8
00000000FFFFF8
00000000FFFFF8
00000000FFFFF8
00000000FFFFF8
00000000FFFFF8
00000000FFFFF8
00000000FFFFF8
00000000FFFFF8
00000000FFFFF8
00000000FFFFF8
00000000FFFFF8
00000000FFFFF8
00000000FFFFF8
00000000FFFFF8
00000000FFFFF8
00000000FFFFF8
00000000FFFFF8
00000000FFFFF8
00000000FFFFF8
00000000FFFFF8
00000000FFFFF8
00000000FFFFF8
00000000FFFFF8
00000000FFFFF8
00000000FFFFF8
00000000FFFFF0
00000000FFFFF0
000000007FFFF0
000000003FFFE0
000000003FFFC0
000000001FFF80
0000000007FF00
0000000000F800
ENDCHAR
STARTCHAR 0032
ENCODING 50
SWIDTH 781 0
DWIDTH 125 0
BBX 106 92 10 0
BITMAP
001FFFFFFFFFFFFFFF0000000000
01FFFFFFFFFFFFFFFFFFC0000000
07FFFFFFFFFFFFFFFFFFFC000000
0FFFFFFFFFFFFFFFFFFFFF800000
1FFFFFFFFFFFFFFFFFFFFFE00000
3FFFFFFFFFFFFFFFFFFFFFF00000
3FFFFFFFFFFFFFFFFFFFFFFC0000
7FFFFFFFFFFFFFFFFFFFFFFE0000
7FFFFFFFFFFFFFFFFFFFFFFF0000
7FFFFFFFFFFFFFFFFFFFFFFF8000
7FFFFFFFFFFFFFFFFFFFFFFFC000
7FFFFFFFFFFFFFFFFFFFFFFFE000
7FFFFFFFFFFFFFFFFFFFFFFFF000
7FFFFFFFFFFFFFFFFFFFFFFFF800
3FFFFFFFFFFFFFFFFFFFFFFFFC00
3FFFFFFFFFFFFFFFFFFFFFFFFC00
1FFFFFFFFFFFFFFFFFFFFFFFFE00
1FFFFFFFFFFFFFFFFFFFFFFFFE00
0FFFFFFFFFFFFFFFFFFFFFFFFF00
07FFFFFFFFFFFFFFFFFFFFFFFF00
01FFFFFFFFFFFFFFFFFFFFFFFF00
0000000000000000000FFFFFFF80
00000000000000000000FFFFFF80
000000000000000000007FFFFF80
000000000000000000001FFFFF80
000000000000000000001FFFFFC0
000000000000000000000FFFFFC0
000000000000000000000FFFFFC0
000000000000000000000FFFFFC0
000000000000000000000FFFFFC0
000000000000000000000FFFFFC0
000000000000000000001FFFFFC0
000000000000000000003FFFFF80
000000000000000000007FFFFF80
00000000000000000000FFFFFF80
0000000000000000001FFFFFFF80
000001FFFFFFFFFFFFFFFFFFFF00
00001FFFFFFFFFFFFFFFFFFFFF00
00007FFFFFFFFFFFFFFFFFFFFF00
0001FFFFFFFFFFFFFFFFFFFFFE00
0007FFFFFFFFFFFFFFFFFFFFFE00
000FFFFFFFFFFFFFFFFFFFFFFC00
003FFFFFFFFFFFFFFFFFFFFFFC00
007FFFFFFFFFFFFFFFFFFFFFF800
00FFFFFFFFFFFFFFFFFFFFFFF000
01FFFFFFFFFFFFFFFFFFFFFFE000
03FFFFFFFFFFFFFFFFFFFFFFE000
07FFFFFFFFFFFFFFFFFFFFFFC000
07FFFFFFFFFFFFFFFFFFFFFF0000
0FFFFFFFFFFFFFFFFFFFFFFE0000
1FFFFFFFFFFFFFFFFFFFFFFC0000
1FFFFFFFFFFFFFFFFFFFFFF00000
3FFFFFFFFFFFFFFFFFFFFFE00000
3FFFFFFFFFFFFFFFFFFFFF800000
3FFFFFFFFFFFFFFFFFFFFC000000
7FFFFFFFFFFFFFFFFFFFE0000000
7FFFFFFC00000000000000000000
7FFFFFC000000000000000000000
FFFFFF0000000000000000000000
FFFFFE0000000000000000000000
FFFFFE0000000000000000000000
FFFFFC0000000000000000000000
FFFFFC0000000000000000000000
FFFFF80000000000000000000000
FFFFF80000000000000000000000
FFFFF80000000000000000000000
FFFFF80000000000000000000000
FFFFF80000000000000000000000
FFFFF80000000000000000000000
FFFFFC0000000000000000000000
FFFFFC0000000000000000000000
FFFFFFFFFFFFFFFFFFFFFFFE0000
FFFFFFFFFFFFFFFFFFFFFFFFE000
FFFFFFFFFFFFFFFFFFFFFFFFF800
FFFFFFFFFFFFFFFFFFFFFFFFFC00
FFFFFFFFFFFFFFFFFFFFFFFFFE00
FFFFFFFFFFFFFFFFFFFFFFFFFE00
FFFFFFFFFFFFFFFFFFFFFFFFFF00
FFFFFFFFFFFFFFFFFFFFFFFFFF00
FFFFFFFFFFFFFFFFFFFFFFFFFF80
FFFFFFFFFFFFFFFFFFFFFFFFFF80
7FFFFFFFFFFFFFFFFFFFFFFFFF80
7FFFFFFFFFFFFFFFFFFFFFFFFF80
7FFFFFFFFFFFFFFFFFFFFFFFFF80
3FFFFFFFFFFFFFFFFFFFFFFFFF80
3FFFFFFFFFFFFFFFFFFFFFFFFF00
1FFFFFFFFFFFFFFFFFFFFFFFFF00
0FFFFFFFFFFFFFFFFFFFFFFFFE00
07FFFFFFFFFFFFFFFFFFFFFFFE00
03FFFFFFFFFFFFFFFFFFFFFFFC00
00FFFFFFFFFFFFFFFFFFFFFFF800
001FFFFFFFFFFFFFFFFFFFFFE000
ENDCHAR
STARTCHAR 0033
ENCODING 51
SWIDTH 781 0
DWIDTH 125 0
BBX 104 92 11 0
BITMAP
003FFFFFFFFFFFFFFF00000000
07FFFFFFFFFFFFFFFFFF800000
0FFFFFFFFFFFFFFFFFFFF00000
1FFFFFFFFFFFFFFFFFFFFE0000
3FFFFFFFFFFFFFFFFFFFFF8000
7FFFFFFFFFFFFFFFFFFFFFC000
FFFFFFFFFFFFFFFFFFFFFFF000
FFFFFFFFFFFFFFFFFFFFFFF800
FFFFFFFFFFFFFFFFFFFFFFFC00
FFFFFFFFFFFFFFFFFFFFFFFE00
FFFFFFFFFFFFFFFFFFFFFFFF00
FFFFFFFFFFFFFFFFFFFFFFFF80
FFFFFFFFFFFFFFFFFFFFFFFFC0
FFFFFFFFFFFFFFFFFFFFFFFFE0
FFFFFFFFFFFFFFFFFFFFFFFFE0
7FFFFFFFFFFFFFFFFFFFFFFFF0
7FFFFFFFFFFFFFFFFFFFFFFFF0
3FFFFFFFFFFFFFFFFFFFFFFFF8
1FFFFFFFFFFFFFFFFFFFFFFFF8
07FFFFFFFFFFFFFFFFFFFFFFFC
01FFFFFFFFFFFFFFFFFFFFFFFC
0000000000000000000FFFFFFC
00000000000000000003FFFFFE
00000000000000000001FFFFFE
00000000000000000000FFFFFE
000000000000000000007FFFFE
000000000000000000007FFFFE
000000000000000000003FFFFE
000000000000000000003FFFFE
000000000000000000007FFFFE
000000000000000000007FFFFE
000000000000000000007FFFFE
00000000000000000000FFFFFE
00000000000000000001FFFFFE
00000000000000000007FFFFFC
0000000000000000007FFFFFFC
03FFFFFFFFFFFFFFFFFFFFFFFC
0FFFFFFFFFFFFFFFFFFFFFFFF8
1FFFFFFFFFFFFFFFFFFFFFFFF8
3FFFFFFFFFFFFFFFFFFFFFFFF0
3FFFFFFFFFFFFFFFFFFFFFFFF0
7FFFFFFFFFFFFFFFFFFFFFFFE0
7FFFFFFFFFFFFFFFFFFFFFFFE0
FFFFFFFFFFFFFFFFFFFFFFFFC0
FFFFFFFFFFFFFFFFFFFFFFFF80
FFFFFFFFFFFFFFFFFFFFFFFF80
FFFFFFFFFFFFFFFFFFFFFFFFC0
FFFFFFFFFFFFFFFFFFFFFFFFC0
7FFFFFFFFFFFFFFFFFFFFFFFE0
7FFFFFFFFFFFFFFFFFFFFFFFF0
7FFFFFFFFFFFFFFFFFFFFFFFF0
3FFFFFFFFFFFFFFFFFFFFFFFF8
1FFFFFFFFFFFFFFFFFFFFFFFF8
0FFFFFFFFFFFFFFFFFFFFFFFFC
07FFFFFFFFFFFFFFFFFFFFFFFC
03FFFFFFFFFFFFFFFFFFFFFFFE
0000000000000000003FFFFFFE
00000000000000000003FFFFFE
00000000000000000001FFFFFE
00000000000000000000FFFFFE
000000000000000000007FFFFF
000000000000000000003FFFFF
000000000000000000003FFFFF
000000000000000000003FFFFF
000000000000000000003FFFFF
000000000000000000003FFFFF
000000000000000000003FFFFF
000000000000000000007FFFFF
00000000000000000000FFFFFE
00000000000000000001FFFFFE
00000000000000000003FFFFFE
003FFFFFFFFFFFFFFFFFFFFFFE
03FFFFFFFFFFFFFFFFFFFFFFFC
0FFFFFFFFFFFFFFFFFFFFFFFFC
1FFFFFFFFFFFFFFFFFFFFFFFFC
3FFFFFFFFFFFFFFFFFFFFFFFF8
7FFFFFFFFFFFFFFFFFFFFFFFF8
7FFFFFFFFFFFFFFFFFFFFFFFF0
FFFFFFFFFFFFFFFFFFFFFFFFE0
FFFFFFFFFFFFFFFFFFFFFFFFE0
FFFFFFFFFFFFFFFFFFFFFFFFC0
FFFFFFFFFFFFFFFFFFFFFFFF80
FFFFFFFFFFFFFFFFFFFFFFFF00
FFFFFFFFFFFFFFFFFFFFFFFE00
FFFFFFFFFFFFFFFFFFFFFFFC00
FFFFFFFFFFFFFFFFFFFFFFF800
7FFFFFFFFFFFFFFFFFFFFFF000
7FFFFFFFFFFFFFFFFFFFFFC000
3FFFFFFFFFFFFFFFFFFFFF0000
1FFFFFFFFFFFFFFFFFFFFC0000
0FFFFFFFFFFFFFFFFFFFF00000
03FFFFFFFFFFFFFFFFFF000000
ENDCHAR
STARTCHAR 0034
ENCODING 52
SWIDTH 781 0
DWIDTH 125 0
BBX 105 97 12 -2
BITMAP
01FC00000000000000FC00000000
07FF00000000000003FF00000000
0FFF8000000000000FFFC0000000
1FFFC000000000001FFFE0000000
3FFFE000000000003FFFF0000000
7FFFF000000000003FFFF0000000
7FFFF000000000007FFFF8000000
FFFFF800000000007FFFF8000000
FFFFF800000000007FFFF8000000
FFFFF80000000000FFFFF8000000
FFFFF80000000000FFFFFC000000
FFFFF80000000000FFFFFC000000
FFFFF80000000000FFFFFC000000
FFFFF80000000000FFFFFC000000
FFFFF80000000000FFFFFC000000
FFFFF80000000000FFFFFC000000
FFFFF80000000000FFFFFC000000
FFFFF80000000000FFFFFC000000
FFFFF80000000000FFFFFC000000
FFFFF80000000000FFFFFC000000
FFFFF80000000000FFFFFC000000
FFFFF80000000000FFFFFC000000
FFFFF80000000000FFFFFC000000
FFFFF80000000000FFFFFC000000
FFFFF80000000000FFFFFC000000
FFFFF80000000000FFFFFC000000
FFFFF80000000000FFFFFC000000
FFFFF80000000000FFFFFC000000
FFFFF80000000000FFFFFC000000
FFFFF80000000000FFFFFC000000
FFFFF80000000000FFFFFC000000
FFFFF80000000000FFFFFC000000
FFFFF80000000000FFFFFC000000
FFFFF80000000000FFFFFC000000
FFFFF80000000000FFFFFC000000
FFFFFC0000000000FFFFFC000000
7FFFFC0000000000FFFFFC000000
7FFFFC0000000000FFFFFC000000
7FFFFC0000000000FFFFFC000000
7FFFFE0000000000FFFFFC000000
7FFFFE0000000000FFFFFC000000
7FFFFF0000000000FFFFFC000000
3FFFFF0000000000FFFFFC000000
3FFFFF8000000000FFFFFC000000
3FFFFF8000000000FFFFFC000000
3FFFFFC000000000FFFFFC000000
1FFFFFE000000000FFFFFC000000
1FFFFFF000000000FFFFFC000000
1FFFFFFC00000000FFFFFC000000
0FFFFFFE00000000FFFFFC000000
0FFFFFFFF0000000FFFFFC000000
0FFFFFFFFFFFFFFFFFFFFFFFC000
07FFFFFFFFFFFFFFFFFFFFFFF000
07FFFFFFFFFFFFFFFFFFFFFFF800
03FFFFFFFFFFFFFFFFFFFFFFFC00
03FFFFFFFFFFFFFFFFFFFFFFFE00
01FFFFFFFFFFFFFFFFFFFFFFFE00
00FFFFFFFFFFFFFFFFFFFFFFFF00
00FFFFFFFFFFFFFFFFFFFFFFFF00
007FFFFFFFFFFFFFFFFFFFFFFF00
003FFFFFFFFFFFFFFFFFFFFFFF80
001FFFFFFFFFFFFFFFFFFFFFFF80
000FFFFFFFFFFFFFFFFFFFFFFF00
0007FFFFFFFFFFFFFFFFFFFFFF00
0003FFFFFFFFFFFFFFFFFFFFFF00
0001FFFFFFFFFFFFFFFFFFFFFF00
0000FFFFFFFFFFFFFFFFFFFFFE00
00003FFFFFFFFFFFFFFFFFFFFC00
00001FFFFFFFFFFFFFFFFFFFFC00
000003FFFFFFFFFFFFFFFFFFF000
000000FFFFFFFFFFFFFFFFFFE000
00000001FFFFFFFFFFFFFFFE0000
0000000000000000FFFFFC000000
0000000000000000FFFFFC000000
0000000000000000FFFFFC000000
0000000000000000FFFFFC000000
0000000000000000FFFFFC000000
0000000000000000FFFFFC000000
0000000000000000FFFFFC000000
0000000000000000FFFFFC000000
0000000000000000FFFFFC000000
0000000000000000FFFFFC000000
0000000000000000FFFFFC000000
0000000000000000FFFFFC000000
0000000000000000FFFFFC000000
0000000000000000FFFFFC000000
0000000000000000FFFFFC000000
0000000000000000FFFFF8000000
00000000000000007FFFF8000000
00000000000000007FFFF8000000
00000000000000007FFFF8000000
00000000000000003FFFF0000000
00000000000000003FFFF0000000
00000000000000001FFFE0000000
00000000000000000FFFC0000000
000000000000000003FF00000000
000000000000000000FC00000000
ENDCHAR
STARTCHAR 0035
ENCODING 53
SWIDTH 781 0
DWIDTH 125 0
BBX 106 92 10 0
BITMAP
00003FFFFFFFFFFFFFFFFFFE0000
001FFFFFFFFFFFFFFFFFFFFFE000
00FFFFFFFFFFFFFFFFFFFFFFF800
03FFFFFFFFFFFFFFFFFFFFFFFC00
07FFFFFFFFFFFFFFFFFFFFFFFE00
0FFFFFFFFFFFFFFFFFFFFFFFFE00
1FFFFFFFFFFFFFFFFFFFFFFFFF00
3FFFFFFFFFFFFFFFFFFFFFFFFF00
3FFFFFFFFFFFFFFFFFFFFFFFFF80
7FFFFFFFFFFFFFFFFFFFFFFFFF80
7FFFFFFFFFFFFFFFFFFFFFFFFF80
7FFFFFFFFFFFFFFFFFFFFFFFFF80
FFFFFFFFFFFFFFFFFFFFFFFFFF80
FFFFFFFFFFFFFFFFFFFFFFFFFF80
FFFFFFFFFFFFFFFFFFFFFFFFFF00
FFFFFFFFFFFFFFFFFFFFFFFFFF00
FFFFFFFFFFFFFFFFFFFFFFFFFE00
FFFFFFFFFFFFFFFFFFFFFFFFFE00
FFFFFFFFFFFFFFFFFFFFFFFFFC00
FFFFFFFFFFFFFFFFFFFFFFFFF800
FFFFFFFFFFFFFFFFFFFFFFFFE000
FFFFFF8000000000000000000000
FFFFFC0000000000000000000000
FFFFFC0000000000000000000000
FFFFF80000000000000000000000
FFFFF80000000000000000000000
FFFFF80000000000000000000000
FFFFF80000000000000000000000
FFFFF80000000000000000000000
FFFFFC0000000000000000000000
FFFFFC0000000000000000000000
FFFFFE0000000000000000000000
FFFFFE0000000000000000000000
FFFFFF0000000000000000000000
7FFFFFC000000000000000000000
7FFFFFFFFFFFFFFFFFE000000000
7FFFFFFFFFFFFFFFFFFFE0000000
3FFFFFFFFFFFFFFFFFFFFE000000
3FFFFFFFFFFFFFFFFFFFFF800000
3FFFFFFFFFFFFFFFFFFFFFE00000
1FFFFFFFFFFFFFFFFFFFFFF80000
1FFFFFFFFFFFFFFFFFFFFFFC0000
0FFFFFFFFFFFFFFFFFFFFFFE0000
07FFFFFFFFFFFFFFFFFFFFFF8000
07FFFFFFFFFFFFFFFFFFFFFFC000
03FFFFFFFFFFFFFFFFFFFFFFE000
01FFFFFFFFFFFFFFFFFFFFFFE000
00FFFFFFFFFFFFFFFFFFFFFFF000
007FFFFFFFFFFFFFFFFFFFFFF800
003FFFFFFFFFFFFFFFFFFFFFFC00
000FFFFFFFFFFFFFFFFFFFFFFC00
0007FFFFFFFFFFFFFFFFFFFFFE00
0001FFFFFFFFFFFFFFFFFFFFFE00
00007FFFFFFFFFFFFFFFFFFFFF00
00001FFFFFFFFFFFFFFFFFFFFF00
000001FFFFFFFFFFFFFFFFFFFF00
0000000000000000000FFFFFFF80
00000000000000000000FFFFFF80
000000000000000000007FFFFF80
000000000000000000003FFFFF80
000000000000000000001FFFFFC0
000000000000000000000FFFFFC0
000000000000000000000FFFFFC0
000000000000000000000FFFFFC0
000000000000000000000FFFFFC0
000000000000000000000FFFFFC0
000000000000000000000FFFFFC0
000000000000000000001FFFFFC0
000000000000000000003FFFFF80
000000000000000000007FFFFF80
00000000000000000000FFFFFF80
001FFFFFFFFFFFFFFFFFFFFFFF80
01FFFFFFFFFFFFFFFFFFFFFFFF00
07FFFFFFFFFFFFFFFFFFFFFFFF00
0FFFFFFFFFFFFFFFFFFFFFFFFE00
1FFFFFFFFFFFFFFFFFFFFFFFFE00
3FFFFFFFFFFFFFFFFFFFFFFFFE00
3FFFFFFFFFFFFFFFFFFFFFFFFC00
7FFFFFFFFFFFFFFFFFFFFFFFF800
7FFFFFFFFFFFFFFFFFFFFFFFF800
7FFFFFFFFFFFFFFFFFFFFFFFF000
7FFFFFFFFFFFFFFFFFFFFFFFE000
7FFFFFFFFFFFFFFFFFFFFFFFC000
7FFFFFFFFFFFFFFFFFFFFFFF8000
7FFFFFFFFFFFFFFFFFFFFFFF0000
7FFFFFFFFFFFFFFFFFFFFFFE0000
3FFFFFFFFFFFFFFFFFFFFFF80000
3FFFFFFFFFFFFFFFFFFFFFF00000
1FFFFFFFFFFFFFFFFFFFFFC00000
0FFFFFFFFFFFFFFFFFFFFF000000
07FFFFFFFFFFFFFFFFFFFC000000
01FFFFFFFFFFFFFFFFFF80000000
ENDCHAR
STARTCHAR 0036
ENCODING 54
SWIDTH 781 0
DWIDTH 125 0
BBX 108 92 9 0
BITMAP
00000001FFFFFFFFFFFFFFF00000
0000007FFFFFFFFFFFFFFFFF0000
000003FFFFFFFFFFFFFFFFFFC000
00000FFFFFFFFFFFFFFFFFFFE000
00003FFFFFFFFFFFFFFFFFFFF000
00007FFFFFFFFFFFFFFFFFFFF800
0000FFFFFFFFFFFFFFFFFFFFF800
0003FFFFFFFFFFFFFFFFFFFFFC00
0007FFFFFFFFFFFFFFFFFFFFFC00
0007FFFFFFFFFFFFFFFFFFFFFC00
000FFFFFFFFFFFFFFFFFFFFFFC00
001FFFFFFFFFFFFFFFFFFFFFFC00
003FFFFFFFFFFFFFFFFFFFFFFC00
007FFFFFFFFFFFFFFFFFFFFFFC00
007FFFFFFFFFFFFFFFFFFFFFFC00
00FFFFFFFFFFFFFFFFFFFFFFF800
01FFFFFFFFFFFFFFFFFFFFFFF800
01FFFFFFFFFFFFFFFFFFFFFFF000
03FFFFFFFFFFFFFFFFFFFFFFF000
03FFFFFFFFFFFFFFFFFFFFFFC000
07FFFFFFFFFFFFFFFFFFFFFF0000
07FFFFFFF0000000000000000000
0FFFFFFE00000000000000000000
0FFFFFF800000000000000000000
0FFFFFF000000000000000000000
1FFFFFE000000000000000000000
1FFFFFC000000000000000000000
1FFFFF8000000000000000000000
3FFFFF0000000000000000000000
3FFFFF0000000000000000000000
3FFFFE0000000000000000000000
3FFFFE0000000000000000000000
7FFFFC0000000000000000000000
7FFFFC0000000000000000000000
7FFFF80000000000000000000000
7FFFF80003FFFFFFFFF800000000
7FFFF8007FFFFFFFFFFFF8000000
7FFFF000FFFFFFFFFFFFFF800000
FFFFF003FFFFFFFFFFFFFFE00000
FFFFF003FFFFFFFFFFFFFFF80000
FFFFF007FFFFFFFFFFFFFFFE0000
FFFFE00FFFFFFFFFFFFFFFFF0000
FFFFE00FFFFFFFFFFFFFFFFFC000
FFFFE00FFFFFFFFFFFFFFFFFE000
FFFFE01FFFFFFFFFFFFFFFFFF000
FFFFE01FFFFFFFFFFFFFFFFFF800
FFFFE01FFFFFFFFFFFFFFFFFFC00
FFFFE00FFFFFFFFFFFFFFFFFFE00
FFFFE00FFFFFFFFFFFFFFFFFFE00
FFFFE00FFFFFFFFFFFFFFFFFFF00
FFFFE00FFFFFFFFFFFFFFFFFFF80
FFFFE007FFFFFFFFFFFFFFFFFF80
FFFFE003FFFFFFFFFFFFFFFFFFC0
FFFFF001FFFFFFFFFFFFFFFFFFC0
FFFFF000FFFFFFFFFFFFFFFFFFC0
7FFFF0007FFFFFFFFFFFFFFFFFE0
7FFFF000000000000003FFFFFFE0
7FFFF8000000000000003FFFFFE0
7FFFF8000000000000000FFFFFF0
7FFFFC0000000000000007FFFFF0
7FFFFC0000000000000007FFFFF0
3FFFFE0000000000000003FFFFF0
3FFFFE0000000000000003FFFFF0
3FFFFF0000000000000001FFFFF0
3FFFFF0000000000000001FFFFF0
1FFFFF8000000000000003FFFFF0
1FFFFFC000000000000003FFFFF0
1FFFFFE000000000000003FFFFF0
0FFFFFF000000000000007FFFFF0
0FFFFFFC0000000000000FFFFFF0
0FFFFFFF0000000000001FFFFFE0
07FFFFFFFFFFFFFFFFFFFFFFFFE0
07FFFFFFFFFFFFFFFFFFFFFFFFE0
03FFFFFFFFFFFFFFFFFFFFFFFFC0
03FFFFFFFFFFFFFFFFFFFFFFFFC0
01FFFFFFFFFFFFFFFFFFFFFFFFC0
01FFFFFFFFFFFFFFFFFFFFFFFF80
00FFFFFFFFFFFFFFFFFFFFFFFF80
007FFFFFFFFFFFFFFFFFFFFFFF00
007FFFFFFFFFFFFFFFFFFFFFFE00
003FFFFFFFFFFFFFFFFFFFFFFE00
001FFFFFFFFFFFFFFFFFFFFFFC00
000FFFFFFFFFFFFFFFFFFFFFF800
0007FFFFFFFFFFFFFFFFFFFFF000
0007FFFFFFFFFFFFFFFFFFFFE000
0003FFFFFFFFFFFFFFFFFFFFC000
0000FFFFFFFFFFFFFFFFFFFF0000
00007FFFFFFFFFFFFFFFFFFE0000
00003FFFFFFFFFFFFFFFFFF80000
00000FFFFFFFFFFFFFFFFFE00000
000003FFFFFFFFFFFFFFFF800000
0000007FFFFFFFFFFFFFF8000000
ENDCHAR
STARTCHAR 0037
ENCODING 55
SWIDTH 781 0
DWIDTH 125 0
BBX 106 97 10 -7
BITMAP
003FFFFFFFFFFFFFFFFFFFFF0000
03FFFFFFFFFFFFFFFFFFFFFFF000
0FFFFFFFFFFFFFFFFFFFFFFFFC00
1FFFFFFFFFFFFFFFFFFFFFFFFE00
3FFFFFFFFFFFFFFFFFFFFFFFFF00
3FFFFFFFFFFFFFFFFFFFFFFFFF80
7FFFFFFFFFFFFFFFFFFFFFFFFF80
7FFFFFFFFFFFFFFFFFFFFFFFFFC0
7FFFFFFFFFFFFFFFFFFFFFFFFFC0
FFFFFFFFFFFFFFFFFFFFFFFFFFC0
FFFFFFFFFFFFFFFFFFFFFFFFFFC0
FFFFFFFFFFFFFFFFFFFFFFFFFFC0
FFFFFFFFFFFFFFFFFFFFFFFFFFC0
FFFFFFFFFFFFFFFFFFFFFFFFFFC0
FFFFFFFFFFFFFFFFFFFFFFFFFFC0
FFFFFFFFFFFFFFFFFFFFFFFFFF80
FFFFFFFFFFFFFFFFFFFFFFFFFF80
FFFFFFFFFFFFFFFFFFFFFFFFFF00
FFFFFFFFFFFFFFFFFFFFFFFFFF00
FFFFFFFFFFFFFFFFFFFFFFFFFE00
FFFFFFFFFFFFFFFFFFFFFFFFFC00
FFFFFF80000000000007FFFFFC00
FFFFFC00000000000007FFFFF800
FFFFFC0000000000000FFFFFF800
FFFFF80000000000001FFFFFF000
FFFFF80000000000001FFFFFE000
FFFFF80000000000003FFFFFE000
FFFFF80000000000003FFFFFC000
FFFFF80000000000007FFFFFC000
FFFFF80000000000007FFFFF8000
FFFFF8000000000000FFFFFF0000
FFFFF8000000000001FFFFFF0000
FFFFF8000000000001FFFFFE0000
FFFFF8000000000003FFFFFE0000
FFFFF8000000000003FFFFFC0000
FFFFF8000000000007FFFFF80000
FFFFF800000000000FFFFFF80000
FFFFF800000000000FFFFFF00000
FFFFF800000000001FFFFFF00000
FFFFF800000000001FFFFFE00000
FFFFF800000000003FFFFFE00000
FFFFF800000000007FFFFFC00000
FFFFF800000000007FFFFF800000
FFFFF80000000000FFFFFF800000
FFFFF80000000000FFFFFF000000
7FFFF80000000001FFFFFF000000
7FFFF00000000003FFFFFE000000
7FFFF00000000003FFFFFC000000
3FFFE00000000007FFFFFC000000
1FFFE00000000007FFFFF8000000
0FFFC0000000000FFFFFF8000000
07FF00000000001FFFFFF0000000
00FC00000000001FFFFFE0000000
000000000000003FFFFFE0000000
000000000000003FFFFFC0000000
000000000000007FFFFFC0000000
00000000000000FFFFFF80000000
00000000000000FFFFFF00000000
00000000000001FFFFFF00000000
00000000000001FFFFFE00000000
00000000000003FFFFFE00000000
00000000000007FFFFFC00000000
00000000000007FFFFF800000000
0000000000000FFFFFF800000000
0000000000000FFFFFF000000000
0000000000001FFFFFF000000000
0000000000003FFFFFE000000000
0000000000003FFFFFC000000000
0000000000007FFFFFC000000000
0000000000007FFFFF8000000000
000000000000FFFFFF8000000000
000000000001FFFFFF0000000000
000000000001FFFFFE0000000000
000000000003FFFFFE0000000000
000000000003FFFFFC0000000000
000000000007FFFFFC0000000000
000000000007FFFFF80000000000
00000000000FFFFFF00000000000
00000000001FFFFFF00000000000
00000000001FFFFFE00000000000
00000000003FFFFFE00000000000
00000000003FFFFFC00000000000
00000000007FFFFFC00000000000
00000000007FFFFF800000000000
0000000000FFFFFF000000000000
0000000000FFFFFF000000000000
0000000000FFFFFE000000000000
0000000000FFFFFE000000000000
00000000007FFFFC000000000000
00000000007FFFF8000000000000
00000000003FFFF8000000000000
00000000003FFFF0000000000000
00000000001FFFE0000000000000
00000000000FFFE0000000000000
000000000007FF80000000000000
000000000001FF00000000000000
0000000000003800000000000000
ENDCHAR
STARTCHAR 0038
ENCODING 56
SWIDTH 781 0
DWIDTH 125 0
BBX 109 92 8 0
BITMAP
00000000FFFFFFFFFFF800000000
000001FFFFFFFFFFFFFFFC000000
00001FFFFFFFFFFFFFFFFF800000
00007FFFFFFFFFFFFFFFFFF00000
0001FFFFFFFFFFFFFFFFFFFC0000
0007FFFFFFFFFFFFFFFFFFFE0000
000FFFFFFFFFFFFFFFFFFFFF8000
001FFFFFFFFFFFFFFFFFFFFFC000
007FFFFFFFFFFFFFFFFFFFFFE000
00FFFFFFFFFFFFFFFFFFFFFFF000
01FFFFFFFFFFFFFFFFFFFFFFF800
01FFFFFFFFFFFFFFFFFFFFFFFC00
03FFFFFFFFFFFFFFFFFFFFFFFE00
07FFFFFFFFFFFFFFFFFFFFFFFF00
0FFFFFFFFFFFFFFFFFFFFFFFFF00
0FFFFFFFFFFFFFFFFFFFFFFFFF80
1FFFFFFFFFFFFFFFFFFFFFFFFF80
1FFFFFFFFFFFFFFFFFFFFFFFFFC0
3FFFFFFFFFFFFFFFFFFFFFFFFFC0
3FFFFFFFFFFFFFFFFFFFFFFFFFE0
3FFFFFFFFFFFFFFFFFFFFFFFFFE0
7FFFFFF00000000000007FFFFFE0
7FFFFFC00000000000001FFFFFE0
7FFFFF000000000000000FFFFFF0
7FFFFE0000000000000007FFFFF0
7FFFFE0000000000000003FFFFF0
7FFFFC0000000000000003FFFFF0
7FFFFC0000000000000003FFFFF0
7FFFFC0000000000000001FFFFF0
7FFFFC0000000000000003FFFFF0
7FFFFE0000000000000003FFFFF0
7FFFFE0000000000000003FFFFF0
7FFFFF0000000000000007FFFFF0
7FFFFF800000000000000FFFFFE0
7FFFFFE00000000000003FFFFFE0
3FFFFFFE000000000003FFFFFFE0
3FFFFFFFFFFFFFFFFFFFFFFFFFE0
3FFFFFFFFFFFFFFFFFFFFFFFFFC0
1FFFFFFFFFFFFFFFFFFFFFFFFFC0
1FFFFFFFFFFFFFFFFFFFFFFFFF80
0FFFFFFFFFFFFFFFFFFFFFFFFF80
0FFFFFFFFFFFFFFFFFFFFFFFFF00
07FFFFFFFFFFFFFFFFFFFFFFFF00
03FFFFFFFFFFFFFFFFFFFFFFFE00
01FFFFFFFFFFFFFFFFFFFFFFFC00
01FFFFFFFFFFFFFFFFFFFFFFFC00
03FFFFFFFFFFFFFFFFFFFFFFFC00
07FFFFFFFFFFFFFFFFFFFFFFFE00
07FFFFFFFFFFFFFFFFFFFFFFFF00
0FFFFFFFFFFFFFFFFFFFFFFFFF80
1FFFFFFFFFFFFFFFFFFFFFFFFF80
1FFFFFFFFFFFFFFFFFFFFFFFFFC0
3FFFFFFFFFFFFFFFFFFFFFFFFFC0
3FFFFFFFFFFFFFFFFFFFFFFFFFE0
3FFFFFFFFFFFFFFFFFFFFFFFFFE0
7FFFFFFFFFFFFFFFFFFFFFFFFFE0
7FFFFFFC000000000001FFFFFFF0
7FFFFFC00000000000001FFFFFF0
7FFFFF000000000000000FFFFFF0
FFFFFE0000000000000007FFFFF0
FFFFFE0000000000000003FFFFF0
FFFFFC0000000000000001FFFFF8
FFFFFC0000000000000001FFFFF8
FFFFFC0000000000000001FFFFF8
FFFFFC0000000000000001FFFFF8
FFFFFC0000000000000001FFFFF8
FFFFFC0000000000000001FFFFF8
FFFFFE0000000000000003FFFFF0
FFFFFE0000000000000007FFFFF0
7FFFFF800000000000000FFFFFF0
7FFFFFC00000000000003FFFFFF0
7FFFFFFFFFFFFFFFFFFFFFFFFFF0
7FFFFFFFFFFFFFFFFFFFFFFFFFE0
3FFFFFFFFFFFFFFFFFFFFFFFFFE0
3FFFFFFFFFFFFFFFFFFFFFFFFFC0
1FFFFFFFFFFFFFFFFFFFFFFFFFC0
1FFFFFFFFFFFFFFFFFFFFFFFFF80
0FFFFFFFFFFFFFFFFFFFFFFFFF80
0FFFFFFFFFFFFFFFFFFFFFFFFF00
07FFFFFFFFFFFFFFFFFFFFFFFF00
03FFFFFFFFFFFFFFFFFFFFFFFE00
01FFFFFFFFFFFFFFFFFFFFFFFC00
00FFFFFFFFFFFFFFFFFFFFFFF800
007FFFFFFFFFFFFFFFFFFFFFF000
003FFFFFFFFFFFFFFFFFFFFFE000
001FFFFFFFFFFFFFFFFFFFFFC000
000FFFFFFFFFFFFFFFFFFFFF0000
0003FFFFFFFFFFFFFFFFFFFE0000
0001FFFFFFFFFFFFFFFFFFF80000
00003FFFFFFFFFFFFFFFFFE00000
00000FFFFFFFFFFFFFFFFF000000
000000FFFFFFFFFFFFFFF0000000
ENDCHAR
STARTCHAR 0039
ENCODING 57
SWIDTH 781 0
DWIDTH 125 0
BBX 108 92 8 0
BITMAP
000000003FFFFFFFFFF800000000
000001FFFFFFFFFFFFFFE0000000
00001FFFFFFFFFFFFFFFFC000000
0000FFFFFFFFFFFFFFFFFF000000
0001FFFFFFFFFFFFFFFFFFC00000
0007FFFFFFFFFFFFFFFFFFE00000
000FFFFFFFFFFFFFFFFFFFF00000
003FFFFFFFFFFFFFFFFFFFFC0000
007FFFFFFFFFFFFFFFFFFFFE0000
00FFFFFFFFFFFFFFFFFFFFFE0000
01FFFFFFFFFFFFFFFFFFFFFF0000
03FFFFFFFFFFFFFFFFFFFFFF8000
07FFFFFFFFFFFFFFFFFFFFFFC000
07FFFFFFFFFFFFFFFFFFFFFFE000
0FFFFFFFFFFFFFFFFFFFFFFFE000
1FFFFFFFFFFFFFFFFFFFFFFFF000
1FFFFFFFFFFFFFFFFFFFFFFFF800
3FFFFFFFFFFFFFFFFFFFFFFFF800
3FFFFFFFFFFFFFFFFFFFFFFFFC00
3FFFFFFFFFFFFFFFFFFFFFFFFC00
7FFFFFFFFFFFFFFFFFFFFFFFFE00
7FFFFFF00000000000FFFFFFFE00
7FFFFF80000000000007FFFFFF00
FFFFFF00000000000003FFFFFF00
FFFFFE00000000000000FFFFFF00
FFFFFC000000000000007FFFFF80
FFFFFC000000000000003FFFFF80
FFFFF8000000000000001FFFFF80
FFFFF8000000000000000FFFFFC0
FFFFF8000000000000000FFFFFC0
FFFFFC0000000000000007FFFFC0
FFFFFC0000000000000007FFFFC0
FFFFFE0000000000000003FFFFE0
FFFFFE0000000000000003FFFFE0
FFFFFF0000000000000001FFFFE0
7FFFFFC000000000000001FFFFE0
7FFFFFFFFFFFFFFFFE0000FFFFE0
7FFFFFFFFFFFFFFFFFE000FFFFE0
3FFFFFFFFFFFFFFFFFF000FFFFF0
3FFFFFFFFFFFFFFFFFFC00FFFFF0
3FFFFFFFFFFFFFFFFFFC00FFFFF0
1FFFFFFFFFFFFFFFFFFE007FFFF0
1FFFFFFFFFFFFFFFFFFF007FFFF0
0FFFFFFFFFFFFFFFFFFF007FFFF0
07FFFFFFFFFFFFFFFFFF007FFFF0
07FFFFFFFFFFFFFFFFFF007FFFF0
03FFFFFFFFFFFFFFFFFF807FFFF0
01FFFFFFFFFFFFFFFFFF807FFFF0
00FFFFFFFFFFFFFFFFFF007FFFF0
007FFFFFFFFFFFFFFFFF007FFFF0
003FFFFFFFFFFFFFFFFF007FFFF0
000FFFFFFFFFFFFFFFFF007FFFF0
0007FFFFFFFFFFFFFFFE00FFFFF0
0001FFFFFFFFFFFFFFFC00FFFFF0
00007FFFFFFFFFFFFFFC00FFFFE0
00000FFFFFFFFFFFFFF000FFFFE0
000001FFFFFFFFFFFFC001FFFFE0
0000000000000000000001FFFFE0
0000000000000000000001FFFFE0
0000000000000000000003FFFFE0
0000000000000000000003FFFFC0
0000000000000000000007FFFFC0
0000000000000000000007FFFFC0
000000000000000000000FFFFFC0
000000000000000000001FFFFF80
000000000000000000001FFFFF80
000000000000000000003FFFFF80
000000000000000000007FFFFF80
00000000000000000000FFFFFF00
00000000000000000003FFFFFF00
0000000000000000000FFFFFFE00
0001FFFFFFFFFFFFFFFFFFFFFE00
001FFFFFFFFFFFFFFFFFFFFFFE00
007FFFFFFFFFFFFFFFFFFFFFFC00
00FFFFFFFFFFFFFFFFFFFFFFFC00
00FFFFFFFFFFFFFFFFFFFFFFF800
01FFFFFFFFFFFFFFFFFFFFFFF000
03FFFFFFFFFFFFFFFFFFFFFFF000
03FFFFFFFFFFFFFFFFFFFFFFE000
03FFFFFFFFFFFFFFFFFFFFFFC000
03FFFFFFFFFFFFFFFFFFFFFFC000
03FFFFFFFFFFFFFFFFFFFFFF8000
03FFFFFFFFFFFFFFFFFFFFFF0000
03FFFFFFFFFFFFFFFFFFFFFE0000
03FFFFFFFFFFFFFFFFFFFFFC0000
03FFFFFFFFFFFFFFFFFFFFF80000
01FFFFFFFFFFFFFFFFFFFFF00000
01FFFFFFFFFFFFFFFFFFFFE00000
00FFFFFFFFFFFFFFFFFFFFC00000
007FFFFFFFFFFFFFFFFFFF000000
003FFFFFFFFFFFFFFFFFFC000000
000FFFFFFFFFFFFFFFFFE0000000
ENDCHAR
STARTCHAR 003A
ENCODING 58
SWIDTH 325 0
DWIDTH 52 0
BBX 30 91 11 -2
BITMAP
001FE000
00FFFC00
01FFFE00
07FFFF80
0FFFFFC0
0FFFFFC0
1FFFFFE0
3FFFFFF0
3FFFFFF0
7FFFFFF8
7FFFFFF8
7FFFFFF8
7FFFFFF8
FFFFFFFC
FFFFFFFC
FFFFFFFC
FFFFFFFC
7FFFFFF8
7FFFFFF8
7FFFFFF8
7FFFFFF8
3FFFFFF0
3FFFFFF0
1FFFFFE0
1FFFFFE0
0FFFFFC0
07FFFF80
03FFFF00
00FFFC00
003FF000
00000000
00000000
00000000
00000000
00000000
00000000
00000000
00000000
00000000
00000000
00000000
00000000
00000000
00000000
00000000
00000000
00000000
00000000
00000000
00000000
00000000
00000000
00000000
00000000
00000000
00000000
00000000
00000000
00000000
00000000
00000000
003FF000
00FFFC00
03FFFF00
07FFFF80
0FFFFFC0
1FFFFFE0
1FFFFFE0
3FFFFFF0
3FFFFFF0
7FFFFFF8
7FFFFFF8
7FFFFFF8
7FFFFFF8
FFFFFFFC
FFFFFFFC
FFFFFFFC
FFFFFFFC
7FFFFFF8
7FFFFFF8
7FFFFFF8
7FFFFFF8
3FFFFFF0
3FFFFFF0
1FFFFFE0
1FFFFFE0
0FFFFFC0
07FFFF80
03FFFE00
00FFFC00
003FF000
ENDCHAR
STARTCHAR 003B
ENCODING 59
SWIDTH 325 0
DWIDTH 52 0
BBX 33 121 11 -33
BITMAP
000FC00000
007FF80000
01FFFE0000
03FFFF0000
07FFFF8000
0FFFFFC000
1FFFFFE000
3FFFFFF000
3FFFFFF000
7FFFFFF800
7FFFFFF800
7FFFFFF800
7FFFFFF800
FFFFFFF800
FFFFFFFC00
FFFFFFFC00
FFFFFFFC00
FFFFFFFC00
7FFFFFF800
7FFFFFF800
7FFFFFF800
7FFFFFF800
3FFFFFF000
3FFFFFF000
1FFFFFE000
0FFFFFC000
07FFFF8000
03FFFF0000
01FFFE0000
007FF80000
000F800000
0000000000
0000000000
0000000000
0000000000
0000000000
0000000000
0000000000
0000000000
0000000000
0000000000
0000000000
0000000000
0000000000
0000000000
0000000000
0000000000
0000000000
0000000000
0000000000
0000000000
0000000000
0000000000
0000000000
0000000000
0000000000
0000000000
0000000000
0000000000
0000000000
0000000000
001FF80000
007FFE0000
01FFFF8000
03FFFFC000
0FFFFFE000
0FFFFFF000
1FFFFFF800
3FFFFFFC00
3FFFFFFC00
7FFFFFFE00
7FFFFFFE00
7FFFFFFE00
7FFFFFFF00
7FFFFFFF00
7FFFFFFF00
7FFFFFFF00
7FFFFFFF80
7FFFFFFF80
3FFFFFFF80
3FFFFFFF80
3FFFFFFF80
1FFFFFFF80
0FFFFFFF80
07FFFFFF80
03FFFFFF80
01FFFFFF80
007FFFFF80
0007FFFF80
00007FFF80
00007FFF80
00007FFF00
00007FFF00
0000FFFF00
0000FFFF00
0000FFFF00
0001FFFE00
0001FFFE00
0003FFFE00
0003FFFC00
0007FFFC00
000FFFF800
001FFFF800
003FFFF000
007FFFF000
00FFFFE000
03FFFFC000
0FFFFFC000
1FFFFF8000
3FFFFF0000
7FFFFE0000
7FFFFC0000
FFFFF80000
FFFFF00000
FFFFE00000
FFFFC00000
FFFF800000
FFFE000000
7FFC000000
3FF0000000
1FC0000000
ENDCHAR
STARTCHAR 003C
ENCODING 60
SWIDTH 587 0
DWIDTH 94 0
BBX 82 74 6 24
BITMAP
000000000000000000FC00
000000000000000003FF00
00000000000000001FFF80
00000000000000007FFF80
0000000000000003FFFFC0
000000000000000FFFFFC0
000000000000007FFFFFC0
00000000000003FFFFFFC0
0000000000000FFFFFFFC0
0000000000007FFFFFFFC0
000000000001FFFFFFFFC0
00000000000FFFFFFFFF80
00000000003FFFFFFFFF80
0000000001FFFFFFFFFF00
000000000FFFFFFFFFFF00
000000003FFFFFFFFFFE00
00000001FFFFFFFFFFFC00
00000007FFFFFFFFFFF800
0000003FFFFFFFFFFFE000
000000FFFFFFFFFFFF8000
000007FFFFFFFFFFFC0000
00003FFFFFFFFFFFE00000
0000FFFFFFFFFFFF000000
0007FFFFFFFFFFF8000000
001FFFFFFFFFFFC0000000
00FFFFFFFFFFFE00000000
03FFFFFFFFFFF000000000
0FFFFFFFFFFF8000000000
1FFFFFFFFFFC0000000000
1FFFFFFFFFF00000000000
3FFFFFFFFF800000000000
7FFFFFFFFC000000000000
7FFFFFFFE0000000000000
7FFFFFFF00000000000000
FFFFFFF800000000000000
FFFFFFE000000000000000
FFFFFF0000000000000000
FFFFFF8000000000000000
FFFFFFF000000000000000
FFFFFFFE00000000000000
7FFFFFFFC0000000000000
7FFFFFFFF0000000000000
7FFFFFFFFE000000000000
3FFFFFFFFFC00000000000
1FFFFFFFFFF80000000000
0FFFFFFFFFFF0000000000
07FFFFFFFFFFE000000000
03FFFFFFFFFFFC00000000
007FFFFFFFFFFF00000000
000FFFFFFFFFFFE0000000
0003FFFFFFFFFFFC000000
00007FFFFFFFFFFF800000
00001FFFFFFFFFFFF00000
000003FFFFFFFFFFFE0000
0000007FFFFFFFFFFFC000
0000001FFFFFFFFFFFF000
00000003FFFFFFFFFFF800
00000000FFFFFFFFFFFC00
000000001FFFFFFFFFFE00
0000000007FFFFFFFFFF00
0000000000FFFFFFFFFF00
00000000001FFFFFFFFF80
000000000007FFFFFFFF80
000000000000FFFFFFFFC0
0000000000003FFFFFFFC0
00000000000007FFFFFFC0
00000000000000FFFFFFC0
000000000000003FFFFFC0
0000000000000007FFFFC0
0000000000000001FFFFC0
00000000000000003FFF80
000000000000000007FF80
000000000000000001FE00
0000000000000000003C00
ENDCHAR
STARTCHAR 003D
ENCODING 61
SWIDTH 587 0
DWIDTH 94 0
BBX 82 58 6 31
BITMAP
03FFFFFFFFFFFFFFFFF800
0FFFFFFFFFFFFFFFFFFE00
3FFFFFFFFFFFFFFFFFFF00
3FFFFFFFFFFFFFFFFFFF80
7FFFFFFFFFFFFFFFFFFF80
7FFFFFFFFFFFFFFFFFFFC0
FFFFFFFFFFFFFFFFFFFFC0
FFFFFFFFFFFFFFFFFFFFC0
FFFFFFFFFFFFFFFFFFFFC0
FFFFFFFFFFFFFFFFFFFFC0
FFFFFFFFFFFFFFFFFFFFC0
7FFFFFFFFFFFFFFFFFFFC0
7FFFFFFFFFFFFFFFFFFF80
3FFFFFFFFFFFFFFFFFFF80
3FFFFFFFFFFFFFFFFFFF00
0FFFFFFFFFFFFFFFFFFE00
03FFFFFFFFFFFFFFFFF800
0000000000000000000000
0000000000000000000000
0000000000000000000000
0000000000000000000000
0000000000000000000000
0000000000000000000000
0000000000000000000000
0000000000000000000000
0000000000000000000000
0000000000000000000000
0000000000000000000000
0000000000000000000000
0000000000000000000000
0000000000000000000000
0000000000000000000000
0000000000000000000000
0000000000000000000000
0000000000000000000000
0000000000000000000000
0000000000000000000000
0000000000000000000000
0000000000000000000000
0000000000000000000000
0000000000000000000000
03FFFFFFFFFFFFFFFFF800
0FFFFFFFFFFFFFFFFFFE00
3FFFFFFFFFFFFFFFFFFF00
3FFFFFFFFFFFFFFFFFFF80
7FFFFFFFFFFFFFFFFFFF80
7FFFFFFFFFFFFFFFFFFFC0
FFFFFFFFFFFFFFFFFFFFC0
FFFFFFFFFFFFFFFFFFFFC0
FFFFFFFFFFFFFFFFFFFFC0
FFFFFFFFFFFFFFFFFFFFC0
FFFFFFFFFFFFFFFFFFFFC0
7FFFFFFFFFFFFFFFFFFFC0
7FFFFFFFFFFFFFFFFFFF80
3FFFFFFFFFFFFFFFFFFF80
3FFFFFFFFFFFFFFFFFFF00
0FFFFFFFFFFFFFFFFFFE00
03FFFFFFFFFFFFFFFFF800
ENDCHAR
STARTCHAR 003E
ENCODING 62
SWIDTH 587 0
DWIDTH 94 0
BBX 82 74 6 24
BITMAP
0FC0000000000000000000
3FF0000000000000000000
7FFE000000000000000000
7FFF800000000000000000
FFFFF00000000000000000
FFFFFE0000000000000000
FFFFFF8000000000000000
FFFFFFF000000000000000
FFFFFFFC00000000000000
FFFFFFFF80000000000000
7FFFFFFFF0000000000000
7FFFFFFFFC000000000000
7FFFFFFFFF800000000000
3FFFFFFFFFE00000000000
1FFFFFFFFFFC0000000000
1FFFFFFFFFFF0000000000
0FFFFFFFFFFFE000000000
03FFFFFFFFFFFC00000000
01FFFFFFFFFFFF00000000
003FFFFFFFFFFFE0000000
0007FFFFFFFFFFF8000000
0000FFFFFFFFFFFF000000
00003FFFFFFFFFFFC00000
000007FFFFFFFFFFF80000
000000FFFFFFFFFFFF0000
0000001FFFFFFFFFFFC000
00000003FFFFFFFFFFF000
000000007FFFFFFFFFFC00
000000000FFFFFFFFFFE00
0000000001FFFFFFFFFF00
00000000003FFFFFFFFF00
00000000000FFFFFFFFF80
000000000001FFFFFFFF80
0000000000003FFFFFFFC0
00000000000007FFFFFFC0
00000000000000FFFFFFC0
000000000000003FFFFFC0
000000000000007FFFFFC0
00000000000003FFFFFFC0
0000000000000FFFFFFFC0
0000000000007FFFFFFFC0
000000000003FFFFFFFF80
00000000001FFFFFFFFF80
0000000000FFFFFFFFFF00
0000000007FFFFFFFFFE00
000000001FFFFFFFFFFE00
00000000FFFFFFFFFFF800
00000007FFFFFFFFFFF000
0000003FFFFFFFFFFF8000
000001FFFFFFFFFFFE0000
00000FFFFFFFFFFFF00000
00007FFFFFFFFFFFC00000
0003FFFFFFFFFFFE000000
001FFFFFFFFFFFF0000000
007FFFFFFFFFFFC0000000
01FFFFFFFFFFFE00000000
07FFFFFFFFFFF800000000
0FFFFFFFFFFFC000000000
1FFFFFFFFFFE0000000000
3FFFFFFFFFF80000000000
3FFFFFFFFFC00000000000
7FFFFFFFFF000000000000
7FFFFFFFF8000000000000
7FFFFFFFC0000000000000
FFFFFFFF00000000000000
FFFFFFF800000000000000
FFFFFFE000000000000000
FFFFFF0000000000000000
FFFFFC0000000000000000
FFFFE00000000000000000
7FFF000000000000000000
3FFC000000000000000000
1FE0000000000000000000
0780000000000000000000
ENDCHAR
STARTCHAR 003F
ENCODING 63
SWIDTH 781 0
DWIDTH 125 0
BBX 105 95 10 -2
BITMAP
003FFFFFFFFFFFFFFC0000000000
03FFFFFFFFFFFFFFFFFF80000000
0FFFFFFFFFFFFFFFFFFFF8000000
1FFFFFFFFFFFFFFFFFFFFE000000
3FFFFFFFFFFFFFFFFFFFFF800000
7FFFFFFFFFFFFFFFFFFFFFE00000
7FFFFFFFFFFFFFFFFFFFFFF80000
FFFFFFFFFFFFFFFFFFFFFFFC0000
FFFFFFFFFFFFFFFFFFFFFFFE0000
FFFFFFFFFFFFFFFFFFFFFFFF0000
FFFFFFFFFFFFFFFFFFFFFFFF8000
FFFFFFFFFFFFFFFFFFFFFFFFC000
FFFFFFFFFFFFFFFFFFFFFFFFE000
FFFFFFFFFFFFFFFFFFFFFFFFF000
FFFFFFFFFFFFFFFFFFFFFFFFF000
7FFFFFFFFFFFFFFFFFFFFFFFF800
7FFFFFFFFFFFFFFFFFFFFFFFFC00
3FFFFFFFFFFFFFFFFFFFFFFFFC00
1FFFFFFFFFFFFFFFFFFFFFFFFE00
0FFFFFFFFFFFFFFFFFFFFFFFFE00
03FFFFFFFFFFFFFFFFFFFFFFFE00
0000000000000000001FFFFFFF00
00000000000000000001FFFFFF00
00000000000000000000FFFFFF00
000000000000000000003FFFFF00
000000000000000000003FFFFF00
000000000000000000001FFFFF00
000000000000000000001FFFFF80
000000000000000000001FFFFF80
000000000000000000001FFFFF00
000000000000000000003FFFFF00
000000000000000000007FFFFF00
00000000000000000000FFFFFF00
00000000000000000003FFFFFF00
000000000007FFFFFFFFFFFFFF00
00000000007FFFFFFFFFFFFFFE00
0000000001FFFFFFFFFFFFFFFE00
0000000003FFFFFFFFFFFFFFFE00
000000000FFFFFFFFFFFFFFFFC00
000000001FFFFFFFFFFFFFFFFC00
000000001FFFFFFFFFFFFFFFF800
000000003FFFFFFFFFFFFFFFF800
000000007FFFFFFFFFFFFFFFF000
000000007FFFFFFFFFFFFFFFE000
00000000FFFFFFFFFFFFFFFFE000
00000000FFFFFFFFFFFFFFFFC000
00000000FFFFFFFFFFFFFFFF8000
00000001FFFFFFFFFFFFFFFF0000
00000001FFFFFFFFFFFFFFFC0000
00000001FFFFFFFFFFFFFFF80000
00000001FFFFFFFFFFFFFFF00000
00000001FFFFFFFFFFFFFFC00000
00000001FFFFFFFFFFFFFF000000
00000001FFFFFFFFFFFFF8000000
00000001FFFFFFFFFFFF80000000
00000001FFFFFC00000000000000
00000001FFFFF800000000000000
00000001FFFFF800000000000000
00000001FFFFF800000000000000
00000001FFFFF800000000000000
00000001FFFFF000000000000000
00000001FFFFF000000000000000
00000000FFFFF000000000000000
00000000FFFFE000000000000000
000000007FFFE000000000000000
000000003FFFC000000000000000
000000001FFF8000000000000000
0000000007FE0000000000000000
0000000000600000000000000000
0000000000000000000000000000
0000000000000000000000000000
0000000000000000000000000000
0000000000000000000000000000
0000000001F80000000000000000
000000000FFF0000000000000000
000000003FFFC000000000000000
000000007FFFE000000000000000
00000000FFFFF000000000000000
00000001FFFFF800000000000000
00000003FFFFFC00000000000000
00000003FFFFFC00000000000000
00000007FFFFFE00000000000000
00000007FFFFFE00000000000000
00000007FFFFFE00000000000000
00000007FFFFFE00000000000000
00000007FFFFFE00000000000000
00000003FFFFFC00000000000000
00000003FFFFFC00000000000000
00000003FFFFFC00000000000000
00000001FFFFF800000000000000
00000000FFFFF000000000000000
000000007FFFE000000000000000
000000003FFFC000000000000000
000000000FFF0000000000000000
0000000000600000000000000000
ENDCHAR
STARTCHAR 0040
ENCODING 64
SWIDTH 1000 0
DWIDTH 160 0
BBX 143 151 9 -31
BITMAP
000000000000000001FFFF80000000000000
0000000000000000FFFFFFFF000000000000
000000000000000FFFFFFFFFF00000000000
00000000000000FFFFFFFFFFFE0000000000
00000000000007FFFFFFFFFFFFC000000000
0000000000001FFFFFFFFFFFFFF000000000
000000000000FFFFFFFFFFFFFFFE00000000
000000000003FFFFFFFFFFFFFFFF80000000
00000000000FFFFFFFFFFFFFFFFFC0000000
00000000003FFFFFFFFFFFFFFFFFF0000000
0000000000FFFFFFFFFFFFFFFFFFF8000000
0000000003FFFFFFFFFFFFFFFFFFFE000000
0000000007FFFFFFFFFFFFFFFFFFFF000000
000000001FFFFFFFFFFFFFFFFFFFFF800000
000000003FFFFFFFFFFFFFFFFFFFFFE00000
00000000FFFFFFFFFE0001FFFFFFFFF00000
00000001FFFFFFFF80000007FFFFFFF80000
00000003FFFFFFFC000000007FFFFFFC0000
00000007FFFFFFE0000000000FFFFFFE0000
0000001FFFFFFF000000000003FFFFFF0000
0000003FFFFFFC000000000000FFFFFF8000
0000007FFFFFF00000000000003FFFFF8000
000000FFFFFFC00000000000000FFFFFC000
000001FFFFFF0000000000000007FFFFE000
000003FFFFFE0000000000000001FFFFF000
000007FFFFF80000000000000000FFFFF000
00000FFFFFF000000000000000007FFFF800
00001FFFFFC000000000000000003FFFFC00
00001FFFFF8000000000000000001FFFFC00
00003FFFFF0000000000000000000FFFFE00
00007FFFFC00000000000000000007FFFE00
0000FFFFF800000000000000000003FFFF00
0000FFFFF000000000000000000003FFFF00
0001FFFFE000000000000000000001FFFF80
0003FFFFC000000000000000000000FFFF80
0003FFFF8000000000000000000000FFFFC0
0007FFFF00000000000000000000007FFFC0
000FFFFF00000000000000000000003FFFE0
000FFFFE00000000000000000000003FFFE0
001FFFFC00000000000000000000001FFFE0
001FFFF8000000000FF800000000001FFFF0
003FFFF800000000FFFF00004000000FFFF0
003FFFF000000007FFFFC007F800000FFFF0
007FFFE00000001FFFFFE01FFC00000FFFF8
007FFFE00000003FFFFFF03FFE000007FFF8
00FFFFC0000000FFFFFFF87FFE000007FFF8
00FFFF80000001FFFFFFFC7FFE000007FFF8
01FFFF80000007FFFFFFFCFFFE000003FFF8
01FFFF0000000FFFFFFFFEFFFE000003FFFC
03FFFF0000001FFFFFFFFFFFFE000003FFFC
03FFFE0000003FFFFFFFFFFFFE000003FFFC
03FFFE0000007FFFFFFFFFFFFE000001FFFC
07FFFC000000FFFFFFFFFFFFFE000001FFFC
07FFFC000000FFFFFFFFFFFFFC000001FFFC
0FFFF8000001FFFFFFFFFFFFFC000001FFFC
0FFFF8000003FFFFFE07FFFFFC000001FFFE
0FFFF8000007FFFFF001FFFFFC000000FFFE
0FFFF0000007FFFFC0007FFFFC000000FFFE
1FFFF000000FFFFF80007FFFF8000000FFFE
1FFFF000001FFFFF00003FFFF8000000FFFE
1FFFE000001FFFFE00001FFFF8000000FFFE
3FFFE000003FFFFC00001FFFF8000000FFFE
3FFFE000003FFFF800001FFFF8000000FFFE
3FFFC000007FFFF800001FFFF0000000FFFE
3FFFC000007FFFF000001FFFF0000000FFFE
3FFFC000007FFFE000001FFFF0000000FFFE
7FFFC00000FFFFE000003FFFF0000000FFFE
7FFF800000FFFFC000003FFFF0000000FFFE
7FFF800001FFFFC000003FFFE0000000FFFE
7FFF800001FFFF8000003FFFE0000000FFFE
7FFF800001FFFF8000003FFFE0000000FFFE
7FFF800001FFFF8000003FFFE0000000FFFE
7FFF800003FFFF0000007FFFE0000001FFFC
FFFF800003FFFF0000007FFFC0000001FFFC
FFFF000003FFFF0000007FFFC0000001FFFC
FFFF000003FFFF0000007FFFC0000001FFFC
FFFF000003FFFF0000007FFFC0000001FFFC
FFFF000007FFFE000000FFFFC0000003FFFC
FFFF000007FFFE000000FFFF80000003FFF8
FFFF000007FFFE000000FFFF80000003FFF8
FFFF000007FFFE000000FFFF80000007FFF8
FFFF000007FFFE000000FFFF80000007FFF8
FFFF000007FFFE000000FFFF00000007FFF0
FFFF000007FFFE000001FFFF0000000FFFF0
FFFF000007FFFE000001FFFF0000000FFFF0
FFFF000007FFFE000001FFFF0000001FFFE0
FFFF000007FFFE000001FFFF0000003FFFE0
FFFF000007FFFE000003FFFF0000003FFFC0
FFFF000007FFFF000007FFFF0000007FFFC0
FFFF000007FFFF000007FFFF000000FFFF80
FFFF000007FFFF00000FFFFF000000FFFF80
FFFF800003FFFF80001FFFFF000001FFFF00
FFFF800003FFFFC0007FFFFF000003FFFF00
7FFF800003FFFFE000FFFFFF800007FFFE00
7FFF800003FFFFF001FFFFFF80001FFFFE00
7FFF800001FFFFFC0FFFFFFFC0003FFFFC00
7FFF800001FFFFFFFFFFFFFFE000FFFFF800
7FFFC00000FFFFFFFFFFFFFFFC07FFFFF800
7FFFC00000FFFFFFFFFFFFFFFFFFFFFFF000
7FFFC00000FFFFFFFFFFDFFFFFFFFFFFE000
3FFFC000007FFFFFFFFF9FFFFFFFFFFFC000
3FFFE000003FFFFFFFFF1FFFFFFFFFFF8000
3FFFE000003FFFFFFFFE0FFFFFFFFFFF0000
3FFFE000001FFFFFFFFC0FFFFFFFFFFE0000
1FFFF000000FFFFFFFF807FFFFFFFFFC0000
1FFFF0000007FFFFFFF003FFFFFFFFF00000
1FFFF0000003FFFFFFC003FFFFFFFFE00000
1FFFF8000000FFFFFF0001FFFFFFFF800000
0FFFF80000007FFFFE0000FFFFFFFF000000
0FFFFC0000000FFFF000003FFFFFFC000000
0FFFFC00000001FF8000000FFFFFE0000000
07FFFE000000000000000003FFFF80000000
07FFFE0000000000000000007FF800000000
03FFFF000000000000000000000000000000
03FFFF800000000000000000000000000000
03FFFF800000000000000000000000000000
01FFFFC00000000000000000000000000000
01FFFFE00000000000000000000000000000
00FFFFF00000000000000000000000000000
007FFFF80000000000000000000000000000
007FFFF80000000000000000000000000000
003FFFFC0000000000000000000000000000
003FFFFF0000000000000000000000000000
001FFFFF8000000000000000000000000000
000FFFFFC000000000000000000000000000
000FFFFFE000000000000000000000000000
0007FFFFF800000000000000000000000000
0003FFFFFC00000000000000000000000000
0001FFFFFF00000000000000000000000000
0001FFFFFFC0000000000000000000000000
0000FFFFFFF0000000000000000000000000
00007FFFFFFC00000000000F000000000000
00003FFFFFFF80000000007FC00000000000
00001FFFFFFFE000000003FFE00000000000
00000FFFFFFFFE0000003FFFF00000000000
000003FFFFFFFFF80007FFFFF00000000000
000001FFFFFFFFFFFFFFFFFFF00000000000
000000FFFFFFFFFFFFFFFFFFF80000000000
0000007FFFFFFFFFFFFFFFFFF80000000000
0000001FFFFFFFFFFFFFFFFFF80000000000
0000000FFFFFFFFFFFFFFFFFF00000000000
00000003FFFFFFFFFFFFFFFFF00000000000
00000000FFFFFFFFFFFFFFFFE00000000000
000000003FFFFFFFFFFFFFFFE00000000000
000000000FFFFFFFFFFFFFFFC00000000000
0000000003FFFFFFFFFFFFFF000000000000
00000000007FFFFFFFFFFFF8000000000000
00000000000FFFFFFFFFFFC0000000000000
000000000001FFFFFFFFFE00000000000000
0000000000000FFFFFFFE000000000000000
000000000000003FFFF00000000000000000
ENDCHAR
STARTCHAR 0041
ENCODING 65
SWIDTH 731 0
DWIDTH 117 0
BBX 106 98 5 -1
BITMAP
000000000001FFF0000000000000
00000000000FFFFE000000000000
00000000003FFFFF800000000000
0000000000FFFFFFE00000000000
0000000003FFFFFFF00000000000
0000000007FFFFFFFC0000000000
000000000FFFFFFFFE0000000000
000000001FFFFFFFFF0000000000
000000003FFFFFFFFF0000000000
000000003FFFFFFFFF8000000000
000000007FFFFFFFFFC000000000
00000000FFFFFFFFFFE000000000
00000000FFFFFFFFFFE000000000
00000001FFFFFFFFFFF000000000
00000003FFFFFFFFFFF800000000
00000003FFFFFFFFFFF800000000
00000007FFFFFFFFFFFC00000000
00000007FFFFFFFFFFFC00000000
0000000FFFFFFFFFFFFE00000000
0000001FFFFFFFFFFFFE00000000
0000001FFFFFFFFFFFFF00000000
0000003FFFFFFFFFFFFF00000000
0000003FFFFFE1FFFFFF80000000
0000007FFFFFC07FFFFF80000000
0000007FFFFF803FFFFFC0000000
000000FFFFFF001FFFFFC0000000
000000FFFFFE000FFFFFE0000000
000001FFFFFC000FFFFFE0000000
000001FFFFFC0007FFFFF0000000
000003FFFFF80007FFFFF0000000
000003FFFFF80003FFFFF8000000
000003FFFFF00001FFFFF8000000
000007FFFFF00001FFFFFC000000
000007FFFFE00000FFFFFC000000
00000FFFFFE00000FFFFFC000000
00000FFFFFC000007FFFFE000000
00001FFFFFC000007FFFFE000000
00001FFFFF8000007FFFFF000000
00001FFFFF8000003FFFFF000000
00003FFFFF0000003FFFFF800000
00003FFFFF0000001FFFFF800000
00007FFFFF0000001FFFFF800000
00007FFFFE0000000FFFFFC00000
00007FFFFE0000000FFFFFC00000
0000FFFFFC0000000FFFFFC00000
0000FFFFFC00000007FFFFE00000
0001FFFFFC00000007FFFFE00000
0001FFFFF800000003FFFFF00000
0001FFFFF800000003FFFFF00000
0003FFFFF000000003FFFFF00000
0003FFFFF000000001FFFFF80000
0003FFFFF000000001FFFFF80000
0007FFFFE000000001FFFFFC0000
0007FFFFE000000000FFFFFC0000
000FFFFFE000000000FFFFFC0000
000FFFFFC000000000FFFFFE0000
000FFFFFC0000000007FFFFE0000
001FFFFF80000000007FFFFF0000
001FFFFF80000000003FFFFF0000
003FFFFF80000000003FFFFF0000
003FFFFF00000000003FFFFF8000
003FFFFF0001FFFFFFFFFFFF8000
007FFFFF0007FFFFFFFFFFFF8000
007FFFFE000FFFFFFFFFFFFFC000
00FFFFFE001FFFFFFFFFFFFFC000
00FFFFFE003FFFFFFFFFFFFFE000
00FFFFFC007FFFFFFFFFFFFFE000
01FFFFFC007FFFFFFFFFFFFFE000
01FFFFF800FFFFFFFFFFFFFFF000
01FFFFF800FFFFFFFFFFFFFFF000
03FFFFF800FFFFFFFFFFFFFFF800
03FFFFF000FFFFFFFFFFFFFFF800
07FFFFF000FFFFFFFFFFFFFFF800
07FFFFF000FFFFFFFFFFFFFFFC00
07FFFFE000FFFFFFFFFFFFFFFC00
0FFFFFE0007FFFFFFFFFFFFFFC00
0FFFFFE0007FFFFFFFFFFFFFFE00
1FFFFFC0003FFFFFFFFFFFFFFE00
1FFFFFC0001FFFFFFFFFFFFFFF00
1FFFFF80000FFFFFFFFFFFFFFF00
3FFFFF800007FFFFFFFFFFFFFF00
3FFFFF800001FFFFFFFFFFFFFF80
3FFFFF000000000000003FFFFF80
7FFFFF000000000000003FFFFFC0
7FFFFF000000000000001FFFFFC0
FFFFFE000000000000001FFFFFC0
FFFFFE000000000000000FFFFFC0
FFFFFE000000000000000FFFFFC0
FFFFFC000000000000000FFFFFC0
FFFFFC0000000000000007FFFFC0
7FFFF80000000000000007FFFFC0
7FFFF80000000000000003FFFFC0
7FFFF00000000000000003FFFF80
3FFFE00000000000000001FFFF80
1FFFE00000000000000000FFFF00
0FFFC000000000000000007FFE00
03FF0000000000000000003FF800
0020000000000000000000018000
ENDCHAR
STARTCHAR 0042
ENCODING 66
SWIDTH 768 0
DWIDTH 123 0
BBX 107 92 10 0
BITMAP
003FFFFFFFFFFFFF000000000000
03FFFFFFFFFFFFFFFFC000000000
0FFFFFFFFFFFFFFFFFFC00000000
1FFFFFFFFFFFFFFFFFFF80000000
3FFFFFFFFFFFFFFFFFFFE0000000
7FFFFFFFFFFFFFFFFFFFF0000000
7FFFFFFFFFFFFFFFFFFFFC000000
7FFFFFFFFFFFFFFFFFFFFE000000
FFFFFFFFFFFFFFFFFFFFFF000000
FFFFFFFFFFFFFFFFFFFFFFC00000
FFFFFFFFFFFFFFFFFFFFFFE00000
FFFFFFFFFFFFFFFFFFFFFFE00000
FFFFFFFFFFFFFFFFFFFFFFF00000
FFFFFFFFFFFFFFFFFFFFFFF80000
FFFFFFFFFFFFFFFFFFFFFFFC0000
FFFFFFFFFFFFFFFFFFFFFFFC0000
FFFFFFFFFFFFFFFFFFFFFFFE0000
FFFFFFFFFFFFFFFFFFFFFFFE0000
FFFFFFFFFFFFFFFFFFFFFFFF0000
FFFFFFFFFFFFFFFFFFFFFFFF0000
FFFFFFFFFFFFFFFFFFFFFFFF8000
FFFFFF80000000000FFFFFFF8000
FFFFFC000000000000FFFFFF8000
FFFFFC0000000000003FFFFF8000
FFFFF80000000000001FFFFFC000
FFFFF80000000000000FFFFFC000
FFFFF80000000000000FFFFFC000
FFFFF80000000000000FFFFFC000
FFFFF80000000000000FFFFFC000
FFFFF80000000000000FFFFFC000
FFFFF80000000000000FFFFFC000
FFFFF80000000000001FFFFFC000
FFFFF80000000000001FFFFFC000
FFFFF80000000000003FFFFF8000
FFFFF8000000000000FFFFFF8000
FFFFF800000000000FFFFFFF8000
FFFFFFFFFFFFFFFFFFFFFFFF8000
FFFFFFFFFFFFFFFFFFFFFFFF0000
FFFFFFFFFFFFFFFFFFFFFFFF0000
FFFFFFFFFFFFFFFFFFFFFFFF0000
FFFFFFFFFFFFFFFFFFFFFFFE0000
FFFFFFFFFFFFFFFFFFFFFFFE0000
FFFFFFFFFFFFFFFFFFFFFFFF0000
FFFFFFFFFFFFFFFFFFFFFFFFC000
FFFFFFFFFFFFFFFFFFFFFFFFE000
FFFFFFFFFFFFFFFFFFFFFFFFF000
FFFFFFFFFFFFFFFFFFFFFFFFF800
FFFFFFFFFFFFFFFFFFFFFFFFF800
FFFFFFFFFFFFFFFFFFFFFFFFFC00
FFFFFFFFFFFFFFFFFFFFFFFFFE00
FFFFFFFFFFFFFFFFFFFFFFFFFF00
FFFFFFFFFFFFFFFFFFFFFFFFFF00
FFFFFFFFFFFFFFFFFFFFFFFFFF80
FFFFFFFFFFFFFFFFFFFFFFFFFF80
FFFFFFFFFFFFFFFFFFFFFFFFFF80
FFFFFFFFFFFFFFFFFFFFFFFFFFC0
FFFFF800000000000007FFFFFFC0
FFFFF8000000000000007FFFFFC0
FFFFF8000000000000001FFFFFC0
FFFFF8000000000000001FFFFFE0
FFFFF8000000000000000FFFFFE0
FFFFF80000000000000007FFFFE0
FFFFF80000000000000007FFFFE0
FFFFF80000000000000007FFFFE0
FFFFF80000000000000007FFFFE0
FFFFF80000000000000007FFFFE0
FFFFF80000000000000007FFFFE0
FFFFF8000000000000000FFFFFE0
FFFFF8000000000000000FFFFFE0
FFFFFC000000000000001FFFFFC0
FFFFFC000000000000007FFFFFC0
FFFFFFFFFFFFFFFFFFFFFFFFFFC0
FFFFFFFFFFFFFFFFFFFFFFFFFFC0
FFFFFFFFFFFFFFFFFFFFFFFFFF80
FFFFFFFFFFFFFFFFFFFFFFFFFF80
FFFFFFFFFFFFFFFFFFFFFFFFFF00
FFFFFFFFFFFFFFFFFFFFFFFFFF00
FFFFFFFFFFFFFFFFFFFFFFFFFE00
FFFFFFFFFFFFFFFFFFFFFFFFFE00
FFFFFFFFFFFFFFFFFFFFFFFFFC00
FFFFFFFFFFFFFFFFFFFFFFFFF800
FFFFFFFFFFFFFFFFFFFFFFFFF800
FFFFFFFFFFFFFFFFFFFFFFFFF000
FFFFFFFFFFFFFFFFFFFFFFFFE000
FFFFFFFFFFFFFFFFFFFFFFFFC000
7FFFFFFFFFFFFFFFFFFFFFFF0000
7FFFFFFFFFFFFFFFFFFFFFFE0000
3FFFFFFFFFFFFFFFFFFFFFFC0000
3FFFFFFFFFFFFFFFFFFFFFF00000
1FFFFFFFFFFFFFFFFFFFFFC00000
0FFFFFFFFFFFFFFFFFFFFF000000
03FFFFFFFFFFFFFFFFFFF0000000
ENDCHAR
STARTCHAR 0043
ENCODING 67
SWIDTH 700 0
DWIDTH 112 0
BBX 99 93 9 0
BITMAP
00000001FFFFFFFFFFFFFF0000
000000FFFFFFFFFFFFFFFFF000
000003FFFFFFFFFFFFFFFFFC00
00000FFFFFFFFFFFFFFFFFFE00
00003FFFFFFFFFFFFFFFFFFF00
00007FFFFFFFFFFFFFFFFFFF80
0000FFFFFFFFFFFFFFFFFFFF80
0003FFFFFFFFFFFFFFFFFFFFC0
0007FFFFFFFFFFFFFFFFFFFFC0
000FFFFFFFFFFFFFFFFFFFFFC0
000FFFFFFFFFFFFFFFFFFFFFE0
001FFFFFFFFFFFFFFFFFFFFFE0
003FFFFFFFFFFFFFFFFFFFFFE0
007FFFFFFFFFFFFFFFFFFFFFC0
007FFFFFFFFFFFFFFFFFFFFFC0
00FFFFFFFFFFFFFFFFFFFFFFC0
01FFFFFFFFFFFFFFFFFFFFFF80
01FFFFFFFFFFFFFFFFFFFFFF00
03FFFFFFFFFFFFFFFFFFFFFF00
03FFFFFFFFFFFFFFFFFFFFFC00
07FFFFFFFFFFFFFFFFFFFFF800
07FFFFFFF00000000000000000
0FFFFFFE000000000000000000
0FFFFFF8000000000000000000
0FFFFFF0000000000000000000
1FFFFFE0000000000000000000
1FFFFFC0000000000000000000
1FFFFF80000000000000000000
3FFFFF00000000000000000000
3FFFFF00000000000000000000
3FFFFE00000000000000000000
3FFFFC00000000000000000000
7FFFFC00000000000000000000
7FFFF800000000000000000000
7FFFF800000000000000000000
7FFFF800000000000000000000
7FFFF000000000000000000000
7FFFF000000000000000000000
FFFFF000000000000000000000
FFFFF000000000000000000000
FFFFF000000000000000000000
FFFFE000000000000000000000
FFFFE000000000000000000000
FFFFE000000000000000000000
FFFFE000000000000000000000
FFFFE000000000000000000000
FFFFE000000000000000000000
FFFFE000000000000000000000
FFFFE000000000000000000000
FFFFE000000000000000000000
FFFFE000000000000000000000
FFFFE000000000000000000000
FFFFE000000000000000000000
FFFFF000000000000000000000
FFFFF000000000000000000000
7FFFF000000000000000000000
7FFFF000000000000000000000
7FFFF800000000000000000000
7FFFF800000000000000000000
7FFFF800000000000000000000
7FFFFC00000000000000000000
3FFFFC00000000000000000000
3FFFFE00000000000000000000
3FFFFE00000000000000000000
3FFFFF00000000000000000000
1FFFFF80000000000000000000
1FFFFFC0000000000000000000
1FFFFFE0000000000000000000
0FFFFFF0000000000000000000
0FFFFFF8000000000000000000
0FFFFFFE000000000000000000
07FFFFFFE00000000000000000
07FFFFFFFFFFFFFFFFFFFFE000
03FFFFFFFFFFFFFFFFFFFFFC00
03FFFFFFFFFFFFFFFFFFFFFE00
01FFFFFFFFFFFFFFFFFFFFFF00
01FFFFFFFFFFFFFFFFFFFFFF80
00FFFFFFFFFFFFFFFFFFFFFF80
00FFFFFFFFFFFFFFFFFFFFFFC0
007FFFFFFFFFFFFFFFFFFFFFC0
003FFFFFFFFFFFFFFFFFFFFFC0
001FFFFFFFFFFFFFFFFFFFFFE0
001FFFFFFFFFFFFFFFFFFFFFE0
000FFFFFFFFFFFFFFFFFFFFFE0
0007FFFFFFFFFFFFFFFFFFFFC0
0003FFFFFFFFFFFFFFFFFFFFC0
0001FFFFFFFFFFFFFFFFFFFFC0
0000FFFFFFFFFFFFFFFFFFFF80
00003FFFFFFFFFFFFFFFFFFF80
00001FFFFFFFFFFFFFFFFFFF00
000007FFFFFFFFFFFFFFFFFE00
000000FFFFFFFFFFFFFFFFF800
00000007FFFFFFFFFFFFFFC000
ENDCHAR
STARTCHAR 0044
ENCODING 68
SWIDTH 725 0
DWIDTH 116 0
BBX 99 93 10 0
BITMAP
003FFFFFFFFFFFFFF000000000
03FFFFFFFFFFFFFFFFC0000000
07FFFFFFFFFFFFFFFFF8000000
1FFFFFFFFFFFFFFFFFFE000000
1FFFFFFFFFFFFFFFFFFF800000
3FFFFFFFFFFFFFFFFFFFC00000
7FFFFFFFFFFFFFFFFFFFE00000
7FFFFFFFFFFFFFFFFFFFF80000
7FFFFFFFFFFFFFFFFFFFFC0000
FFFFFFFFFFFFFFFFFFFFFC0000
FFFFFFFFFFFFFFFFFFFFFE0000
FFFFFFFFFFFFFFFFFFFFFF0000
FFFFFFFFFFFFFFFFFFFFFF8000
7FFFFFFFFFFFFFFFFFFFFFC000
7FFFFFFFFFFFFFFFFFFFFFC000
7FFFFFFFFFFFFFFFFFFFFFE000
3FFFFFFFFFFFFFFFFFFFFFE000
3FFFFFFFFFFFFFFFFFFFFFF000
1FFFFFFFFFFFFFFFFFFFFFF800
0FFFFFFFFFFFFFFFFFFFFFF800
03FFFFFFFFFFFFFFFFFFFFFC00
0000000000000001FFFFFFFC00
00000000000000000FFFFFFC00
000000000000000007FFFFFE00
000000000000000001FFFFFE00
000000000000000000FFFFFF00
0000000000000000007FFFFF00
0000000000000000003FFFFF00
0000000000000000001FFFFF00
0000000000000000001FFFFF80
0000000000000000000FFFFF80
0000000000000000000FFFFF80
00000000000000000007FFFF80
00000000000000000007FFFFC0
01FE0000000000000003FFFFC0
07FF8000000000000003FFFFC0
0FFFC000000000000003FFFFC0
1FFFE000000000000001FFFFC0
3FFFF000000000000001FFFFC0
7FFFF000000000000001FFFFE0
7FFFF800000000000001FFFFE0
7FFFF800000000000000FFFFE0
FFFFF800000000000000FFFFE0
FFFFF800000000000000FFFFE0
FFFFF800000000000000FFFFE0
FFFFF800000000000000FFFFE0
FFFFF800000000000000FFFFE0
FFFFF800000000000000FFFFE0
FFFFF800000000000000FFFFE0
FFFFF800000000000000FFFFE0
FFFFF800000000000000FFFFE0
FFFFF800000000000000FFFFE0
FFFFF800000000000001FFFFE0
FFFFF800000000000001FFFFE0
FFFFF800000000000001FFFFE0
FFFFF800000000000001FFFFC0
FFFFF800000000000001FFFFC0
FFFFF800000000000003FFFFC0
FFFFF800000000000003FFFFC0
FFFFF800000000000007FFFFC0
FFFFF800000000000007FFFFC0
FFFFF800000000000007FFFF80
FFFFF80000000000000FFFFF80
FFFFF80000000000001FFFFF80
FFFFF80000000000001FFFFF80
FFFFF80000000000003FFFFF00
FFFFF80000000000007FFFFF00
FFFFF8000000000000FFFFFF00
FFFFF8000000000001FFFFFE00
FFFFFC000000000003FFFFFE00
FFFFFC00000000000FFFFFFE00
FFFFFF0000000000FFFFFFFC00
FFFFFFFFFFFFFFFFFFFFFFFC00
FFFFFFFFFFFFFFFFFFFFFFF800
FFFFFFFFFFFFFFFFFFFFFFF800
FFFFFFFFFFFFFFFFFFFFFFF000
FFFFFFFFFFFFFFFFFFFFFFF000
FFFFFFFFFFFFFFFFFFFFFFE000
FFFFFFFFFFFFFFFFFFFFFFC000
FFFFFFFFFFFFFFFFFFFFFFC000
FFFFFFFFFFFFFFFFFFFFFF8000
FFFFFFFFFFFFFFFFFFFFFF0000
FFFFFFFFFFFFFFFFFFFFFF0000
FFFFFFFFFFFFFFFFFFFFFE0000
7FFFFFFFFFFFFFFFFFFFFC0000
7FFFFFFFFFFFFFFFFFFFF80000
7FFFFFFFFFFFFFFFFFFFF00000
3FFFFFFFFFFFFFFFFFFFE00000
3FFFFFFFFFFFFFFFFFFF800000
1FFFFFFFFFFFFFFFFFFF000000
0FFFFFFFFFFFFFFFFFF8000000
03FFFFFFFFFFFFFFFFE0000000
007FFFFFFFFFFFFFFC00000000
ENDCHAR
STARTCHAR 0045
ENCODING 69
SWIDTH 718 0
DWIDTH 115 0
BBX 101 93 8 0
BITMAP
00000001FFFFFFFFFFFFFFE000
0000007FFFFFFFFFFFFFFFFF00
000003FFFFFFFFFFFFFFFFFF80
00000FFFFFFFFFFFFFFFFFFFC0
00003FFFFFFFFFFFFFFFFFFFE0
00007FFFFFFFFFFFFFFFFFFFF0
0000FFFFFFFFFFFFFFFFFFFFF0
0003FFFFFFFFFFFFFFFFFFFFF8
0007FFFFFFFFFFFFFFFFFFFFF8
0007FFFFFFFFFFFFFFFFFFFFF8
000FFFFFFFFFFFFFFFFFFFFFF8
001FFFFFFFFFFFFFFFFFFFFFF8
003FFFFFFFFFFFFFFFFFFFFFF8
007FFFFFFFFFFFFFFFFFFFFFF8
007FFFFFFFFFFFFFFFFFFFFFF8
00FFFFFFFFFFFFFFFFFFFFFFF8
01FFFFFFFFFFFFFFFFFFFFFFF0
01FFFFFFFFFFFFFFFFFFFFFFE0
03FFFFFFFFFFFFFFFFFFFFFFE0
03FFFFFFFFFFFFFFFFFFFFFF80
07FFFFFFFFFFFFFFFFFFFFFF00
07FFFFFFF00000000000000000
0FFFFFFE000000000000000000
0FFFFFF8000000000000000000
0FFFFFF0000000000000000000
1FFFFFE0000000000000000000
1FFFFFC0000000000000000000
1FFFFF80000000000000000000
3FFFFF00000000000000000000
3FFFFF00000000000000000000
3FFFFE00000000000000000000
3FFFFE00000000000000000000
7FFFFC00000000000000000000
7FFFFC00000000000000000000
7FFFF800000000000000000000
7FFFF800001FFFFFFFFFFFE000
7FFFF80001FFFFFFFFFFFFFE00
7FFFF00007FFFFFFFFFFFFFF80
FFFFF0000FFFFFFFFFFFFFFFC0
FFFFF0001FFFFFFFFFFFFFFFE0
FFFFF0003FFFFFFFFFFFFFFFF0
FFFFE0003FFFFFFFFFFFFFFFF0
FFFFE0007FFFFFFFFFFFFFFFF0
FFFFE0007FFFFFFFFFFFFFFFF8
FFFFE0007FFFFFFFFFFFFFFFF8
FFFFE0007FFFFFFFFFFFFFFFF8
FFFFE0007FFFFFFFFFFFFFFFF8
FFFFE0007FFFFFFFFFFFFFFFF8
FFFFE0007FFFFFFFFFFFFFFFF8
FFFFE0007FFFFFFFFFFFFFFFF0
FFFFE0003FFFFFFFFFFFFFFFF0
FFFFE0003FFFFFFFFFFFFFFFE0
FFFFE0001FFFFFFFFFFFFFFFE0
FFFFF0000FFFFFFFFFFFFFFFC0
FFFFF00007FFFFFFFFFFFFFF80
7FFFF00001FFFFFFFFFFFFFE00
7FFFF000000000000000000000
7FFFF800000000000000000000
7FFFF800000000000000000000
7FFFF800000000000000000000
7FFFFC00000000000000000000
3FFFFC00000000000000000000
3FFFFE00000000000000000000
3FFFFF00000000000000000000
3FFFFF00000000000000000000
1FFFFF80000000000000000000
1FFFFFC0000000000000000000
1FFFFFE0000000000000000000
0FFFFFF0000000000000000000
0FFFFFF8000000000000000000
0FFFFFFE000000000000000000
07FFFFFFE00000000000000000
07FFFFFFFFFFFFFFFFFFFFFE00
03FFFFFFFFFFFFFFFFFFFFFF80
03FFFFFFFFFFFFFFFFFFFFFFC0
01FFFFFFFFFFFFFFFFFFFFFFE0
01FFFFFFFFFFFFFFFFFFFFFFF0
00FFFFFFFFFFFFFFFFFFFFFFF0
00FFFFFFFFFFFFFFFFFFFFFFF8
007FFFFFFFFFFFFFFFFFFFFFF8
003FFFFFFFFFFFFFFFFFFFFFF8
001FFFFFFFFFFFFFFFFFFFFFF8
001FFFFFFFFFFFFFFFFFFFFFF8
000FFFFFFFFFFFFFFFFFFFFFF8
0007FFFFFFFFFFFFFFFFFFFFF8
0003FFFFFFFFFFFFFFFFFFFFF8
0001FFFFFFFFFFFFFFFFFFFFF8
0000FFFFFFFFFFFFFFFFFFFFF0
00003FFFFFFFFFFFFFFFFFFFE0
00001FFFFFFFFFFFFFFFFFFFE0
000007FFFFFFFFFFFFFFFFFFC0
000000FFFFFFFFFFFFFFFFFF00
00000007FFFFFFFFFFFFFFF800
ENDCHAR
STARTCHAR 0046
ENCODING 70
SWIDTH 731 0
DWIDTH 117 0
BBX 103 95 10 -2
BITMAP
00000000FFFFFFFFFFFFFFF000
0000007FFFFFFFFFFFFFFFFF00
000003FFFFFFFFFFFFFFFFFFC0
00000FFFFFFFFFFFFFFFFFFFE0
00003FFFFFFFFFFFFFFFFFFFF0
00007FFFFFFFFFFFFFFFFFFFF8
0001FFFFFFFFFFFFFFFFFFFFF8
0003FFFFFFFFFFFFFFFFFFFFFC
0007FFFFFFFFFFFFFFFFFFFFFC
000FFFFFFFFFFFFFFFFFFFFFFC
001FFFFFFFFFFFFFFFFFFFFFFC
003FFFFFFFFFFFFFFFFFFFFFFC
003FFFFFFFFFFFFFFFFFFFFFFC
007FFFFFFFFFFFFFFFFFFFFFFC
00FFFFFFFFFFFFFFFFFFFFFFFC
00FFFFFFFFFFFFFFFFFFFFFFF8
01FFFFFFFFFFFFFFFFFFFFFFF8
03FFFFFFFFFFFFFFFFFFFFFFF0
03FFFFFFFFFFFFFFFFFFFFFFE0
07FFFFFFFFFFFFFFFFFFFFFFC0
07FFFFFFFFFFFFFFFFFFFFFF00
07FFFFFFF80000000000000000
0FFFFFFF000000000000000000
0FFFFFFC000000000000000000
1FFFFFF8000000000000000000
1FFFFFF0000000000000000000
1FFFFFE0000000000000000000
1FFFFFC0000000000000000000
3FFFFF80000000000000000000
3FFFFF80000000000000000000
3FFFFF00000000000000000000
3FFFFF00000000000000000000
3FFFFE00000000000000000000
7FFFFE00000000000000000000
7FFFFC00000000000000000000
7FFFFC00000000000000000000
7FFFFC00000000000000000000
7FFFFC00000000000000000000
7FFFFC00000000000000000000
7FFFFC00000000000000000000
7FFFFC00000000000000000000
FFFFFC00000000000000000000
FFFFF800000000000000000000
FFFFF8000FFFFFFFFFFFFFFE00
FFFFF8003FFFFFFFFFFFFFFF80
FFFFF8007FFFFFFFFFFFFFFFE0
FFFFF801FFFFFFFFFFFFFFFFF0
FFFFF801FFFFFFFFFFFFFFFFF8
FFFFF803FFFFFFFFFFFFFFFFF8
FFFFF807FFFFFFFFFFFFFFFFFC
FFFFF807FFFFFFFFFFFFFFFFFC
FFFFF807FFFFFFFFFFFFFFFFFC
FFFFF807FFFFFFFFFFFFFFFFFC
FFFFF807FFFFFFFFFFFFFFFFFE
FFFFF807FFFFFFFFFFFFFFFFFC
FFFFF807FFFFFFFFFFFFFFFFFC
FFFFF807FFFFFFFFFFFFFFFFFC
FFFFF807FFFFFFFFFFFFFFFFFC
FFFFF803FFFFFFFFFFFFFFFFF8
FFFFF801FFFFFFFFFFFFFFFFF8
FFFFF801FFFFFFFFFFFFFFFFF0
FFFFF800FFFFFFFFFFFFFFFFE0
FFFFF8003FFFFFFFFFFFFFFFC0
FFFFF8000FFFFFFFFFFFFFFE00
FFFFF800000000000000000000
FFFFF800000000000000000000
FFFFF800000000000000000000
FFFFF800000000000000000000
FFFFF800000000000000000000
FFFFF800000000000000000000
FFFFF800000000000000000000
FFFFF800000000000000000000
FFFFF800000000000000000000
FFFFF800000000000000000000
FFFFF800000000000000000000
FFFFF800000000000000000000
FFFFF800000000000000000000
FFFFF800000000000000000000
FFFFF800000000000000000000
FFFFF800000000000000000000
FFFFF800000000000000000000
FFFFF800000000000000000000
FFFFF800000000000000000000
FFFFF800000000000000000000
FFFFF800000000000000000000
FFFFF800000000000000000000
7FFFF800000000000000000000
7FFFF800000000000000000000
7FFFF000000000000000000000
3FFFF000000000000000000000
3FFFE000000000000000000000
1FFFC000000000000000000000
07FF8000000000000000000000
03FF0000000000000000000000
00200000000000000000000000
ENDCHAR
STARTCHAR 0047
ENCODING 71
SWIDTH 787 0
DWIDTH 126 0
BBX 108 93 8 0
BITMAP
00000001FFFFFFFFFFFFFFFF8000
0000007FFFFFFFFFFFFFFFFFF800
000003FFFFFFFFFFFFFFFFFFFE00
00000FFFFFFFFFFFFFFFFFFFFF00
00003FFFFFFFFFFFFFFFFFFFFF80
00007FFFFFFFFFFFFFFFFFFFFFC0
0000FFFFFFFFFFFFFFFFFFFFFFC0
0003FFFFFFFFFFFFFFFFFFFFFFC0
0007FFFFFFFFFFFFFFFFFFFFFFE0
0007FFFFFFFFFFFFFFFFFFFFFFE0
000FFFFFFFFFFFFFFFFFFFFFFFE0
001FFFFFFFFFFFFFFFFFFFFFFFE0
003FFFFFFFFFFFFFFFFFFFFFFFE0
007FFFFFFFFFFFFFFFFFFFFFFFE0
007FFFFFFFFFFFFFFFFFFFFFFFE0
00FFFFFFFFFFFFFFFFFFFFFFFFC0
01FFFFFFFFFFFFFFFFFFFFFFFFC0
01FFFFFFFFFFFFFFFFFFFFFFFF80
03FFFFFFFFFFFFFFFFFFFFFFFF00
03FFFFFFFFFFFFFFFFFFFFFFFE00
07FFFFFFFFFFFFFFFFFFFFFFF800
07FFFFFFF0000000000000000000
0FFFFFFE00000000000000000000
0FFFFFF800000000000000000000
0FFFFFF000000000000000000000
1FFFFFE000000000000000000000
1FFFFFC000000000000000000000
1FFFFF8000000000000000000000
3FFFFF0000000000000000000000
3FFFFF0000000000000000000000
3FFFFE0000000000000000000000
3FFFFE0000000000000000000000
7FFFFC0000000000000000000000
7FFFFC0000000000000000000000
7FFFF80000000000000000000000
7FFFF800000FFFFFFFFFFFFF8000
7FFFF80001FFFFFFFFFFFFFFFC00
7FFFF00003FFFFFFFFFFFFFFFF00
FFFFF0000FFFFFFFFFFFFFFFFF80
FFFFF0001FFFFFFFFFFFFFFFFFC0
FFFFF0001FFFFFFFFFFFFFFFFFC0
FFFFE0003FFFFFFFFFFFFFFFFFE0
FFFFE0003FFFFFFFFFFFFFFFFFE0
FFFFE0003FFFFFFFFFFFFFFFFFE0
FFFFE0007FFFFFFFFFFFFFFFFFF0
FFFFE0007FFFFFFFFFFFFFFFFFF0
FFFFE0007FFFFFFFFFFFFFFFFFF0
FFFFE0007FFFFFFFFFFFFFFFFFF0
FFFFE0003FFFFFFFFFFFFFFFFFF0
FFFFE0003FFFFFFFFFFFFFFFFFF0
FFFFE0003FFFFFFFFFFFFFFFFFF0
FFFFE0001FFFFFFFFFFFFFFFFFF0
FFFFE0000FFFFFFFFFFFFFFFFFF0
FFFFF00007FFFFFFFFFFFFFFFFF0
FFFFF00003FFFFFFFFFFFFFFFFF0
7FFFF00001FFFFFFFFFFFFFFFFF0
7FFFF0000000000000000FFFFFF0
7FFFF80000000000000003FFFFF0
7FFFF80000000000000001FFFFF0
7FFFF80000000000000001FFFFF0
7FFFFC0000000000000001FFFFF0
3FFFFC0000000000000001FFFFF0
3FFFFE0000000000000001FFFFF0
3FFFFF0000000000000001FFFFF0
3FFFFF0000000000000001FFFFF0
1FFFFF8000000000000001FFFFF0
1FFFFFC000000000000001FFFFF0
1FFFFFE000000000000001FFFFF0
0FFFFFF000000000000001FFFFF0
0FFFFFF800000000000001FFFFF0
0FFFFFFE00000000000003FFFFF0
07FFFFFFE0000000000007FFFFF0
07FFFFFFFFFFFFFFFFFFFFFFFFF0
03FFFFFFFFFFFFFFFFFFFFFFFFF0
03FFFFFFFFFFFFFFFFFFFFFFFFF0
01FFFFFFFFFFFFFFFFFFFFFFFFF0
01FFFFFFFFFFFFFFFFFFFFFFFFF0
00FFFFFFFFFFFFFFFFFFFFFFFFF0
00FFFFFFFFFFFFFFFFFFFFFFFFF0
007FFFFFFFFFFFFFFFFFFFFFFFF0
003FFFFFFFFFFFFFFFFFFFFFFFF0
001FFFFFFFFFFFFFFFFFFFFFFFF0
001FFFFFFFFFFFFFFFFFFFFFFFF0
000FFFFFFFFFFFFFFFFFFFFFFFF0
0007FFFFFFFFFFFFFFFFFFFFFFF0
0003FFFFFFFFFFFFFFFFFFFFFFE0
0001FFFFFFFFFFFFFFFFFFFFFFE0
0000FFFFFFFFFFFFFFFFFFFFFFC0
00003FFFFFFFFFFFFFFFFFFFFFC0
00001FFFFFFFFFFFFFFFFFFFFF80
000007FFFFFFFFFFFFFFFFFFFF00
000000FFFFFFFFFFFFFFFFFFFC00
00000007FFFFFFFFFFFFFFFFE000
ENDCHAR
STARTCHAR 0048
ENCODING 72
SWIDTH 700 0
DWIDTH 112 0
BBX 93 97 10 -2
BITMAP
01FC0000000000000001F800
07FF0000000000000007FF00
0FFF800000000000001FFF80
1FFFC00000000000003FFFC0
3FFFE00000000000003FFFE0
7FFFF00000000000007FFFF0
7FFFF0000000000000FFFFF0
FFFFF0000000000000FFFFF0
FFFFF8000000000000FFFFF8
FFFFF8000000000000FFFFF8
FFFFF8000000000000FFFFF8
FFFFF8000000000000FFFFF8
FFFFF8000000000000FFFFF8
FFFFF8000000000000FFFFF8
FFFFF8000000000000FFFFF8
FFFFF8000000000000FFFFF8
FFFFF8000000000000FFFFF8
FFFFF8000000000000FFFFF8
FFFFF8000000000000FFFFF8
FFFFF8000000000000FFFFF8
FFFFF8000000000000FFFFF8
FFFFF8000000000000FFFFF8
FFFFF8000000000000FFFFF8
FFFFF8000000000000FFFFF8
FFFFF8000000000000FFFFF8
FFFFF8000000000000FFFFF8
FFFFF8000000000000FFFFF8
FFFFF8000000000000FFFFF8
FFFFF8000000000000FFFFF8
FFFFF8000000000000FFFFF8
FFFFF8000000000000FFFFF8
FFFFF8000000000000FFFFF8
FFFFF8000000000000FFFFF8
FFFFF8000000000000FFFFF8
FFFFF8000000000000FFFFF8
FFFFF8000000000000FFFFF8
FFFFFFFFFFFFFFFFFFFFFFF8
FFFFFFFFFFFFFFFFFFFFFFF8
FFFFFFFFFFFFFFFFFFFFFFF8
FFFFFFFFFFFFFFFFFFFFFFF8
FFFFFFFFFFFFFFFFFFFFFFF8
FFFFFFFFFFFFFFFFFFFFFFF8
FFFFFFFFFFFFFFFFFFFFFFF8
FFFFFFFFFFFFFFFFFFFFFFF8
FFFFFFFFFFFFFFFFFFFFFFF8
FFFFFFFFFFFFFFFFFFFFFFF8
FFFFFFFFFFFFFFFFFFFFFFF8
FFFFFFFFFFFFFFFFFFFFFFF8
FFFFFFFFFFFFFFFFFFFFFFF8
FFFFFFFFFFFFFFFFFFFFFFF8
FFFFFFFFFFFFFFFFFFFFFFF8
FFFFFFFFFFFFFFFFFFFFFFF8
FFFFFFFFFFFFFFFFFFFFFFF8
FFFFFFFFFFFFFFFFFFFFFFF8
FFFFFFFFFFFFFFFFFFFFFFF8
FFFFFFFFFFFFFFFFFFFFFFF8
FFFFFFFFFFFFFFFFFFFFFFF8
FFFFF8000000000000FFFFF8
FFFFF8000000000000FFFFF8
FFFFF8000000000000FFFFF8
FFFFF8000000000000FFFFF8
FFFFF8000000000000FFFFF8
FFFFF8000000000000FFFFF8
FFFFF8000000000000FFFFF8
FFFFF8000000000000FFFFF8
FFFFF8000000000000FFFFF8
FFFFF8000000000000FFFFF8
FFFFF8000000000000FFFFF8
FFFFF8000000000000FFFFF8
FFFFF8000000000000FFFFF8
FFFFF8000000000000FFFFF8
FFFFF8000000000000FFFFF8
FFFFF8000000000000FFFFF8
FFFFF8000000000000FFFFF8
FFFFF8000000000000FFFFF8
FFFFF8000000000000FFFFF8
FFFFF8000000000000FFFFF8
FFFFF8000000000000FFFFF8
FFFFF8000000000000FFFFF8
FFFFF8000000000000FFFFF8
FFFFF8000000000000FFFFF8
FFFFF8000000000000FFFFF8
FFFFF8000000000000FFFFF8
FFFFF8000000000000FFFFF8
FFFFF8000000000000FFFFF8
FFFFF8000000000000FFFFF8
FFFFF8000000000000FFFFF8
FFFFF8000000000000FFFFF8
FFFFF8000000000000FFFFF8
FFFFF0000000000000FFFFF0
7FFFF0000000000000FFFFF0
7FFFF00000000000007FFFF0
3FFFE00000000000003FFFE0
1FFFC00000000000003FFFC0
0FFF800000000000001FFF80
07FF0000000000000007FF00
00F80000000000000000F800
ENDCHAR
STARTCHAR 0049
ENCODING 73
SWIDTH 718 0
DWIDTH 115 0
BBX 101 93 7 0
BITMAP
003FFFFFFFFFFFFFFFFFFFE000
07FFFFFFFFFFFFFFFFFFFFFF00
0FFFFFFFFFFFFFFFFFFFFFFF80
1FFFFFFFFFFFFFFFFFFFFFFFC0
3FFFFFFFFFFFFFFFFFFFFFFFE0
7FFFFFFFFFFFFFFFFFFFFFFFF0
FFFFFFFFFFFFFFFFFFFFFFFFF8
FFFFFFFFFFFFFFFFFFFFFFFFF8
FFFFFFFFFFFFFFFFFFFFFFFFF8
FFFFFFFFFFFFFFFFFFFFFFFFF8
FFFFFFFFFFFFFFFFFFFFFFFFF8
FFFFFFFFFFFFFFFFFFFFFFFFF8
FFFFFFFFFFFFFFFFFFFFFFFFF8
FFFFFFFFFFFFFFFFFFFFFFFFF8
FFFFFFFFFFFFFFFFFFFFFFFFF8
7FFFFFFFFFFFFFFFFFFFFFFFF0
7FFFFFFFFFFFFFFFFFFFFFFFF0
3FFFFFFFFFFFFFFFFFFFFFFFE0
1FFFFFFFFFFFFFFFFFFFFFFFC0
0FFFFFFFFFFFFFFFFFFFFFFF80
03FFFFFFFFFFFFFFFFFFFFFE00
0000000000FFFFF80000000000
0000000000FFFFF80000000000
0000000000FFFFF80000000000
0000000000FFFFF80000000000
0000000000FFFFF80000000000
0000000000FFFFF80000000000
0000000000FFFFF80000000000
0000000000FFFFF80000000000
0000000000FFFFF80000000000
0000000000FFFFF80000000000
0000000000FFFFF80000000000
0000000000FFFFF80000000000
0000000000FFFFF80000000000
0000000000FFFFF80000000000
0000000000FFFFF80000000000
0000000000FFFFF80000000000
0000000000FFFFF80000000000
0000000000FFFFF80000000000
0000000000FFFFF80000000000
0000000000FFFFF80000000000
0000000000FFFFF80000000000
0000000000FFFFF80000000000
0000000000FFFFF80000000000
0000000000FFFFF80000000000
0000000000FFFFF80000000000
0000000000FFFFF80000000000
0000000000FFFFF80000000000
0000000000FFFFF80000000000
0000000000FFFFF80000000000
0000000000FFFFF80000000000
0000000000FFFFF80000000000
0000000000FFFFF80000000000
0000000000FFFFF80000000000
0000000000FFFFF80000000000
0000000000FFFFF80000000000
0000000000FFFFF80000000000
0000000000FFFFF80000000000
0000000000FFFFF80000000000
0000000000FFFFF80000000000
0000000000FFFFF80000000000
0000000000FFFFF80000000000
0000000000FFFFF80000000000
0000000000FFFFF80000000000
0000000000FFFFF80000000000
0000000000FFFFF80000000000
0000000000FFFFF80000000000
0000000000FFFFF80000000000
0000000000FFFFF80000000000
0000000000FFFFF80000000000
0000000000FFFFF80000000000
0000000000FFFFF80000000000
03FFFFFFFFFFFFFFFFFFFFFE00
0FFFFFFFFFFFFFFFFFFFFFFF80
1FFFFFFFFFFFFFFFFFFFFFFFC0
3FFFFFFFFFFFFFFFFFFFFFFFE0
7FFFFFFFFFFFFFFFFFFFFFFFF0
7FFFFFFFFFFFFFFFFFFFFFFFF0
FFFFFFFFFFFFFFFFFFFFFFFFF8
FFFFFFFFFFFFFFFFFFFFFFFFF8
FFFFFFFFFFFFFFFFFFFFFFFFF8
FFFFFFFFFFFFFFFFFFFFFFFFF8
FFFFFFFFFFFFFFFFFFFFFFFFF8
FFFFFFFFFFFFFFFFFFFFFFFFF8
FFFFFFFFFFFFFFFFFFFFFFFFF8
FFFFFFFFFFFFFFFFFFFFFFFFF8
FFFFFFFFFFFFFFFFFFFFFFFFF8
7FFFFFFFFFFFFFFFFFFFFFFFF0
3FFFFFFFFFFFFFFFFFFFFFFFE0
1FFFFFFFFFFFFFFFFFFFFFFFE0
0FFFFFFFFFFFFFFFFFFFFFFF80
07FFFFFFFFFFFFFFFFFFFFFF00
00FFFFFFFFFFFFFFFFFFFFF800
ENDCHAR
STARTCHAR 004A
ENCODING 74
SWIDTH 737 0
DWIDTH 118 0
BBX 99 99 8 -4
BITMAP
0000000000000000000000C000
000000000000000000000FFC00
000000000000000000003FFE00
000000000000000000007FFF00
00000000000000000000FFFF80
00000000000000000000FFFFC0
00000000000000000001FFFFC0
00000000000000000001FFFFE0
00000000000000000003FFFFE0
00000000000000000003FFFFE0
00000000000000000003FFFFE0
00000000000000000003FFFFE0
00000000000000000003FFFFE0
00000000000000000003FFFFE0
00000000000000000003FFFFE0
00000000000000000003FFFFE0
00000000000000000003FFFFE0
00000000000000000003FFFFE0
00000000000000000003FFFFE0
00000000000000000003FFFFE0
00000000000000000003FFFFE0
00000000000000000003FFFFE0
00000000000000000003FFFFE0
00000000000000000003FFFFE0
00000000000000000003FFFFE0
00000000000000000003FFFFE0
00000000000000000003FFFFE0
00000000000000000003FFFFE0
00000000000000000003FFFFE0
00000000000000000003FFFFE0
00000000000000000003FFFFE0
00000000000000000003FFFFE0
00000000000000000003FFFFE0
00000000000000000003FFFFE0
00000000000000000003FFFFE0
00000000000000000003FFFFE0
00000000000000000003FFFFE0
00000000000000000003FFFFE0
00000000000000000003FFFFE0
00000000000000000003FFFFE0
00000000000000000003FFFFE0
00000000000000000003FFFFE0
00000000000000000003FFFFE0
00000000000000000003FFFFE0
00000000000000000003FFFFE0
00000000000000000003FFFFE0
00000000000000000003FFFFE0
00000000000000000003FFFFE0
01FC0000000000000003FFFFE0
07FF0000000000000003FFFFE0
1FFF8000000000000003FFFFE0
3FFFC000000000000003FFFFE0
7FFFE000000000000003FFFFE0
7FFFF000000000000003FFFFE0
FFFFF000000000000003FFFFE0
FFFFF000000000000003FFFFE0
FFFFF800000000000003FFFFE0
FFFFF800000000000003FFFFE0
FFFFF800000000000003FFFFE0
FFFFF800000000000003FFFFE0
FFFFF800000000000003FFFFE0
FFFFF800000000000003FFFFE0
FFFFF800000000000003FFFFE0
FFFFF800000000000003FFFFE0
FFFFF800000000000003FFFFE0
FFFFF800000000000003FFFFE0
FFFFFC00000000000007FFFFE0
FFFFFC00000000000007FFFFE0
FFFFFE0000000000000FFFFFE0
FFFFFF0000000000001FFFFFE0
FFFFFF8000000000003FFFFFE0
FFFFFFC000000000007FFFFFE0
7FFFFFE00000000000FFFFFFC0
7FFFFFF80000000003FFFFFFC0
7FFFFFFC0000000007FFFFFFC0
3FFFFFFF000000003FFFFFFF80
3FFFFFFFE0000000FFFFFFFF80
1FFFFFFFFC000007FFFFFFFF00
1FFFFFFFFFE000FFFFFFFFFF00
0FFFFFFFFFFFFFFFFFFFFFFE00
07FFFFFFFFFFFFFFFFFFFFFC00
03FFFFFFFFFFFFFFFFFFFFF800
01FFFFFFFFFFFFFFFFFFFFF000
00FFFFFFFFFFFFFFFFFFFFF000
007FFFFFFFFFFFFFFFFFFFC000
003FFFFFFFFFFFFFFFFFFF8000
001FFFFFFFFFFFFFFFFFFF0000
000FFFFFFFFFFFFFFFFFFE0000
0007FFFFFFFFFFFFFFFFFC0000
0001FFFFFFFFFFFFFFFFF00000
00007FFFFFFFFFFFFFFFC00000
00003FFFFFFFFFFFFFFF800000
00000FFFFFFFFFFFFFFE000000
000001FFFFFFFFFFFFF0000000
0000007FFFFFFFFFFFC0000000
0000000FFFFFFFFFFE00000000
00000001FFFFFFFFF000000000
000000001FFFFFFF0000000000
00000000007FFFC00000000000
ENDCHAR
STARTCHAR 004B
ENCODING 75
SWIDTH 775 0
DWIDTH 124 0
BBX 108 97 10 -2
BITMAP
01FC000000000000000000000000
07FF000000000000000000038000
0FFF8000000000000000001FF000
1FFFC000000000000000007FFC00
3FFFE00000000000000003FFFE00
7FFFF0000000000000000FFFFF00
7FFFF0000000000000007FFFFF00
FFFFF000000000000001FFFFFF80
FFFFF800000000000007FFFFFF80
FFFFF80000000000003FFFFFFF80
FFFFF8000000000000FFFFFFFFC0
FFFFF8000000000003FFFFFFFFC0
FFFFF800000000001FFFFFFFFFC0
FFFFF800000000007FFFFFFFFFC0
FFFFF80000000001FFFFFFFFFF80
FFFFF8000000000FFFFFFFFFFF80
FFFFF8000000003FFFFFFFFFFF80
FFFFF800000000FFFFFFFFFFFF00
FFFFF800000003FFFFFFFFFFFF00
FFFFF80000000FFFFFFFFFFFFE00
FFFFF80000003FFFFFFFFFFFFC00
FFFFF8000000FFFFFFFFFFFFF800
FFFFF8000003FFFFFFFFFFFFE000
FFFFF800000FFFFFFFFFFFFF8000
FFFFF800003FFFFFFFFFFFFC0000
FFFFF80000FFFFFFFFFFFFE00000
FFFFF80001FFFFFFFFFFFF800000
FFFFF80007FFFFFFFFFFFC000000
FFFFF8000FFFFFFFFFFFF0000000
FFFFF8001FFFFFFFFFFF80000000
FFFFF8003FFFFFFFFFFC00000000
FFFFF8007FFFFFFFFFF000000000
FFFFF800FFFFFFFFFF8000000000
FFFFF801FFFFFFFFFE0000000000
FFFFF803FFFFFFFFF00000000000
FFFFF803FFFFFFFFC00000000000
FFFFF807FFFFFFFE000000000000
FFFFF807FFFFFFF8000000000000
FFFFF80FFFFFFFE0000000000000
FFFFF80FFFFFFF80000000000000
FFFFF80FFFFFFF00000000000000
FFFFF81FFFFFFC00000000000000
FFFFF81FFFFFF800000000000000
FFFFF81FFFFFE000000000000000
FFFFF81FFFFFC000000000000000
FFFFF81FFFFFC000000000000000
FFFFF81FFFFF8000000000000000
FFFFF81FFFFF8000000000000000
FFFFF81FFFFF8000000000000000
FFFFF81FFFFF8000000000000000
FFFFF81FFFFFC000000000000000
FFFFF81FFFFFC000000000000000
FFFFF81FFFFFE000000000000000
FFFFF81FFFFFF000000000000000
FFFFF81FFFFFFC00000000000000
FFFFF80FFFFFFE00000000000000
FFFFF80FFFFFFF80000000000000
FFFFF80FFFFFFFE0000000000000
FFFFF807FFFFFFF8000000000000
FFFFF807FFFFFFFE000000000000
FFFFF803FFFFFFFF800000000000
FFFFF803FFFFFFFFE00000000000
FFFFF801FFFFFFFFFC0000000000
FFFFF800FFFFFFFFFF0000000000
FFFFF800FFFFFFFFFFE000000000
FFFFF8007FFFFFFFFFFC00000000
FFFFF8003FFFFFFFFFFF00000000
FFFFF8000FFFFFFFFFFFE0000000
FFFFF80007FFFFFFFFFFFC000000
FFFFF80003FFFFFFFFFFFF800000
FFFFF80000FFFFFFFFFFFFE00000
FFFFF800003FFFFFFFFFFFFC0000
FFFFF800001FFFFFFFFFFFFF8000
FFFFF8000007FFFFFFFFFFFFF000
FFFFF8000001FFFFFFFFFFFFFC00
FFFFF80000007FFFFFFFFFFFFE00
FFFFF80000001FFFFFFFFFFFFF80
FFFFF800000007FFFFFFFFFFFFC0
FFFFF800000001FFFFFFFFFFFFC0
FFFFF8000000007FFFFFFFFFFFE0
FFFFF8000000000FFFFFFFFFFFE0
FFFFF80000000003FFFFFFFFFFF0
FFFFF80000000000FFFFFFFFFFF0
FFFFF800000000001FFFFFFFFFF0
FFFFF8000000000007FFFFFFFFF0
FFFFF8000000000000FFFFFFFFF0
FFFFF80000000000003FFFFFFFF0
FFFFF800000000000007FFFFFFF0
FFFFF800000000000001FFFFFFF0
FFFFF0000000000000003FFFFFE0
7FFFF0000000000000000FFFFFE0
7FFFF00000000000000003FFFFC0
3FFFE000000000000000007FFF80
1FFFC000000000000000001FFF00
0FFF80000000000000000003FE00
07FF000000000000000000002000
00F8000000000000000000000000
ENDCHAR
STARTCHAR 004C
ENCODING 76
SWIDTH 700 0
DWIDTH 112 0
BBX 97 95 10 0
BITMAP
01FC0000000000000000000000
07FF0000000000000000000000
0FFF8000000000000000000000
1FFFC000000000000000000000
3FFFE000000000000000000000
7FFFF000000000000000000000
7FFFF000000000000000000000
FFFFF800000000000000000000
FFFFF800000000000000000000
FFFFF800000000000000000000
FFFFF800000000000000000000
FFFFF800000000000000000000
FFFFF800000000000000000000
FFFFF800000000000000000000
FFFFF800000000000000000000
FFFFF800000000000000000000
FFFFF800000000000000000000
FFFFF800000000000000000000
FFFFF800000000000000000000
FFFFF800000000000000000000
FFFFF800000000000000000000
FFFFF800000000000000000000
FFFFF800000000000000000000
FFFFF800000000000000000000
FFFFF800000000000000000000
FFFFF800000000000000000000
FFFFF800000000000000000000
FFFFF800000000000000000000
FFFFF800000000000000000000
FFFFF800000000000000000000
FFFFF800000000000000000000
FFFFF800000000000000000000
FFFFF800000000000000000000
FFFFF800000000000000000000
FFFFF800000000000000000000
FFFFF800000000000000000000
FFFFF800000000000000000000
FFFFF800000000000000000000
FFFFF800000000000000000000
FFFFF800000000000000000000
FFFFF800000000000000000000
FFFFF800000000000000000000
FFFFF800000000000000000000
FFFFF800000000000000000000
FFFFF800000000000000000000
FFFFF800000000000000000000
FFFFF800000000000000000000
FFFFF800000000000000000000
FFFFF800000000000000000000
FFFFF800000000000000000000
FFFFF800000000000000000000
FFFFF800000000000000000000
FFFFF800000000000000000000
FFFFF800000000000000000000
FFFFF800000000000000000000
FFFFF800000000000000000000
FFFFF800000000000000000000
FFFFFC00000000000000000000
7FFFFC00000000000000000000
7FFFFC00000000000000000000
7FFFFC00000000000000000000
7FFFFC00000000000000000000
7FFFFE00000000000000000000
7FFFFE00000000000000000000
3FFFFF00000000000000000000
3FFFFF00000000000000000000
3FFFFF80000000000000000000
3FFFFF80000000000000000000
3FFFFFC0000000000000000000
1FFFFFE0000000000000000000
1FFFFFF0000000000000000000
1FFFFFFC000000000000000000
0FFFFFFE000000000000000000
0FFFFFFFE00000000000000000
07FFFFFFFFFFFFFFFFFFFFC000
07FFFFFFFFFFFFFFFFFFFFF000
07FFFFFFFFFFFFFFFFFFFFF800
03FFFFFFFFFFFFFFFFFFFFFC00
03FFFFFFFFFFFFFFFFFFFFFE00
01FFFFFFFFFFFFFFFFFFFFFF00
00FFFFFFFFFFFFFFFFFFFFFF00
00FFFFFFFFFFFFFFFFFFFFFF00
007FFFFFFFFFFFFFFFFFFFFF80
003FFFFFFFFFFFFFFFFFFFFF80
001FFFFFFFFFFFFFFFFFFFFF80
000FFFFFFFFFFFFFFFFFFFFF80
0007FFFFFFFFFFFFFFFFFFFF80
0003FFFFFFFFFFFFFFFFFFFF00
0001FFFFFFFFFFFFFFFFFFFF00
0000FFFFFFFFFFFFFFFFFFFE00
00007FFFFFFFFFFFFFFFFFFE00
00001FFFFFFFFFFFFFFFFFFC00
000007FFFFFFFFFFFFFFFFF800
000000FFFFFFFFFFFFFFFFE000
00000007FFFFFFFFFFFFFF0000
ENDCHAR
STARTCHAR 004D
ENCODING 77
SWIDTH 812 0
DWIDTH 130 0
BBX 111 99 10 -2
BITMAP
0000000FFE00000000FFE0000000
000000FFFFE000000FFFFE000000
000007FFFFF800003FFFFFC00000
00001FFFFFFE0001FFFFFFF00000
00007FFFFFFF8003FFFFFFFC0000
0001FFFFFFFFE00FFFFFFFFF0000
0003FFFFFFFFF83FFFFFFFFF8000
000FFFFFFFFFFC7FFFFFFFFFC000
001FFFFFFFFFFEFFFFFFFFFFF000
003FFFFFFFFFFFFFFFFFFFFFF800
007FFFFFFFFFFFFFFFFFFFFFFC00
00FFFFFFFFFFFFFFFFFFFFFFFE00
01FFFFFFFFFFFFFFFFFFFFFFFE00
03FFFFFFFFFFFFFFFFFFFFFFFF00
03FFFFFFFFFFFFFFFFFFFFFFFF80
07FFFFFFFFFFFFFFFFFFFFFFFFC0
0FFFFFFFFFFFFFFFFFFFFFFFFFC0
0FFFFFFFFFFFFFFFFFFFFFFFFFE0
1FFFFFFFFFFFFFFFFFFFFFFFFFF0
1FFFFFFFFFFFFFFFFFFFFFFFFFF0
3FFFFFFC0FFFFFFFFFE07FFFFFF0
3FFFFFF003FFFFFFFF001FFFFFF8
3FFFFFC000FFFFFFFE000FFFFFF8
7FFFFF80007FFFFFFC0003FFFFF8
7FFFFF00003FFFFFF80001FFFFFC
7FFFFE00003FFFFFF00001FFFFFC
7FFFFE00001FFFFFF00000FFFFFC
FFFFFC00000FFFFFE00000FFFFFC
FFFFFC00000FFFFFE000007FFFFC
FFFFFC00000FFFFFC000007FFFFE
FFFFF800000FFFFFC000007FFFFE
FFFFF8000007FFFFC000007FFFFE
FFFFF8000007FFFFC000003FFFFE
FFFFF8000007FFFFC000003FFFFE
FFFFF8000007FFFFC000003FFFFE
FFFFF8000007FFFFC000003FFFFE
FFFFF8000007FFFFC000003FFFFE
FFFFF8000007FFFFC000003FFFFE
FFFFF8000007FFFFC000003FFFFE
FFFFF8000007FFFFC000003FFFFE
FFFFF8000007FFFFC000003FFFFE
FFFFF8000007FFFFC000003FFFFE
FFFFF8000007FFFFC000003FFFFE
FFFFF8000007FFFFC000003FFFFE
FFFFF8000007FFFFC000003FFFFE
FFFFF8000007FFFFC000003FFFFE
FFFFF8000007FFFFC000003FFFFE
FFFFF8000007FFFFC000003FFFFE
FFFFF8000007FFFFC000003FFFFE
FFFFF8000007FFFFC000003FFFFE
FFFFF8000007FFFFC000003FFFFE
FFFFF8000007FFFFC000003FFFFE
FFFFF8000007FFFFC000003FFFFE
FFFFF8000007FFFFC000003FFFFE
FFFFF8000007FFFFC000003FFFFE
FFFFF8000007FFFFC000003FFFFE
FFFFF8000007FFFFC000003FFFFE
FFFFF8000007FFFFC000003FFFFE
FFFFF8000007FFFFC000003FFFFE
FFFFF8000007FFFFC000003FFFFE
FFFFF8000007FFFFC000003FFFFE
FFFFF8000007FFFFC000003FFFFE
FFFFF8000007FFFFC000003FFFFE
FFFFF8000007FFFFC000003FFFFE
FFFFF8000007FFFFC000003FFFFE
FFFFF8000007FFFFC000003FFFFE
FFFFF8000007FFFFC000003FFFFE
FFFFF8000007FFFFC000003FFFFE
FFFFF8000007FFFFC000003FFFFE
FFFFF8000007FFFFC000003FFFFE
FFFFF8000007FFFFC000003FFFFE
FFFFF8000007FFFFC000003FFFFE
FFFFF8000007FFFFC000003FFFFE
FFFFF8000007FFFFC000003FFFFE
FFFFF8000007FFFFC000003FFFFE
FFFFF8000007FFFFC000003FFFFE
FFFFF8000007FFFFC000003FFFFE
FFFFF8000007FFFFC000003FFFFE
FFFFF8000007FFFFC000003FFFFE
FFFFF8000007FFFFC000003FFFFE
FFFFF8000007FFFFC000003FFFFE
FFFFF8000007FFFFC000003FFFFE
FFFFF8000007FFFFC000003FFFFE
FFFFF8000007FFFFC000003FFFFE
FFFFF8000007FFFFC000003FFFFE
FFFFF8000007FFFFC000003FFFFE
FFFFF8000007FFFFC000003FFFFE
FFFFF8000007FFFFC000003FFFFE
FFFFF8000007FFFFC000003FFFFE
FFFFF8000007FFFFC000003FFFFC
FFFFF8000007FFFF8000003FFFFC
FFFFF0000007FFFF8000003FFFFC
7FFFF0000003FFFF8000003FFFFC
7FFFF0000003FFFF0000001FFFF8
3FFFE0000001FFFF0000000FFFF8
1FFFC0000000FFFE00000007FFF0
0FFF800000007FFC00000003FFE0
03FE000000003FF000000001FF80
0020000000000300000000001800
ENDCHAR
STARTCHAR 004E
ENCODING 78
SWIDTH 743 0
DWIDTH 119 0
BBX 100 99 10 -2
BITMAP
00000000007FFFC00000000000
000000001FFFFFFF0000000000
00000001FFFFFFFFF000000000
0000000FFFFFFFFFFE00000000
0000007FFFFFFFFFFFC0000000
000001FFFFFFFFFFFFF0000000
000007FFFFFFFFFFFFFE000000
00001FFFFFFFFFFFFFFF800000
00007FFFFFFFFFFFFFFFC00000
0001FFFFFFFFFFFFFFFFF00000
0003FFFFFFFFFFFFFFFFFC0000
000FFFFFFFFFFFFFFFFFFE0000
001FFFFFFFFFFFFFFFFFFF0000
003FFFFFFFFFFFFFFFFFFF8000
007FFFFFFFFFFFFFFFFFFFE000
00FFFFFFFFFFFFFFFFFFFFF000
01FFFFFFFFFFFFFFFFFFFFF800
03FFFFFFFFFFFFFFFFFFFFFC00
07FFFFFFFFFFFFFFFFFFFFFC00
0FFFFFFFFFFFFFFFFFFFFFFE00
0FFFFFFFFFE000FFFFFFFFFF00
1FFFFFFFFC000007FFFFFFFF00
3FFFFFFFE0000000FFFFFFFF80
3FFFFFFF800000001FFFFFFF80
3FFFFFFE0000000007FFFFFFC0
7FFFFFF80000000003FFFFFFC0
7FFFFFE00000000000FFFFFFE0
7FFFFFC000000000007FFFFFE0
FFFFFF8000000000003FFFFFE0
FFFFFF0000000000001FFFFFE0
FFFFFE0000000000000FFFFFE0
FFFFFE00000000000007FFFFE0
FFFFFC00000000000007FFFFF0
FFFFFC00000000000003FFFFF0
FFFFF800000000000003FFFFF0
FFFFF800000000000003FFFFF0
FFFFF800000000000003FFFFF0
FFFFF800000000000003FFFFF0
FFFFF800000000000003FFFFF0
FFFFF800000000000003FFFFF0
FFFFF800000000000003FFFFF0
FFFFF800000000000003FFFFF0
FFFFF800000000000003FFFFF0
FFFFF800000000000003FFFFF0
FFFFF800000000000003FFFFF0
FFFFF800000000000003FFFFF0
FFFFF800000000000003FFFFF0
FFFFF800000000000003FFFFF0
FFFFF800000000000003FFFFF0
FFFFF800000000000003FFFFF0
FFFFF800000000000003FFFFF0
FFFFF800000000000003FFFFF0
FFFFF800000000000003FFFFF0
FFFFF800000000000003FFFFF0
FFFFF800000000000003FFFFF0
FFFFF800000000000003FFFFF0
FFFFF800000000000003FFFFF0
FFFFF800000000000003FFFFF0
FFFFF800000000000003FFFFF0
FFFFF800000000000003FFFFF0
FFFFF800000000000003FFFFF0
FFFFF800000000000003FFFFF0
FFFFF800000000000003FFFFF0
FFFFF800000000000003FFFFF0
FFFFF800000000000003FFFFF0
FFFFF800000000000003FFFFF0
FFFFF800000000000003FFFFF0
FFFFF800000000000003FFFFF0
FFFFF800000000000003FFFFF0
FFFFF800000000000003FFFFF0
FFFFF800000000000003FFFFF0
FFFFF800000000000003FFFFF0
FFFFF800000000000003FFFFF0
FFFFF800000000000003FFFFF0
FFFFF800000000000003FFFFF0
FFFFF800000000000003FFFFF0
FFFFF800000000000003FFFFF0
FFFFF800000000000003FFFFF0
FFFFF800000000000003FFFFF0
FFFFF800000000000003FFFFF0
FFFFF800000000000003FFFFF0
FFFFF800000000000003FFFFF0
FFFFF800000000000003FFFFF0
FFFFF800000000000003FFFFF0
FFFFF800000000000003FFFFF0
FFFFF800000000000003FFFFF0
FFFFF800000000000003FFFFF0
FFFFF800000000000003FFFFF0
FFFFF800000000000003FFFFF0
FFFFF800000000000003FFFFE0
FFFFF800000000000001FFFFE0
FFFFF000000000000001FFFFE0
7FFFF000000000000001FFFFE0
7FFFF000000000000000FFFFC0
3FFFE000000000000000FFFF80
1FFFC0000000000000007FFF80
0FFF80000000000000001FFF00
03FE00000000000000000FFC00
0020000000000000000000C000
ENDCHAR
STARTCHAR 004F
ENCODING 79
SWIDTH 831 0
DWIDTH 133 0
BBX 118 93 8 0
BITMAP
00000000FFFFFFFFFFFFFC00000000
0000007FFFFFFFFFFFFFFFF8000000
000003FFFFFFFFFFFFFFFFFE000000
00000FFFFFFFFFFFFFFFFFFF800000
00001FFFFFFFFFFFFFFFFFFFE00000
00007FFFFFFFFFFFFFFFFFFFF00000
0000FFFFFFFFFFFFFFFFFFFFFC0000
0001FFFFFFFFFFFFFFFFFFFFFE0000
0003FFFFFFFFFFFFFFFFFFFFFF0000
0007FFFFFFFFFFFFFFFFFFFFFF8000
000FFFFFFFFFFFFFFFFFFFFFFFC000
001FFFFFFFFFFFFFFFFFFFFFFFE000
003FFFFFFFFFFFFFFFFFFFFFFFE000
003FFFFFFFFFFFFFFFFFFFFFFFF000
007FFFFFFFFFFFFFFFFFFFFFFFF800
00FFFFFFFFFFFFFFFFFFFFFFFFF800
00FFFFFFFFFFFFFFFFFFFFFFFFFC00
01FFFFFFFFFFFFFFFFFFFFFFFFFE00
03FFFFFFFFFFFFFFFFFFFFFFFFFE00
03FFFFFFFFFFFFFFFFFFFFFFFFFF00
07FFFFFFFFFFFFFFFFFFFFFFFFFF00
07FFFFFFF000000000007FFFFFFF80
07FFFFFE00000000000003FFFFFF80
0FFFFFF800000000000000FFFFFFC0
0FFFFFF0000000000000007FFFFFC0
1FFFFFE0000000000000003FFFFFC0
1FFFFFC0000000000000001FFFFFE0
1FFFFF80000000000000000FFFFFE0
3FFFFF000000000000000007FFFFE0
3FFFFF000000000000000007FFFFF0
3FFFFE000000000000000003FFFFF0
3FFFFE000000000000000003FFFFF0
7FFFFC000000000000000001FFFFF0
7FFFFC000000000000000001FFFFF8
7FFFF8000000000000000000FFFFF8
7FFFF8000000000000000000FFFFF8
7FFFF8000000000000000000FFFFF8
7FFFF00000000000000000007FFFF8
FFFFF00000000000000000007FFFF8
FFFFF00000000000000000007FFFFC
FFFFF00000000000000000007FFFFC
FFFFE00000000000000000003FFFFC
FFFFE00000000000000000003FFFFC
FFFFE00000000000000000003FFFFC
FFFFE00000000000000000003FFFFC
FFFFE00000000000000000003FFFFC
FFFFE00000000000000000003FFFFC
FFFFE00000000000000000003FFFFC
FFFFE00000000000000000003FFFFC
FFFFE00000000000000000003FFFFC
FFFFE00000000000000000003FFFFC
FFFFE00000000000000000003FFFFC
FFFFE00000000000000000007FFFFC
FFFFF00000000000000000007FFFFC
FFFFF00000000000000000007FFFFC
7FFFF00000000000000000007FFFF8
7FFFF00000000000000000007FFFF8
7FFFF8000000000000000000FFFFF8
7FFFF8000000000000000000FFFFF8
7FFFF8000000000000000000FFFFF8
7FFFFC000000000000000001FFFFF8
3FFFFC000000000000000001FFFFF0
3FFFFE000000000000000003FFFFF0
3FFFFE000000000000000003FFFFF0
3FFFFF000000000000000007FFFFF0
1FFFFF80000000000000000FFFFFE0
1FFFFFC0000000000000001FFFFFE0
1FFFFFE0000000000000003FFFFFE0
0FFFFFF0000000000000007FFFFFC0
0FFFFFF800000000000000FFFFFFC0
0FFFFFFE00000000000003FFFFFF80
07FFFFFFC000000000003FFFFFFF80
07FFFFFFFFFFFFFFFFFFFFFFFFFF80
03FFFFFFFFFFFFFFFFFFFFFFFFFF00
03FFFFFFFFFFFFFFFFFFFFFFFFFF00
01FFFFFFFFFFFFFFFFFFFFFFFFFE00
01FFFFFFFFFFFFFFFFFFFFFFFFFC00
00FFFFFFFFFFFFFFFFFFFFFFFFFC00
007FFFFFFFFFFFFFFFFFFFFFFFF800
007FFFFFFFFFFFFFFFFFFFFFFFF000
003FFFFFFFFFFFFFFFFFFFFFFFF000
001FFFFFFFFFFFFFFFFFFFFFFFE000
000FFFFFFFFFFFFFFFFFFFFFFFC000
000FFFFFFFFFFFFFFFFFFFFFFF8000
0007FFFFFFFFFFFFFFFFFFFFFF0000
0003FFFFFFFFFFFFFFFFFFFFFE0000
0001FFFFFFFFFFFFFFFFFFFFFC0000
00007FFFFFFFFFFFFFFFFFFFF80000
00003FFFFFFFFFFFFFFFFFFFE00000
00000FFFFFFFFFFFFFFFFFFFC00000
000003FFFFFFFFFFFFFFFFFF000000
0000007FFFFFFFFFFFFFFFF8000000
00000003FFFFFFFFFFFFFF00000000
ENDCHAR
STARTCHAR 0050
ENCODING 80
SWIDTH 793 0
DWIDTH 127 0
BBX 110 95 10 -2
BITMAP
001FFFFFFFFFFFFFFFF000000000
03FFFFFFFFFFFFFFFFFFF8000000
0FFFFFFFFFFFFFFFFFFFFF800000
1FFFFFFFFFFFFFFFFFFFFFF00000
3FFFFFFFFFFFFFFFFFFFFFFC0000
7FFFFFFFFFFFFFFFFFFFFFFF0000
7FFFFFFFFFFFFFFFFFFFFFFF8000
FFFFFFFFFFFFFFFFFFFFFFFFC000
FFFFFFFFFFFFFFFFFFFFFFFFE000
FFFFFFFFFFFFFFFFFFFFFFFFF000
FFFFFFFFFFFFFFFFFFFFFFFFF800
FFFFFFFFFFFFFFFFFFFFFFFFFC00
FFFFFFFFFFFFFFFFFFFFFFFFFE00
FFFFFFFFFFFFFFFFFFFFFFFFFF00
FFFFFFFFFFFFFFFFFFFFFFFFFF80
FFFFFFFFFFFFFFFFFFFFFFFFFF80
FFFFFFFFFFFFFFFFFFFFFFFFFFC0
FFFFFFFFFFFFFFFFFFFFFFFFFFC0
FFFFFFFFFFFFFFFFFFFFFFFFFFE0
FFFFFFFFFFFFFFFFFFFFFFFFFFE0
FFFFFFFFFFFFFFFFFFFFFFFFFFF0
FFFFFF80000000000000FFFFFFF0
FFFFFC000000000000000FFFFFF8
FFFFF80000000000000007FFFFF8
FFFFF80000000000000003FFFFF8
FFFFF80000000000000003FFFFF8
FFFFF80000000000000001FFFFFC
FFFFF80000000000000000FFFFFC
FFFFF80000000000000000FFFFFC
FFFFF80000000000000000FFFFFC
FFFFF80000000000000000FFFFFC
FFFFF800000000000000007FFFFC
FFFFF800000000000000007FFFFC
FFFFF800000000000000007FFFFC
FFFFF800000000000000007FFFFC
FFFFF800000000000000007FFFFC
FFFFF80000000000000000FFFFFC
FFFFF80000000000000000FFFFFC
FFFFF80000000000000000FFFFFC
FFFFF80000000000000001FFFFFC
FFFFF80000000000000001FFFFFC
FFFFF80000000000000003FFFFF8
FFFFF80000000000000007FFFFF8
FFFFF8000000000000000FFFFFF8
FFFFF8000000000000003FFFFFF8
FFFFF8000FFFFFFFFFFFFFFFFFF0
FFFFF8003FFFFFFFFFFFFFFFFFF0
FFFFF8007FFFFFFFFFFFFFFFFFE0
FFFFF800FFFFFFFFFFFFFFFFFFE0
FFFFF801FFFFFFFFFFFFFFFFFFC0
FFFFF803FFFFFFFFFFFFFFFFFFC0
FFFFF803FFFFFFFFFFFFFFFFFF80
FFFFF803FFFFFFFFFFFFFFFFFF80
FFFFF807FFFFFFFFFFFFFFFFFF00
FFFFF807FFFFFFFFFFFFFFFFFE00
FFFFF807FFFFFFFFFFFFFFFFFC00
FFFFF807FFFFFFFFFFFFFFFFF800
FFFFF807FFFFFFFFFFFFFFFFF000
FFFFF803FFFFFFFFFFFFFFFFE000
FFFFF803FFFFFFFFFFFFFFFFC000
FFFFF801FFFFFFFFFFFFFFFF8000
FFFFF801FFFFFFFFFFFFFFFF0000
FFFFF800FFFFFFFFFFFFFFFC0000
FFFFF8007FFFFFFFFFFFFFF00000
FFFFF8001FFFFFFFFFFFFF800000
FFFFF80007FFFFFFFFFFF8000000
FFFFF80000000000000000000000
FFFFF80000000000000000000000
FFFFF80000000000000000000000
FFFFF80000000000000000000000
FFFFF80000000000000000000000
FFFFF80000000000000000000000
FFFFF80000000000000000000000
FFFFF80000000000000000000000
FFFFF80000000000000000000000
FFFFF80000000000000000000000
FFFFF80000000000000000000000
FFFFF80000000000000000000000
FFFFF80000000000000000000000
FFFFF80000000000000000000000
FFFFF80000000000000000000000
FFFFF80000000000000000000000
FFFFF80000000000000000000000
FFFFF80000000000000000000000
FFFFF80000000000000000000000
FFFFF80000000000000000000000
FFFFF80000000000000000000000
FFFFF00000000000000000000000
7FFFF00000000000000000000000
7FFFE00000000000000000000000
3FFFE00000000000000000000000
1FFFC00000000000000000000000
0FFF800000000000000000000000
03FE000000000000000000000000
0020000000000000000000000000
ENDCHAR
STARTCHAR 0051
ENCODING 81
SWIDTH 856 0
DWIDTH 137 0
BBX 121 113 8 -21
BITMAP
00000000FFFFFFFFFFFFFF8000000000
0000007FFFFFFFFFFFFFFFFF00000000
000003FFFFFFFFFFFFFFFFFFC0000000
00000FFFFFFFFFFFFFFFFFFFF0000000
00001FFFFFFFFFFFFFFFFFFFFC000000
00007FFFFFFFFFFFFFFFFFFFFE000000
0000FFFFFFFFFFFFFFFFFFFFFF800000
0001FFFFFFFFFFFFFFFFFFFFFFC00000
0003FFFFFFFFFFFFFFFFFFFFFFE00000
0007FFFFFFFFFFFFFFFFFFFFFFF00000
000FFFFFFFFFFFFFFFFFFFFFFFF80000
001FFFFFFFFFFFFFFFFFFFFFFFFC0000
003FFFFFFFFFFFFFFFFFFFFFFFFC0000
003FFFFFFFFFFFFFFFFFFFFFFFFE0000
007FFFFFFFFFFFFFFFFFFFFFFFFF0000
00FFFFFFFFFFFFFFFFFFFFFFFFFF0000
00FFFFFFFFFFFFFFFFFFFFFFFFFF8000
01FFFFFFFFFFFFFFFFFFFFFFFFFFC000
03FFFFFFFFFFFFFFFFFFFFFFFFFFC000
03FFFFFFFFFFFFFFFFFFFFFFFFFFE000
07FFFFFFFFFFFFFFFFFFFFFFFFFFE000
07FFFFFFF000000000000FFFFFFFF000
0FFFFFFE000000000000007FFFFFF000
0FFFFFF8000000000000001FFFFFF800
0FFFFFF0000000000000000FFFFFF800
1FFFFFE00000000000000007FFFFF800
1FFFFFC00000000000000003FFFFFC00
1FFFFF800000000000000001FFFFFC00
3FFFFF000000000000000000FFFFFC00
3FFFFF000000000000000000FFFFFE00
3FFFFE0000000000000000007FFFFE00
3FFFFE0000000000000000007FFFFE00
7FFFFC0000000000000000003FFFFE00
7FFFFC0000000000000000003FFFFF00
7FFFF80000000000000000001FFFFF00
7FFFF80000000000000000001FFFFF00
7FFFF00000000000000000001FFFFF00
7FFFF00000000000000000000FFFFF00
FFFFF00000000000000000000FFFFF00
FFFFF00000000000000000000FFFFF80
FFFFF00000000000000000000FFFFF80
FFFFE000000000000000000007FFFF80
FFFFE000000000000000000007FFFF80
FFFFE000000000000000000007FFFF80
FFFFE000000000000000000007FFFF80
FFFFE000000000000000000007FFFF80
FFFFE000000000000000000007FFFF80
FFFFE000000000000000000007FFFF80
FFFFE000000000000000000007FFFF80
FFFFE000000000000000000007FFFF80
FFFFE000000000000000000007FFFF80
FFFFE000000000000000000007FFFF80
FFFFE00000000000000000000FFFFF80
FFFFF00000000000000000000FFFFF80
FFFFF0000000007F000000000FFFFF80
7FFFF000000001FFC00000000FFFFF00
7FFFF000000007FFE00000000FFFFF00
7FFFF80000000FFFF00000001FFFFF00
7FFFF80000000FFFF80000001FFFFF00
7FFFF80000001FFFFC0000001FFFFF00
7FFFFC0000001FFFFC0000003FFFFF00
3FFFFC0000003FFFFC0000003FFFFE00
3FFFFE0000003FFFFE0000007FFFFE00
3FFFFE0000003FFFFE0000007FFFFE00
3FFFFF0000003FFFFE000000FFFFFE00
1FFFFF8000003FFFFE000001FFFFFC00
1FFFFFC000003FFFFE000003FFFFFC00
1FFFFFE000003FFFFE000007FFFFFC00
0FFFFFF000003FFFFE00000FFFFFF800
0FFFFFF800003FFFFE00001FFFFFF800
0FFFFFFE00003FFFFE00007FFFFFF000
07FFFFFFC0003FFFFE0007FFFFFFF000
07FFFFFFFFFFFFFFFFFFFFFFFFFFF000
03FFFFFFFFFFFFFFFFFFFFFFFFFFE000
03FFFFFFFFFFFFFFFFFFFFFFFFFFE000
01FFFFFFFFFFFFFFFFFFFFFFFFFFC000
01FFFFFFFFFFFFFFFFFFFFFFFFFF8000
00FFFFFFFFFFFFFFFFFFFFFFFFFF8000
00FFFFFFFFFFFFFFFFFFFFFFFFFF0000
007FFFFFFFFFFFFFFFFFFFFFFFFE0000
003FFFFFFFFFFFFFFFFFFFFFFFFE0000
001FFFFFFFFFFFFFFFFFFFFFFFFC0000
000FFFFFFFFFFFFFFFFFFFFFFFF80000
000FFFFFFFFFFFFFFFFFFFFFFFF00000
0007FFFFFFFFFFFFFFFFFFFFFFE00000
0003FFFFFFFFFFFFFFFFFFFFFFC00000
0001FFFFFFFFFFFFFFFFFFFFFF800000
00007FFFFFFFFFFFFFFFFFFFFF000000
00003FFFFFFFFFFFFFFFFFFFFE000000
00000FFFFFFFFFFFFFFFFFFFF8000000
000003FFFFFFFFFFFFFFFFFFE0000000
000000FFFFFFFFFFFFFFFFFF00000000
00000007FFFFFFFFFFFFFFE000000000
0000000000003FFFFE00000000000000
0000000000003FFFFE00000000000000
0000000000003FFFFE00000000000000
0000000000003FFFFE00000000000000
0000000000003FFFFE00000000000000
0000000000003FFFFE00000000000000
0000000000003FFFFE00000000000000
0000000000003FFFFE00000000000000
0000000000003FFFFE00000000000000
0000000000003FFFFE00000000000000
0000000000003FFFFE00000000000000
0000000000003FFFFE00000000000000
0000000000003FFFFE00000000000000
0000000000001FFFFC00000000000000
0000000000001FFFFC00000000000000
0000000000000FFFFC00000000000000
0000000000000FFFF800000000000000
00000000000007FFF000000000000000
00000000000001FFE000000000000000
000000000000007F8000000000000000
ENDCHAR
STARTCHAR 0052
ENCODING 82
SWIDTH 793 0
DWIDTH 127 0
BBX 110 95 10 -2
BITMAP
001FFFFFFFFFFFFFFFF000000000
03FFFFFFFFFFFFFFFFFFFC000000
0FFFFFFFFFFFFFFFFFFFFFC00000
1FFFFFFFFFFFFFFFFFFFFFF80000
3FFFFFFFFFFFFFFFFFFFFFFE0000
7FFFFFFFFFFFFFFFFFFFFFFF8000
7FFFFFFFFFFFFFFFFFFFFFFFC000
FFFFFFFFFFFFFFFFFFFFFFFFE000
FFFFFFFFFFFFFFFFFFFFFFFFF800
FFFFFFFFFFFFFFFFFFFFFFFFFC00
FFFFFFFFFFFFFFFFFFFFFFFFFE00
FFFFFFFFFFFFFFFFFFFFFFFFFF00
FFFFFFFFFFFFFFFFFFFFFFFFFF00
FFFFFFFFFFFFFFFFFFFFFFFFFF80
FFFFFFFFFFFFFFFFFFFFFFFFFFC0
FFFFFFFFFFFFFFFFFFFFFFFFFFE0
FFFFFFFFFFFFFFFFFFFFFFFFFFE0
FFFFFFFFFFFFFFFFFFFFFFFFFFF0
FFFFFFFFFFFFFFFFFFFFFFFFFFF0
FFFFFFFFFFFFFFFFFFFFFFFFFFF0
FFFFFFFFFFFFFFFFFFFFFFFFFFF8
FFFFFF80000000000000FFFFFFF8
FFFFFC000000000000000FFFFFF8
FFFFF80000000000000003FFFFFC
FFFFF80000000000000001FFFFFC
FFFFF80000000000000000FFFFFC
FFFFF80000000000000000FFFFFC
FFFFF80000000000000000FFFFFC
FFFFF800000000000000007FFFFC
FFFFF80000000000000000FFFFFC
FFFFF80000000000000000FFFFFC
FFFFF80000000000000000FFFFFC
FFFFF80000000000000001FFFFFC
FFFFF80000000000000003FFFFFC
FFFFF8000000000000000FFFFFF8
FFFFF800000000000000FFFFFFF8
FFFFF8003FFFFFFFFFFFFFFFFFF8
FFFFF800FFFFFFFFFFFFFFFFFFF8
FFFFF801FFFFFFFFFFFFFFFFFFF0
FFFFF803FFFFFFFFFFFFFFFFFFF0
FFFFF803FFFFFFFFFFFFFFFFFFE0
FFFFF807FFFFFFFFFFFFFFFFFFE0
FFFFF807FFFFFFFFFFFFFFFFFFC0
FFFFF80FFFFFFFFFFFFFFFFFFF80
FFFFF80FFFFFFFFFFFFFFFFFFF80
FFFFF80FFFFFFFFFFFFFFFFFFF00
FFFFF80FFFFFFFFFFFFFFFFFFE00
FFFFF80FFFFFFFFFFFFFFFFFFC00
FFFFF80FFFFFFFFFFFFFFFFFF800
FFFFF807FFFFFFFFFFFFFFFFF000
FFFFF807FFFFFFFFFFFFFFFFC000
FFFFF807FFFFFFFFFFFFFFFF8000
FFFFF807FFFFFFFFFFFFFFFE0000
FFFFF807FFFFFFFFFFFFFFF80000
FFFFF807FFFFFFFFFFFFFFE00000
FFFFF803FFFFFFFFFFFFFE000000
FFFFF803FFFFE000000000000000
FFFFF803FFFFF000000000000000
FFFFF803FFFFF000000000000000
FFFFF803FFFFF000000000000000
FFFFF801FFFFF000000000000000
FFFFF801FFFFF800000000000000
FFFFF801FFFFF800000000000000
FFFFF801FFFFF800000000000000
FFFFF801FFFFFC00000000000000
FFFFF800FFFFFE00000000000000
FFFFF800FFFFFE00000000000000
FFFFF800FFFFFF00000000000000
FFFFF8007FFFFF80000000000000
FFFFF8007FFFFFC0000000000000
FFFFF8007FFFFFF0000000000000
FFFFF8003FFFFFFE000000000000
FFFFF8003FFFFFFFFFFFFFFFFE00
FFFFF8001FFFFFFFFFFFFFFFFF80
FFFFF8001FFFFFFFFFFFFFFFFFE0
FFFFF8000FFFFFFFFFFFFFFFFFF0
FFFFF8000FFFFFFFFFFFFFFFFFF0
FFFFF80007FFFFFFFFFFFFFFFFF8
FFFFF80003FFFFFFFFFFFFFFFFF8
FFFFF80001FFFFFFFFFFFFFFFFFC
FFFFF80001FFFFFFFFFFFFFFFFFC
FFFFF80000FFFFFFFFFFFFFFFFFC
FFFFF800007FFFFFFFFFFFFFFFFC
FFFFF800003FFFFFFFFFFFFFFFFC
FFFFF800001FFFFFFFFFFFFFFFFC
FFFFF800000FFFFFFFFFFFFFFFFC
FFFFF8000003FFFFFFFFFFFFFFF8
FFFFF0000001FFFFFFFFFFFFFFF8
7FFFF0000000FFFFFFFFFFFFFFF0
7FFFF00000003FFFFFFFFFFFFFE0
3FFFE00000000FFFFFFFFFFFFFC0
1FFFC000000001FFFFFFFFFFFF00
0FFF80000000000FFFFFFFFFF800
07FF000000000000000000000000
00F8000000000000000000000000
ENDCHAR
STARTCHAR 0053
ENCODING 83
SWIDTH 756 0
DWIDTH 121 0
BBX 106 92 8 0
BITMAP
000000003FFFFFFFFFFFFFF00000
000001FFFFFFFFFFFFFFFFFF8000
00000FFFFFFFFFFFFFFFFFFFE000
00007FFFFFFFFFFFFFFFFFFFF000
0001FFFFFFFFFFFFFFFFFFFFF800
0007FFFFFFFFFFFFFFFFFFFFF800
000FFFFFFFFFFFFFFFFFFFFFFC00
003FFFFFFFFFFFFFFFFFFFFFFC00
007FFFFFFFFFFFFFFFFFFFFFFE00
00FFFFFFFFFFFFFFFFFFFFFFFE00
01FFFFFFFFFFFFFFFFFFFFFFFE00
03FFFFFFFFFFFFFFFFFFFFFFFE00
07FFFFFFFFFFFFFFFFFFFFFFFE00
07FFFFFFFFFFFFFFFFFFFFFFFE00
0FFFFFFFFFFFFFFFFFFFFFFFFC00
1FFFFFFFFFFFFFFFFFFFFFFFFC00
1FFFFFFFFFFFFFFFFFFFFFFFF800
3FFFFFFFFFFFFFFFFFFFFFFFF800
3FFFFFFFFFFFFFFFFFFFFFFFF000
7FFFFFFFFFFFFFFFFFFFFFFFC000
7FFFFFFFFFFFFFFFFFFFFFFF8000
7FFFFFFC00000000000000000000
FFFFFFC000000000000000000000
FFFFFF0000000000000000000000
FFFFFE0000000000000000000000
FFFFFC0000000000000000000000
FFFFFC0000000000000000000000
FFFFF80000000000000000000000
FFFFF80000000000000000000000
FFFFF80000000000000000000000
FFFFFC0000000000000000000000
FFFFFC0000000000000000000000
FFFFFE0000000000000000000000
FFFFFF0000000000000000000000
FFFFFFC000000000000000000000
7FFFFFFFFFFFFFFFFFC000000000
7FFFFFFFFFFFFFFFFFFFE0000000
7FFFFFFFFFFFFFFFFFFFFC000000
3FFFFFFFFFFFFFFFFFFFFF800000
3FFFFFFFFFFFFFFFFFFFFFE00000
1FFFFFFFFFFFFFFFFFFFFFF00000
1FFFFFFFFFFFFFFFFFFFFFFC0000
0FFFFFFFFFFFFFFFFFFFFFFE0000
0FFFFFFFFFFFFFFFFFFFFFFF0000
07FFFFFFFFFFFFFFFFFFFFFF8000
03FFFFFFFFFFFFFFFFFFFFFFC000
01FFFFFFFFFFFFFFFFFFFFFFE000
00FFFFFFFFFFFFFFFFFFFFFFF000
007FFFFFFFFFFFFFFFFFFFFFF800
003FFFFFFFFFFFFFFFFFFFFFF800
001FFFFFFFFFFFFFFFFFFFFFFC00
0007FFFFFFFFFFFFFFFFFFFFFE00
0001FFFFFFFFFFFFFFFFFFFFFE00
00007FFFFFFFFFFFFFFFFFFFFE00
00001FFFFFFFFFFFFFFFFFFFFF00
000001FFFFFFFFFFFFFFFFFFFF00
0000000000000000000FFFFFFF00
00000000000000000000FFFFFF80
000000000000000000007FFFFF80
000000000000000000003FFFFF80
000000000000000000001FFFFF80
000000000000000000001FFFFF80
000000000000000000000FFFFFC0
000000000000000000000FFFFFC0
000000000000000000000FFFFFC0
000000000000000000000FFFFFC0
000000000000000000000FFFFF80
000000000000000000001FFFFF80
000000000000000000003FFFFF80
000000000000000000007FFFFF80
00000000000000000000FFFFFF80
000FFFFFFFFFFFFFFFFFFFFFFF00
00FFFFFFFFFFFFFFFFFFFFFFFF00
03FFFFFFFFFFFFFFFFFFFFFFFF00
07FFFFFFFFFFFFFFFFFFFFFFFE00
0FFFFFFFFFFFFFFFFFFFFFFFFE00
1FFFFFFFFFFFFFFFFFFFFFFFFC00
1FFFFFFFFFFFFFFFFFFFFFFFFC00
1FFFFFFFFFFFFFFFFFFFFFFFF800
3FFFFFFFFFFFFFFFFFFFFFFFF800
3FFFFFFFFFFFFFFFFFFFFFFFF000
3FFFFFFFFFFFFFFFFFFFFFFFE000
3FFFFFFFFFFFFFFFFFFFFFFFC000
3FFFFFFFFFFFFFFFFFFFFFFF8000
3FFFFFFFFFFFFFFFFFFFFFFF0000
1FFFFFFFFFFFFFFFFFFFFFFE0000
1FFFFFFFFFFFFFFFFFFFFFFC0000
0FFFFFFFFFFFFFFFFFFFFFF00000
0FFFFFFFFFFFFFFFFFFFFFE00000
07FFFFFFFFFFFFFFFFFFFF800000
03FFFFFFFFFFFFFFFFFFFC000000
00FFFFFFFFFFFFFFFFFFC0000000
ENDCHAR
STARTCHAR 0054
ENCODING 84
SWIDTH 781 0
DWIDTH 125 0
BBX 112 95 7 -2
BITMAP
003FFFFFFFFFFFFFFFFFFFFFF800
03FFFFFFFFFFFFFFFFFFFFFFFFC0
0FFFFFFFFFFFFFFFFFFFFFFFFFF0
1FFFFFFFFFFFFFFFFFFFFFFFFFF8
3FFFFFFFFFFFFFFFFFFFFFFFFFFC
7FFFFFFFFFFFFFFFFFFFFFFFFFFC
7FFFFFFFFFFFFFFFFFFFFFFFFFFE
FFFFFFFFFFFFFFFFFFFFFFFFFFFE
FFFFFFFFFFFFFFFFFFFFFFFFFFFE
FFFFFFFFFFFFFFFFFFFFFFFFFFFF
FFFFFFFFFFFFFFFFFFFFFFFFFFFF
FFFFFFFFFFFFFFFFFFFFFFFFFFFF
FFFFFFFFFFFFFFFFFFFFFFFFFFFF
FFFFFFFFFFFFFFFFFFFFFFFFFFFE
FFFFFFFFFFFFFFFFFFFFFFFFFFFE
7FFFFFFFFFFFFFFFFFFFFFFFFFFE
7FFFFFFFFFFFFFFFFFFFFFFFFFFC
3FFFFFFFFFFFFFFFFFFFFFFFFFFC
1FFFFFFFFFFFFFFFFFFFFFFFFFF8
0FFFFFFFFFFFFFFFFFFFFFFFFFE0
03FFFFFFFFFFFFFFFFFFFFFFFFC0
000000000007FFFFC00000000000
000000000007FFFFC00000000000
000000000007FFFFC00000000000
000000000007FFFFC00000000000
000000000007FFFFC00000000000
000000000007FFFFC00000000000
000000000007FFFFC00000000000
000000000007FFFFC00000000000
000000000007FFFFC00000000000
000000000007FFFFC00000000000
000000000007FFFFC00000000000
000000000007FFFFC00000000000
000000000007FFFFC00000000000
000000000007FFFFC00000000000
000000000007FFFFC00000000000
000000000007FFFFC00000000000
000000000007FFFFC00000000000
000000000007FFFFC00000000000
000000000007FFFFC00000000000
000000000007FFFFC00000000000
000000000007FFFFC00000000000
000000000007FFFFC00000000000
000000000007FFFFC00000000000
000000000007FFFFC00000000000
000000000007FFFFC00000000000
000000000007FFFFC00000000000
000000000007FFFFC00000000000
000000000007FFFFC00000000000
000000000007FFFFC00000000000
000000000007FFFFC00000000000
000000000007FFFFC00000000000
000000000007FFFFC00000000000
000000000007FFFFC00000000000
000000000007FFFFC00000000000
000000000007FFFFC00000000000
000000000007FFFFC00000000000
000000000007FFFFC00000000000
000000000007FFFFC00000000000
000000000007FFFFC00000000000
000000000007FFFFC00000000000
000000000007FFFFC00000000000
000000000007FFFFC00000000000
000000000007FFFFC00000000000
000000000007FFFFC00000000000
000000000007FFFFC00000000000
000000000007FFFFC00000000000
000000000007FFFFC00000000000
000000000007FFFFC00000000000
000000000007FFFFC00000000000
000000000007FFFFC00000000000
000000000007FFFFC00000000000
000000000007FFFFC00000000000
000000000007FFFFC00000000000
000000000007FFFFC00000000000
000000000007FFFFC00000000000
000000000007FFFFC00000000000
000000000007FFFFC00000000000
000000000007FFFFC00000000000
000000000007FFFFC00000000000
000000000007FFFFC00000000000
000000000007FFFFC00000000000
000000000007FFFFC00000000000
000000000007FFFFC00000000000
000000000007FFFFC00000000000
000000000007FFFFC00000000000
000000000007FFFFC00000000000
000000000003FFFFC00000000000
000000000003FFFFC00000000000
000000000001FFFF800000000000
000000000001FFFF800000000000
000000000000FFFF000000000000
0000000000007FFE000000000000
0000000000001FF8000000000000
00000000000007C0000000000000
ENDCHAR
STARTCHAR 0055
ENCODING 85
SWIDTH 750 0
DWIDTH 120 0
BBX 100 99 10 -4
BITMAP
0020000000000000000000C000
03FE00000000000000000FFC00
0FFF80000000000000001FFE00
1FFFC0000000000000007FFF80
3FFFE000000000000000FFFF80
7FFFF000000000000000FFFFC0
7FFFF000000000000001FFFFE0
FFFFF000000000000001FFFFE0
FFFFF800000000000001FFFFE0
FFFFF800000000000003FFFFE0
FFFFF800000000000003FFFFF0
FFFFF800000000000003FFFFF0
FFFFF800000000000003FFFFF0
FFFFF800000000000003FFFFF0
FFFFF800000000000003FFFFF0
FFFFF800000000000003FFFFF0
FFFFF800000000000003FFFFF0
FFFFF800000000000003FFFFF0
FFFFF800000000000003FFFFF0
FFFFF800000000000003FFFFF0
FFFFF800000000000003FFFFF0
FFFFF800000000000003FFFFF0
FFFFF800000000000003FFFFF0
FFFFF800000000000003FFFFF0
FFFFF800000000000003FFFFF0
FFFFF800000000000003FFFFF0
FFFFF800000000000003FFFFF0
FFFFF800000000000003FFFFF0
FFFFF800000000000003FFFFF0
FFFFF800000000000003FFFFF0
FFFFF800000000000003FFFFF0
FFFFF800000000000003FFFFF0
FFFFF800000000000003FFFFF0
FFFFF800000000000003FFFFF0
FFFFF800000000000003FFFFF0
FFFFF800000000000003FFFFF0
FFFFF800000000000003FFFFF0
FFFFF800000000000003FFFFF0
FFFFF800000000000003FFFFF0
FFFFF800000000000003FFFFF0
FFFFF800000000000003FFFFF0
FFFFF800000000000003FFFFF0
FFFFF800000000000003FFFFF0
FFFFF800000000000003FFFFF0
FFFFF800000000000003FFFFF0
FFFFF800000000000003FFFFF0
FFFFF800000000000003FFFFF0
FFFFF800000000000003FFFFF0
FFFFF800000000000003FFFFF0
FFFFF800000000000003FFFFF0
FFFFF800000000000003FFFFF0
FFFFF800000000000003FFFFF0
FFFFF800000000000003FFFFF0
FFFFF800000000000003FFFFF0
FFFFF800000000000003FFFFF0
FFFFF800000000000003FFFFF0
FFFFF800000000000003FFFFF0
FFFFF800000000000003FFFFF0
FFFFF800000000000003FFFFF0
FFFFF800000000000003FFFFF0
FFFFF800000000000003FFFFF0
FFFFF800000000000003FFFFF0
FFFFF800000000000003FFFFF0
FFFFF800000000000003FFFFF0
FFFFF800000000000003FFFFF0
FFFFFC00000000000003FFFFF0
FFFFFC00000000000007FFFFF0
FFFFFC00000000000007FFFFE0
FFFFFE0000000000000FFFFFE0
FFFFFF0000000000001FFFFFE0
FFFFFF8000000000003FFFFFE0
7FFFFFC000000000007FFFFFE0
7FFFFFE00000000000FFFFFFE0
7FFFFFF80000000001FFFFFFC0
3FFFFFFE0000000007FFFFFFC0
3FFFFFFF800000001FFFFFFFC0
3FFFFFFFE0000000FFFFFFFF80
1FFFFFFFFC000007FFFFFFFF00
0FFFFFFFFFE000FFFFFFFFFF00
0FFFFFFFFFFFFFFFFFFFFFFE00
07FFFFFFFFFFFFFFFFFFFFFC00
03FFFFFFFFFFFFFFFFFFFFFC00
01FFFFFFFFFFFFFFFFFFFFF800
00FFFFFFFFFFFFFFFFFFFFF000
007FFFFFFFFFFFFFFFFFFFE000
003FFFFFFFFFFFFFFFFFFFC000
001FFFFFFFFFFFFFFFFFFF0000
000FFFFFFFFFFFFFFFFFFE0000
0003FFFFFFFFFFFFFFFFFC0000
0001FFFFFFFFFFFFFFFFF00000
00007FFFFFFFFFFFFFFFE00000
00001FFFFFFFFFFFFFFF800000
000007FFFFFFFFFFFFFE000000
000001FFFFFFFFFFFFF8000000
0000007FFFFFFFFFFFC0000000
0000000FFFFFFFFFFE00000000
00000001FFFFFFFFF000000000
000000001FFFFFFF0000000000
00000000007FFFC00000000000
ENDCHAR
STARTCHAR 0056
ENCODING 86
SWIDTH 750 0
DWIDTH 120 0
BBX 106 98 7 -3
BITMAP
007000000000000000000003C000
07FF0000000000000000003FF800
0FFF8000000000000000007FFE00
1FFFC00000000000000000FFFF00
3FFFE00000000000000001FFFF00
7FFFF00000000000000003FFFF80
7FFFF80000000000000007FFFFC0
FFFFF80000000000000007FFFFC0
FFFFFC000000000000000FFFFFC0
FFFFFC000000000000000FFFFFC0
FFFFFC000000000000000FFFFFC0
FFFFFE000000000000001FFFFFC0
FFFFFE000000000000001FFFFFC0
7FFFFE000000000000001FFFFFC0
7FFFFF000000000000003FFFFF80
7FFFFF000000000000003FFFFF80
3FFFFF800000000000003FFFFF80
3FFFFF800000000000007FFFFF00
1FFFFF800000000000007FFFFF00
1FFFFFC00000000000007FFFFF00
1FFFFFC0000000000000FFFFFE00
0FFFFFC0000000000000FFFFFE00
0FFFFFE0000000000001FFFFFC00
07FFFFE0000000000001FFFFFC00
07FFFFF0000000000001FFFFFC00
07FFFFF0000000000003FFFFF800
03FFFFF0000000000003FFFFF800
03FFFFF8000000000003FFFFF000
03FFFFF8000000000007FFFFF000
01FFFFF8000000000007FFFFF000
01FFFFFC000000000007FFFFE000
00FFFFFC00000000000FFFFFE000
00FFFFFC00000000000FFFFFC000
00FFFFFE00000000000FFFFFC000
007FFFFE00000000001FFFFFC000
007FFFFF00000000001FFFFF8000
003FFFFF00000000003FFFFF8000
003FFFFF00000000003FFFFF8000
003FFFFF80000000003FFFFF0000
001FFFFF80000000007FFFFF0000
001FFFFF80000000007FFFFE0000
001FFFFFC0000000007FFFFE0000
000FFFFFC000000000FFFFFE0000
000FFFFFC000000000FFFFFC0000
0007FFFFE000000000FFFFFC0000
0007FFFFE000000001FFFFF80000
0007FFFFF000000001FFFFF80000
0003FFFFF000000001FFFFF80000
0003FFFFF000000003FFFFF00000
0001FFFFF800000003FFFFF00000
0001FFFFF800000007FFFFF00000
0001FFFFF800000007FFFFE00000
0000FFFFFC00000007FFFFE00000
0000FFFFFC0000000FFFFFC00000
00007FFFFE0000000FFFFFC00000
00007FFFFE0000001FFFFFC00000
00007FFFFE0000001FFFFF800000
00003FFFFF0000001FFFFF800000
00003FFFFF0000003FFFFF000000
00003FFFFF8000003FFFFF000000
00001FFFFF8000007FFFFF000000
00001FFFFFC000007FFFFE000000
00000FFFFFC00000FFFFFE000000
00000FFFFFC00000FFFFFC000000
000007FFFFE00001FFFFFC000000
000007FFFFE00001FFFFF8000000
000007FFFFF00003FFFFF8000000
000003FFFFF00003FFFFF8000000
000003FFFFF80007FFFFF0000000
000001FFFFFC0007FFFFF0000000
000001FFFFFC000FFFFFE0000000
000000FFFFFE001FFFFFE0000000
000000FFFFFF001FFFFFC0000000
0000007FFFFF003FFFFFC0000000
0000007FFFFFC07FFFFF80000000
0000003FFFFFE1FFFFFF80000000
0000003FFFFFFFFFFFFF00000000
0000001FFFFFFFFFFFFF00000000
0000001FFFFFFFFFFFFE00000000
0000000FFFFFFFFFFFFE00000000
0000000FFFFFFFFFFFFC00000000
00000007FFFFFFFFFFFC00000000
00000003FFFFFFFFFFF800000000
00000003FFFFFFFFFFF000000000
00000001FFFFFFFFFFF000000000
00000001FFFFFFFFFFE000000000
00000000FFFFFFFFFFE000000000
000000007FFFFFFFFFC000000000
000000007FFFFFFFFF8000000000
000000003FFFFFFFFF0000000000
000000001FFFFFFFFF0000000000
000000000FFFFFFFFE0000000000
0000000007FFFFFFF80000000000
0000000003FFFFFFF00000000000
0000000000FFFFFFE00000000000
00000000003FFFFF800000000000
00000000000FFFFE000000000000
000000000001FFE0000000000000
ENDCHAR
STARTCHAR 0057
ENCODING 87
SWIDTH 818 0
DWIDTH 131 0
BBX 111 99 10 -4
BITMAP
0020000000000300000000001800
03FE000000001FF000000001FF80
0FFF800000007FFC00000003FFE0
1FFFC0000000FFFE00000007FFF0
3FFFE0000001FFFF0000000FFFF8
7FFFF0000003FFFF0000001FFFF8
7FFFF0000007FFFF8000003FFFFC
FFFFF0000007FFFF8000003FFFFC
FFFFF8000007FFFF8000003FFFFC
FFFFF8000007FFFFC000003FFFFC
FFFFF8000007FFFFC000003FFFFE
FFFFF8000007FFFFC000003FFFFE
FFFFF8000007FFFFC000003FFFFE
FFFFF8000007FFFFC000003FFFFE
FFFFF8000007FFFFC000003FFFFE
FFFFF8000007FFFFC000003FFFFE
FFFFF8000007FFFFC000003FFFFE
FFFFF8000007FFFFC000003FFFFE
FFFFF8000007FFFFC000003FFFFE
FFFFF8000007FFFFC000003FFFFE
FFFFF8000007FFFFC000003FFFFE
FFFFF8000007FFFFC000003FFFFE
FFFFF8000007FFFFC000003FFFFE
FFFFF8000007FFFFC000003FFFFE
FFFFF8000007FFFFC000003FFFFE
FFFFF8000007FFFFC000003FFFFE
FFFFF8000007FFFFC000003FFFFE
FFFFF8000007FFFFC000003FFFFE
FFFFF8000007FFFFC000003FFFFE
FFFFF8000007FFFFC000003FFFFE
FFFFF8000007FFFFC000003FFFFE
FFFFF8000007FFFFC000003FFFFE
FFFFF8000007FFFFC000003FFFFE
FFFFF8000007FFFFC000003FFFFE
FFFFF8000007FFFFC000003FFFFE
FFFFF8000007FFFFC000003FFFFE
FFFFF8000007FFFFC000003FFFFE
FFFFF8000007FFFFC000003FFFFE
FFFFF8000007FFFFC000003FFFFE
FFFFF8000007FFFFC000003FFFFE
FFFFF8000007FFFFC000003FFFFE
FFFFF8000007FFFFC000003FFFFE
FFFFF8000007FFFFC000003FFFFE
FFFFF8000007FFFFC000003FFFFE
FFFFF8000007FFFFC000003FFFFE
FFFFF8000007FFFFC000003FFFFE
FFFFF8000007FFFFC000003FFFFE
FFFFF8000007FFFFC000003FFFFE
FFFFF8000007FFFFC000003FFFFE
FFFFF8000007FFFFC000003FFFFE
FFFFF8000007FFFFC000003FFFFE
FFFFF8000007FFFFC000003FFFFE
FFFFF8000007FFFFC000003FFFFE
FFFFF8000007FFFFC000003FFFFE
FFFFF8000007FFFFC000003FFFFE
FFFFF8000007FFFFC000003FFFFE
FFFFF8000007FFFFC000003FFFFE
FFFFF8000007FFFFC000003FFFFE
FFFFF8000007FFFFC000003FFFFE
FFFFF8000007FFFFC000003FFFFE
FFFFF8000007FFFFC000003FFFFE
FFFFF8000007FFFFC000003FFFFE
FFFFF8000007FFFFC000003FFFFE
FFFFF8000007FFFFC000003FFFFE
FFFFF8000007FFFFC000003FFFFE
FFFFF8000007FFFFC000003FFFFE
FFFFF8000007FFFFC000007FFFFE
FFFFF8000007FFFFC000007FFFFE
FFFFF800000FFFFFC000007FFFFE
FFFFF800000FFFFFC000007FFFFE
FFFFFC00000FFFFFE000007FFFFC
FFFFFC00000FFFFFE00000FFFFFC
7FFFFE00001FFFFFF00000FFFFFC
7FFFFE00003FFFFFF00001FFFFFC
7FFFFF00003FFFFFF80001FFFFFC
7FFFFF80007FFFFFFC0003FFFFFC
3FFFFFC000FFFFFFFE0007FFFFF8
3FFFFFF003FFFFFFFF001FFFFFF8
3FFFFFFC0FFFFFFFFFE07FFFFFF8
1FFFFFFFFFFFFFFFFFFFFFFFFFF0
1FFFFFFFFFFFFFFFFFFFFFFFFFF0
0FFFFFFFFFFFFFFFFFFFFFFFFFE0
0FFFFFFFFFFFFFFFFFFFFFFFFFC0
07FFFFFFFFFFFFFFFFFFFFFFFFC0
03FFFFFFFFFFFFFFFFFFFFFFFF80
03FFFFFFFFFFFFFFFFFFFFFFFF00
01FFFFFFFFFFFFFFFFFFFFFFFF00
00FFFFFFFFFFFFFFFFFFFFFFFE00
007FFFFFFFFFFFFFFFFFFFFFFC00
003FFFFFFFFFFFFFFFFFFFFFF800
001FFFFFFFFFFEFFFFFFFFFFF000
000FFFFFFFFFFC7FFFFFFFFFC000
0003FFFFFFFFF03FFFFFFFFF8000
0001FFFFFFFFE00FFFFFFFFF0000
00007FFFFFFF8003FFFFFFFC0000
00001FFFFFFE0001FFFFFFF00000
000007FFFFF800003FFFFFC00000
000000FFFFE000000FFFFE000000
0000000FFE00000000FFE0000000
ENDCHAR
STARTCHAR 0058
ENCODING 88
SWIDTH 825 0
DWIDTH 132 0
BBX 118 93 7 0
BITMAP
003FFE000000000000000001FFF000
07FFFFFC00000000000000FFFFFF00
0FFFFFFF80000000000007FFFFFFC0
1FFFFFFFE000000000001FFFFFFFE0
3FFFFFFFF800000000007FFFFFFFF0
7FFFFFFFFC0000000001FFFFFFFFF8
FFFFFFFFFF0000000003FFFFFFFFF8
FFFFFFFFFF8000000007FFFFFFFFFC
FFFFFFFFFFE00000001FFFFFFFFFFC
FFFFFFFFFFF00000003FFFFFFFFFFC
FFFFFFFFFFF80000007FFFFFFFFFFC
FFFFFFFFFFFC000000FFFFFFFFFFFC
FFFFFFFFFFFE000001FFFFFFFFFFFC
FFFFFFFFFFFF000003FFFFFFFFFFFC
FFFFFFFFFFFF800007FFFFFFFFFFFC
7FFFFFFFFFFFC0000FFFFFFFFFFFF8
7FFFFFFFFFFFE0001FFFFFFFFFFFF8
3FFFFFFFFFFFF0003FFFFFFFFFFFF0
1FFFFFFFFFFFF8007FFFFFFFFFFFE0
0FFFFFFFFFFFF800FFFFFFFFFFFFC0
03FFFFFFFFFFFC00FFFFFFFFFFFF00
000000FFFFFFFE01FFFFFFFC000000
0000001FFFFFFF03FFFFFFE0000000
00000007FFFFFF07FFFFFF80000000
00000003FFFFFF87FFFFFF00000000
00000000FFFFFFCFFFFFFC00000000
000000007FFFFFFFFFFFF800000000
000000003FFFFFFFFFFFF000000000
000000001FFFFFFFFFFFE000000000
000000000FFFFFFFFFFFC000000000
0000000007FFFFFFFFFF8000000000
0000000007FFFFFFFFFF0000000000
0000000003FFFFFFFFFF0000000000
0000000001FFFFFFFFFE0000000000
0000000000FFFFFFFFFC0000000000
00000000007FFFFFFFF80000000000
00000000007FFFFFFFF80000000000
00000000003FFFFFFFF00000000000
00000000001FFFFFFFE00000000000
00000000001FFFFFFFE00000000000
00000000000FFFFFFFC00000000000
00000000000FFFFFFF800000000000
000000000007FFFFFF800000000000
000000000003FFFFFF000000000000
000000000003FFFFFF000000000000
000000000001FFFFFE000000000000
000000000001FFFFFE000000000000
000000000000FFFFFC000000000000
000000000001FFFFFC000000000000
000000000001FFFFFE000000000000
000000000003FFFFFE000000000000
000000000003FFFFFF000000000000
000000000007FFFFFF800000000000
000000000007FFFFFF800000000000
00000000000FFFFFFFC00000000000
00000000001FFFFFFFE00000000000
00000000001FFFFFFFE00000000000
00000000003FFFFFFFF00000000000
00000000007FFFFFFFF80000000000
0000000000FFFFFFFFF80000000000
0000000000FFFFFFFFFC0000000000
0000000001FFFFFFFFFE0000000000
0000000003FFFFFFFFFF0000000000
0000000007FFFFFFFFFF8000000000
000000000FFFFFFFFFFFC000000000
000000001FFFFFFFFFFFE000000000
000000003FFFFFFFFFFFF000000000
000000007FFFFFFFFFFFF800000000
00000000FFFFFFFFFFFFFC00000000
00000003FFFFFFCFFFFFFE00000000
0000000FFFFFFF87FFFFFF80000000
0000007FFFFFFF07FFFFFFF8000000
01FFFFFFFFFFFF03FFFFFFFFFFFE00
07FFFFFFFFFFFE01FFFFFFFFFFFF80
0FFFFFFFFFFFFC00FFFFFFFFFFFFC0
1FFFFFFFFFFFF8007FFFFFFFFFFFE0
3FFFFFFFFFFFF0007FFFFFFFFFFFE0
3FFFFFFFFFFFE0003FFFFFFFFFFFF0
7FFFFFFFFFFFE0001FFFFFFFFFFFF0
7FFFFFFFFFFFC0000FFFFFFFFFFFF8
7FFFFFFFFFFF800007FFFFFFFFFFF8
7FFFFFFFFFFF000003FFFFFFFFFFF8
7FFFFFFFFFFE000001FFFFFFFFFFF8
7FFFFFFFFFF8000000FFFFFFFFFFF8
7FFFFFFFFFF00000003FFFFFFFFFF8
7FFFFFFFFFE00000001FFFFFFFFFF8
3FFFFFFFFFC00000000FFFFFFFFFF0
3FFFFFFFFF0000000003FFFFFFFFF0
1FFFFFFFFC0000000001FFFFFFFFE0
0FFFFFFFF800000000007FFFFFFFC0
07FFFFFFC000000000001FFFFFFF80
01FFFFFF00000000000003FFFFFE00
001FFFC0000000000000000FFFE000
ENDCHAR
STARTCHAR 0059
ENCODING 89
SWIDTH 762 0
DWIDTH 122 0
BBX 102 94 10 0
BITMAP
01FC0000000000000000007800
07FF000000000000000003FF00
0FFF800000000000000007FFC0
1FFFC0000000000000000FFFE0
3FFFE0000000000000001FFFF0
7FFFF0000000000000003FFFF0
7FFFF0000000000000007FFFF8
FFFFF8000000000000007FFFF8
FFFFF8000000000000007FFFF8
FFFFF8000000000000007FFFFC
FFFFF8000000000000007FFFFC
FFFFF8000000000000007FFFFC
FFFFF8000000000000007FFFFC
FFFFF8000000000000007FFFFC
FFFFF8000000000000007FFFFC
FFFFF8000000000000007FFFFC
FFFFF8000000000000007FFFFC
FFFFF8000000000000007FFFFC
FFFFF8000000000000007FFFFC
FFFFF8000000000000007FFFFC
FFFFF8000000000000007FFFFC
FFFFF8000000000000007FFFFC
FFFFFC000000000000007FFFFC
7FFFFC000000000000007FFFFC
7FFFFC000000000000007FFFFC
7FFFFC000000000000007FFFFC
7FFFFC000000000000007FFFFC
7FFFFE000000000000007FFFFC
7FFFFE000000000000007FFFFC
7FFFFE000000000000007FFFFC
3FFFFF000000000000007FFFFC
3FFFFF000000000000007FFFFC
3FFFFF800000000000007FFFFC
3FFFFFC00000000000007FFFFC
1FFFFFE00000000000007FFFFC
1FFFFFF00000000000007FFFFC
1FFFFFF80000000000007FFFFC
0FFFFFFE0000000000007FFFFC
0FFFFFFF8000000000007FFFFC
0FFFFFFFFFFFFFFFFFFFFFFFFC
07FFFFFFFFFFFFFFFFFFFFFFFC
07FFFFFFFFFFFFFFFFFFFFFFFC
03FFFFFFFFFFFFFFFFFFFFFFFC
03FFFFFFFFFFFFFFFFFFFFFFFC
01FFFFFFFFFFFFFFFFFFFFFFFC
00FFFFFFFFFFFFFFFFFFFFFFFC
00FFFFFFFFFFFFFFFFFFFFFFFC
007FFFFFFFFFFFFFFFFFFFFFFC
003FFFFFFFFFFFFFFFFFFFFFFC
003FFFFFFFFFFFFFFFFFFFFFFC
001FFFFFFFFFFFFFFFFFFFFFFC
000FFFFFFFFFFFFFFFFFFFFFFC
0007FFFFFFFFFFFFFFFFFFFFFC
0003FFFFFFFFFFFFFFFFFFFFF8
0000FFFFFFFFFFFFFFFFFFFFF8
00007FFFFFFFFFFFFFFFFFFFF8
00001FFFFFFFFFFFFFFFFFFFF8
000007FFFFFFFFFFFFFFFFFFF8
000001FFFFFFFFFFFFFFFFFFF8
0000001FFFFFFFFFFFFFFFFFF8
00000000000000000001FFFFF8
00000000000000000001FFFFF0
00000000000000000001FFFFF0
00000000000000000003FFFFF0
00000000000000000003FFFFF0
00000000000000000007FFFFF0
0000000000000000000FFFFFE0
0000000000000000000FFFFFE0
0000000000000000001FFFFFE0
0000000000000000003FFFFFE0
0000000000000000007FFFFFC0
000000000000000001FFFFFFC0
000000000000000007FFFFFFC0
0007FFFFFFFFFFFFFFFFFFFF80
007FFFFFFFFFFFFFFFFFFFFF80
00FFFFFFFFFFFFFFFFFFFFFF00
01FFFFFFFFFFFFFFFFFFFFFF00
03FFFFFFFFFFFFFFFFFFFFFE00
07FFFFFFFFFFFFFFFFFFFFFE00
07FFFFFFFFFFFFFFFFFFFFFC00
0FFFFFFFFFFFFFFFFFFFFFF800
0FFFFFFFFFFFFFFFFFFFFFF800
0FFFFFFFFFFFFFFFFFFFFFF000
0FFFFFFFFFFFFFFFFFFFFFE000
0FFFFFFFFFFFFFFFFFFFFFC000
0FFFFFFFFFFFFFFFFFFFFF8000
0FFFFFFFFFFFFFFFFFFFFF8000
0FFFFFFFFFFFFFFFFFFFFE0000
07FFFFFFFFFFFFFFFFFFFC0000
07FFFFFFFFFFFFFFFFFFF80000
03FFFFFFFFFFFFFFFFFFE00000
01FFFFFFFFFFFFFFFFFFC00000
00FFFFFFFFFFFFFFFFFE000000
003FFFFFFFFFFFFFFFF0000000
ENDCHAR
STARTCHAR 005A
ENCODING 90
SWIDTH 781 0
DWIDTH 125 0
BBX 111 92 7 0
BITMAP
003FFFFFFFFFFFFFFFFFFFFFF800
07FFFFFFFFFFFFFFFFFFFFFFFFC0
0FFFFFFFFFFFFFFFFFFFFFFFFFE0
1FFFFFFFFFFFFFFFFFFFFFFFFFF0
3FFFFFFFFFFFFFFFFFFFFFFFFFF8
7FFFFFFFFFFFFFFFFFFFFFFFFFFC
FFFFFFFFFFFFFFFFFFFFFFFFFFFE
FFFFFFFFFFFFFFFFFFFFFFFFFFFE
FFFFFFFFFFFFFFFFFFFFFFFFFFFE
FFFFFFFFFFFFFFFFFFFFFFFFFFFE
FFFFFFFFFFFFFFFFFFFFFFFFFFFE
FFFFFFFFFFFFFFFFFFFFFFFFFFFE
FFFFFFFFFFFFFFFFFFFFFFFFFFFE
FFFFFFFFFFFFFFFFFFFFFFFFFFFE
FFFFFFFFFFFFFFFFFFFFFFFFFFFE
7FFFFFFFFFFFFFFFFFFFFFFFFFFC
7FFFFFFFFFFFFFFFFFFFFFFFFFFC
3FFFFFFFFFFFFFFFFFFFFFFFFFF8
1FFFFFFFFFFFFFFFFFFFFFFFFFF0
0FFFFFFFFFFFFFFFFFFFFFFFFFE0
03FFFFFFFFFFFFFFFFFFFFFFFFC0
000000000000000000FFFFFFFF80
000000000000000003FFFFFFFE00
000000000000000007FFFFFFFC00
00000000000000000FFFFFFFF800
00000000000000003FFFFFFFE000
00000000000000007FFFFFFFC000
0000000000000000FFFFFFFF8000
0000000000000001FFFFFFFF0000
0000000000000007FFFFFFFC0000
000000000000000FFFFFFFF80000
000000000000001FFFFFFFF00000
000000000000007FFFFFFFC00000
00000000000000FFFFFFFF800000
00000000000001FFFFFFFF000000
00000000000007FFFFFFFE000000
0000000000000FFFFFFFF8000000
0000000000001FFFFFFFF0000000
0000000000007FFFFFFFE0000000
000000000000FFFFFFFF80000000
000000000001FFFFFFFF00000000
000000000003FFFFFFFE00000000
00000000000FFFFFFFFC00000000
00000000001FFFFFFFF000000000
00000000003FFFFFFFE000000000
0000000000FFFFFFFFC000000000
0000000001FFFFFFFF0000000000
0000000003FFFFFFFE0000000000
000000000FFFFFFFFC0000000000
000000001FFFFFFFF80000000000
000000003FFFFFFFE00000000000
000000007FFFFFFFC00000000000
00000001FFFFFFFF800000000000
00000003FFFFFFFE000000000000
00000007FFFFFFFC000000000000
0000001FFFFFFFF8000000000000
0000003FFFFFFFF0000000000000
0000007FFFFFFFC0000000000000
000001FFFFFFFF80000000000000
000003FFFFFFFF00000000000000
000007FFFFFFFC00000000000000
00001FFFFFFFF800000000000000
00003FFFFFFFF000000000000000
00007FFFFFFFE000000000000000
0000FFFFFFFF8000000000000000
0003FFFFFFFF0000000000000000
0007FFFFFFFE0000000000000000
000FFFFFFFF80000000000000000
003FFFFFFFF00000000000000000
007FFFFFFFE00000000000000000
00FFFFFFFFC00000000000000000
03FFFFFFFFFFFFFFFFFFFFFFFC00
07FFFFFFFFFFFFFFFFFFFFFFFFC0
0FFFFFFFFFFFFFFFFFFFFFFFFFE0
1FFFFFFFFFFFFFFFFFFFFFFFFFF8
3FFFFFFFFFFFFFFFFFFFFFFFFFF8
7FFFFFFFFFFFFFFFFFFFFFFFFFFC
FFFFFFFFFFFFFFFFFFFFFFFFFFFE
FFFFFFFFFFFFFFFFFFFFFFFFFFFE
FFFFFFFFFFFFFFFFFFFFFFFFFFFE
FFFFFFFFFFFFFFFFFFFFFFFFFFFE
FFFFFFFFFFFFFFFFFFFFFFFFFFFE
FFFFFFFFFFFFFFFFFFFFFFFFFFFE
FFFFFFFFFFFFFFFFFFFFFFFFFFFE
FFFFFFFFFFFFFFFFFFFFFFFFFFFE
FFFFFFFFFFFFFFFFFFFFFFFFFFFE
7FFFFFFFFFFFFFFFFFFFFFFFFFFC
7FFFFFFFFFFFFFFFFFFFFFFFFFFC
3FFFFFFFFFFFFFFFFFFFFFFFFFF8
1FFFFFFFFFFFFFFFFFFFFFFFFFF0
0FFFFFFFFFFFFFFFFFFFFFFFFFE0
03FFFFFFFFFFFFFFFFFFFFFFFF80
ENDCHAR
STARTCHAR 005B
ENCODING 91
SWIDTH 375 0
DWIDTH 60 0
BBX 37 156 16 -27
BITMAP
007FFFFFC0
01FFFFFFE0
07FFFFFFF0
0FFFFFFFF8
1FFFFFFFF8
3FFFFFFFF8
3FFFFFFFF8
7FFFFFFFF8
7FFFFFFFF0
FFFFFFFFF0
FFFFFFFFE0
FFFFFFFF80
FFFFC00000
FFFFC00000
FFFFC00000
FFFFC00000
FFFFC00000
FFFFC00000
FFFFC00000
FFFFC00000
FFFFC00000
FFFFC00000
FFFFC00000
FFFFC00000
FFFFC00000
FFFFC00000
FFFFC00000
FFFFC00000
FFFFC00000
FFFFC00000
FFFFC00000
FFFFC00000
FFFFC00000
FFFFC00000
FFFFC00000
FFFFC00000
FFFFC00000
FFFFC00000
FFFFC00000
FFFFC00000
FFFFC00000
FFFFC00000
FFFFC00000
FFFFC00000
FFFFC00000
FFFFC00000
FFFFC00000
FFFFC00000
FFFFC00000
FFFFC00000
FFFFC00000
FFFFC00000
FFFFC00000
FFFFC00000
FFFFC00000
FFFFC00000
FFFFC00000
FFFFC00000
FFFFC00000
FFFFC00000
FFFFC00000
FFFFC00000
FFFFC00000
FFFFC00000
FFFFC00000
FFFFC00000
FFFFC00000
FFFFC00000
FFFFC00000
FFFFC00000
FFFFC00000
FFFFC00000
FFFFC00000
FFFFC00000
FFFFC00000
FFFFC00000
FFFFC00000
FFFFC00000
FFFFC00000
FFFFC00000
FFFFC00000
FFFFC00000
FFFFC00000
FFFFC00000
FFFFC00000
FFFFC00000
FFFFC00000
FFFFC00000
FFFFC00000
FFFFC00000
FFFFC00000
FFFFC00000
FFFFC00000
FFFFC00000
FFFFC00000
FFFFC00000
FFFFC00000
FFFFC00000
FFFFC00000
FFFFC00000
FFFFC00000
FFFFC00000
FFFFC00000
FFFFC00000
FFFFC00000
FFFFC00000
FFFFC00000
FFFFC00000
FFFFC00000
FFFFC00000
FFFFC00000
FFFFC00000
FFFFC00000
FFFFC00000
FFFFC00000
FFFFC00000
FFFFC00000
FFFFC00000
FFFFC00000
FFFFC00000
FFFFC00000
FFFFC00000
FFFFC00000
FFFFC00000
FFFFC00000
FFFFC00000
FFFFC00000
FFFFC00000
FFFFC00000
FFFFC00000
FFFFC00000
FFFFC00000
FFFFC00000
FFFFC00000
FFFFC00000
FFFFC00000
FFFFC00000
FFFFC00000
FFFFC00000
FFFFC00000
FFFFC00000
FFFFC00000
FFFFC00000
FFFFFFFF80
FFFFFFFFE0
FFFFFFFFF0
7FFFFFFFF0
7FFFFFFFF8
3FFFFFFFF8
3FFFFFFFF8
1FFFFFFFF8
0FFFFFFFF8
07FFFFFFF0
03FFFFFFF0
01FFFFFFE0
003FFFFF80
ENDCHAR
STARTCHAR 005C
ENCODING 92
SWIDTH 387 0
DWIDTH 62 0
BBX 52 158 6 -30
BITMAP
06000000000000
1FE00000000000
3FF00000000000
7FF80000000000
FFFC0000000000
FFFE0000000000
FFFE0000000000
FFFF0000000000
7FFF0000000000
7FFF0000000000
7FFF8000000000
7FFF8000000000
3FFF8000000000
3FFF8000000000
3FFFC000000000
3FFFC000000000
1FFFC000000000
1FFFC000000000
1FFFE000000000
1FFFE000000000
0FFFE000000000
0FFFE000000000
0FFFF000000000
0FFFF000000000
07FFF000000000
07FFF000000000
07FFF800000000
07FFF800000000
03FFF800000000
03FFF800000000
03FFFC00000000
03FFFC00000000
01FFFC00000000
01FFFC00000000
01FFFE00000000
01FFFE00000000
00FFFE00000000
00FFFE00000000
00FFFF00000000
00FFFF00000000
007FFF00000000
007FFF00000000
007FFF80000000
007FFF80000000
003FFF80000000
003FFF80000000
003FFFC0000000
003FFFC0000000
001FFFC0000000
001FFFC0000000
001FFFE0000000
001FFFE0000000
000FFFE0000000
000FFFE0000000
000FFFF0000000
000FFFF0000000
0007FFF0000000
0007FFF0000000
0007FFF8000000
0007FFF8000000
0003FFF8000000
0003FFF8000000
0003FFFC000000
0003FFFC000000
0001FFFC000000
0001FFFC000000
0001FFFE000000
0001FFFE000000
0000FFFE000000
0000FFFE000000
0000FFFF000000
0000FFFF000000
00007FFF000000
00007FFF000000
00007FFF800000
00007FFF800000
00003FFF800000
00003FFF800000
00003FFFC00000
00003FFFC00000
00001FFFC00000
00001FFFC00000
00001FFFE00000
00001FFFE00000
00000FFFE00000
00000FFFE00000
00000FFFF00000
00000FFFF00000
000007FFF00000
000007FFF00000
000007FFF80000
000007FFF80000
000003FFF80000
000003FFF80000
000003FFFC0000
000003FFFC0000
000001FFFC0000
000001FFFE0000
000001FFFE0000
000001FFFE0000
000000FFFE0000
000000FFFF0000
000000FFFF0000
000000FFFF0000
0000007FFF0000
0000007FFF8000
0000007FFF8000
0000007FFF8000
0000003FFF8000
0000003FFFC000
0000003FFFC000
0000003FFFC000
0000001FFFC000
0000001FFFE000
0000001FFFE000
0000001FFFE000
0000000FFFE000
0000000FFFF000
0000000FFFF000
0000000FFFF000
00000007FFF000
00000007FFF800
00000007FFF800
00000007FFF800
00000003FFF800
00000003FFFC00
00000003FFFC00
00000003FFFC00
00000001FFFC00
00000001FFFE00
00000001FFFE00
00000001FFFE00
00000000FFFE00
00000000FFFF00
00000000FFFF00
00000000FFFF00
000000007FFF00
000000007FFF80
000000007FFF80
000000007FFF80
000000003FFF80
000000003FFFC0
000000003FFFC0
000000003FFFC0
000000001FFFC0
000000001FFFE0
000000001FFFE0
000000001FFFE0
000000000FFFE0
000000000FFFF0
000000000FFFF0
000000000FFFF0
0000000007FFF0
0000000007FFF0
0000000003FFF0
0000000001FFE0
0000000000FFC0
00000000003F80
ENDCHAR
STARTCHAR 005D
ENCODING 93
SWIDTH 375 0
DWIDTH 60 0
BBX 37 156 8 -28
BITMAP
0FFFFFE000
3FFFFFFC00
7FFFFFFE00
7FFFFFFF00
FFFFFFFF80
FFFFFFFFC0
FFFFFFFFE0
FFFFFFFFF0
FFFFFFFFF0
7FFFFFFFF0
7FFFFFFFF8
3FFFFFFFF8
0FFFFFFFF8
00001FFFF8
00001FFFF8
00001FFFF8
00001FFFF8
00001FFFF8
00001FFFF8
00001FFFF8
00001FFFF8
00001FFFF8
00001FFFF8
00001FFFF8
00001FFFF8
00001FFFF8
00001FFFF8
00001FFFF8
00001FFFF8
00001FFFF8
00001FFFF8
00001FFFF8
00001FFFF8
00001FFFF8
00001FFFF8
00001FFFF8
00001FFFF8
00001FFFF8
00001FFFF8
00001FFFF8
00001FFFF8
00001FFFF8
00001FFFF8
00001FFFF8
00001FFFF8
00001FFFF8
00001FFFF8
00001FFFF8
00001FFFF8
00001FFFF8
00001FFFF8
00001FFFF8
00001FFFF8
00001FFFF8
00001FFFF8
00001FFFF8
00001FFFF8
00001FFFF8
00001FFFF8
00001FFFF8
00001FFFF8
00001FFFF8
00001FFFF8
00001FFFF8
00001FFFF8
00001FFFF8
00001FFFF8
00001FFFF8
00001FFFF8
00001FFFF8
00001FFFF8
00001FFFF8
00001FFFF8
00001FFFF8
00001FFFF8
00001FFFF8
00001FFFF8
00001FFFF8
00001FFFF8
00001FFFF8
00001FFFF8
00001FFFF8
00001FFFF8
00001FFFF8
00001FFFF8
00001FFFF8
00001FFFF8
00001FFFF8
00001FFFF8
00001FFFF8
00001FFFF8
00001FFFF8
00001FFFF8
00001FFFF8
00001FFFF8
00001FFFF8
00001FFFF8
00001FFFF8
00001FFFF8
00001FFFF8
00001FFFF8
00001FFFF8
00001FFFF8
00001FFFF8
00001FFFF8
00001FFFF8
00001FFFF8
00001FFFF8
00001FFFF8
00001FFFF8
00001FFFF8
00001FFFF8
00001FFFF8
00001FFFF8
00001FFFF8
00001FFFF8
00001FFFF8
00001FFFF8
00001FFFF8
00001FFFF8
00001FFFF8
00001FFFF8
00001FFFF8
00001FFFF8
00001FFFF8
00001FFFF8
00001FFFF8
00001FFFF8
00001FFFF8
00001FFFF8
00001FFFF8
00001FFFF8
00001FFFF8
00001FFFF8
00001FFFF8
00001FFFF8
00001FFFF8
00001FFFF8
00001FFFF8
00001FFFF8
00001FFFF8
00001FFFF8
00001FFFF8
0FFFFFFFF8
3FFFFFFFF8
7FFFFFFFF8
7FFFFFFFF0
FFFFFFFFF0
FFFFFFFFF0
FFFFFFFFE0
FFFFFFFFC0
FFFFFFFF80
7FFFFFFF00
7FFFFFFE00
3FFFFFFC00
0FFFFFE000
ENDCHAR
STARTCHAR 005E
ENCODING 94
SWIDTH 587 0
DWIDTH 94 0
BBX 69 72 13 50
BITMAP
000000006000000000
00000007FF00000000
0000001FFFC0000000
0000007FFFE0000000
000000FFFFF0000000
000001FFFFF8000000
000003FFFFFC000000
000003FFFFFC000000
000007FFFFFE000000
000007FFFFFE000000
00000FFFFFFF000000
00000FFFFFFF000000
00000FFFFFFF800000
00001FFFFFFF800000
00001FFFFFFF800000
00003FFFFFFFC00000
00003FFFFFFFC00000
00003FFFFFFFC00000
00007FFFFFFFE00000
00007FFFFFFFE00000
00007FFFFFFFF00000
0000FFFFFFFFF00000
0000FFFF9FFFF00000
0001FFFF9FFFF80000
0001FFFF8FFFF80000
0001FFFF0FFFFC0000
0003FFFF0FFFFC0000
0003FFFF07FFFC0000
0007FFFE07FFFE0000
0007FFFE07FFFE0000
0007FFFE03FFFF0000
000FFFFC03FFFF0000
000FFFFC03FFFF0000
001FFFFC01FFFF8000
001FFFF801FFFF8000
001FFFF801FFFFC000
003FFFF800FFFFC000
003FFFF000FFFFC000
003FFFF000FFFFE000
007FFFF0007FFFE000
007FFFE0007FFFF000
00FFFFE0007FFFF000
00FFFFE0003FFFF000
00FFFFC0003FFFF800
01FFFFC0003FFFF800
01FFFFC0001FFFF800
03FFFF80001FFFFC00
03FFFF80001FFFFC00
03FFFF80000FFFFE00
07FFFF00000FFFFE00
07FFFF00000FFFFE00
0FFFFF000007FFFF00
0FFFFE000007FFFF00
0FFFFE000007FFFF80
1FFFFC000003FFFF80
1FFFFC000003FFFF80
1FFFFC000001FFFFC0
3FFFF8000001FFFFC0
3FFFF8000001FFFFE0
7FFFF8000000FFFFE0
7FFFF0000000FFFFE0
7FFFF0000000FFFFF0
FFFFF00000007FFFF0
FFFFE00000007FFFF0
FFFFE00000003FFFF8
FFFFC00000003FFFF8
FFFF800000001FFFF8
FFFF800000000FFFF0
7FFE0000000007FFF0
7FFC0000000003FFE0
3FF00000000000FFC0
0F8000000000001F00
ENDCHAR
STARTCHAR 005F
ENCODING 95
SWIDTH 568 0
DWIDTH 91 0
BBX 87 14 2 -25
BITMAP
0FFFFFFFFFFFFFFFFFFFC0
1FFFFFFFFFFFFFFFFFFFF0
3FFFFFFFFFFFFFFFFFFFF8
7FFFFFFFFFFFFFFFFFFFFC
7FFFFFFFFFFFFFFFFFFFFC
FFFFFFFFFFFFFFFFFFFFFC
FFFFFFFFFFFFFFFFFFFFFE
FFFFFFFFFFFFFFFFFFFFFE
FFFFFFFFFFFFFFFFFFFFFC
7FFFFFFFFFFFFFFFFFFFFC
7FFFFFFFFFFFFFFFFFFFFC
3FFFFFFFFFFFFFFFFFFFF8
1FFFFFFFFFFFFFFFFFFFF0
0FFFFFFFFFFFFFFFFFFFC0
ENDCHAR
STARTCHAR 0060
ENCODING 96
SWIDTH 625 0
DWIDTH 100 0
BBX 36 36 22 107
BITMAP
00FC000000
03FF000000
0FFFC00000
1FFFE00000
3FFFF00000
3FFFF00000
7FFFF80000
7FFFFC0000
7FFFFE0000
7FFFFF0000
FFFFFF8000
7FFFFF8000
7FFFFFC000
7FFFFFE000
7FFFFFF000
3FFFFFF800
3FFFFFFC00
1FFFFFFE00
0FFFFFFE00
07FFFFFF00
01FFFFFF80
00FFFFFFC0
007FFFFFE0
003FFFFFE0
001FFFFFF0
000FFFFFF0
0007FFFFF0
0003FFFFF0
0000FFFFF0
00007FFFF0
00003FFFE0
00001FFFE0
00000FFFC0
000007FF80
000003FF00
0000007800
ENDCHAR
STARTCHAR 0061
ENCODING 97
SWIDTH 806 0
DWIDTH 129 0
BBX 110 73 8 -1
BITMAP
0000001FFFFFFFFFFFFFFFFFFF00
000003FFFFFFFFFFFFFFFFFFFFC0
00001FFFFFFFFFFFFFFFFFFFFFE0
00007FFFFFFFFFFFFFFFFFFFFFF0
0001FFFFFFFFFFFFFFFFFFFFFFF8
0003FFFFFFFFFFFFFFFFFFFFFFF8
0007FFFFFFFFFFFFFFFFFFFFFFFC
000FFFFFFFFFFFFFFFFFFFFFFFFC
001FFFFFFFFFFFFFFFFFFFFFFFFC
003FFFFFFFFFFFFFFFFFFFFFFFFC
007FFFFFFFFFFFFFFFFFFFFFFFFC
00FFFFFFFFFFFFFFFFFFFFFFFFFC
01FFFFFFFFFFFFFFFFFFFFFFFFFC
03FFFFFFFFFFFFFFFFFFFFFFFFFC
03FFFFFFFFFFFFFFFFFFFFFFFFFC
07FFFFFFFFFFFFFFFFFFFFFFFFFC
07FFFFFFFFFFFFFFFFFFFFFFFFFC
0FFFFFFFFFFFFFFFFFFFFFFFFFFC
0FFFFFFFFFFFFFFFFFFFFFFFFFFC
1FFFFFFFFFFFFFFFFFFFFFFFFFFC
1FFFFFFFFFFFFFFFFFFFFFFFFFFC
3FFFFFF000000000000000FFFFFC
3FFFFFC0000000000000007FFFFC
3FFFFF80000000000000007FFFFC
7FFFFF00000000000000007FFFFC
7FFFFF00000000000000007FFFFC
7FFFFE00000000000000007FFFFC
7FFFFE00000000000000007FFFFC
FFFFFC00000000000000007FFFFC
FFFFFC00000000000000007FFFFC
FFFFFC00000000000000007FFFFC
FFFFF800000000000000007FFFFC
FFFFF800000000000000007FFFFC
FFFFF800000000000000007FFFFC
FFFFF800000000000000007FFFFC
FFFFF800000000000000007FFFFC
FFFFF800000000000000007FFFFC
FFFFF800000000000000007FFFFC
FFFFF800000000000000007FFFFC
FFFFF800000000000000007FFFFC
FFFFFC00000000000000007FFFFC
FFFFFC00000000000000007FFFFC
FFFFFC00000000000000007FFFFC
7FFFFE00000000000000007FFFFC
7FFFFE00000000000000007FFFFC
7FFFFF00000000000000007FFFFC
7FFFFF80000000000000007FFFFC
3FFFFF80000000000000007FFFFC
3FFFFFE0000000000000007FFFFC
3FFFFFF8000000000000007FFFFC
1FFFFFFFFFFFFFFFFFC0007FFFFC
1FFFFFFFFFFFFFFFFFF0007FFFFC
0FFFFFFFFFFFFFFFFFFC007FFFFC
0FFFFFFFFFFFFFFFFFFC007FFFFC
07FFFFFFFFFFFFFFFFFE007FFFFC
07FFFFFFFFFFFFFFFFFF007FFFFC
03FFFFFFFFFFFFFFFFFF007FFFFC
03FFFFFFFFFFFFFFFFFF807FFFFC
01FFFFFFFFFFFFFFFFFF807FFFFC
00FFFFFFFFFFFFFFFFFF807FFFFC
007FFFFFFFFFFFFFFFFF807FFFFC
003FFFFFFFFFFFFFFFFF807FFFFC
001FFFFFFFFFFFFFFFFF807FFFFC
000FFFFFFFFFFFFFFFFF007FFFFC
0007FFFFFFFFFFFFFFFF003FFFFC
0003FFFFFFFFFFFFFFFE003FFFFC
0000FFFFFFFFFFFFFFFE003FFFF8
00007FFFFFFFFFFFFFFC001FFFF8
00001FFFFFFFFFFFFFF8001FFFF0
000003FFFFFFFFFFFFE0000FFFE0
00000007FFFFFFFFFF800007FFC0
000000000000000000000001FF00
0000000000000000000000001000
ENDCHAR
STARTCHAR 0062
ENCODING 98
SWIDTH 793 0
DWIDTH 127 0
BBX 110 95 10 0
BITMAP
01F8000000000000000000000000
07FF000000000000000000000000
1FFF800000000000000000000000
3FFFC00000000000000000000000
3FFFE00000000000000000000000
7FFFF00000000000000000000000
FFFFF00000000000000000000000
FFFFF00000000000000000000000
FFFFF80000000000000000000000
FFFFF80000000000000000000000
FFFFF80000000000000000000000
FFFFF80000000000000000000000
FFFFF80000000000000000000000
FFFFF80000000000000000000000
FFFFF80000000000000000000000
FFFFF80000000000000000000000
FFFFF80000000000000000000000
FFFFF80000000000000000000000
FFFFF80000000000000000000000
FFFFF80000000000000000000000
FFFFF80000000000000000000000
FFFFF80000000000000000000000
FFFFF80000000000000000000000
FFFFF80000000000000000000000
FFFFF8000FFFFFFFFFFFFC000000
FFFFF8003FFFFFFFFFFFFF800000
FFFFF8007FFFFFFFFFFFFFF00000
FFFFF800FFFFFFFFFFFFFFFC0000
FFFFF801FFFFFFFFFFFFFFFE0000
FFFFF803FFFFFFFFFFFFFFFF8000
FFFFF803FFFFFFFFFFFFFFFFC000
FFFFF803FFFFFFFFFFFFFFFFE000
FFFFF807FFFFFFFFFFFFFFFFF000
FFFFF807FFFFFFFFFFFFFFFFF800
FFFFF807FFFFFFFFFFFFFFFFFC00
FFFFF807FFFFFFFFFFFFFFFFFE00
FFFFF807FFFFFFFFFFFFFFFFFE00
FFFFF803FFFFFFFFFFFFFFFFFF00
FFFFF803FFFFFFFFFFFFFFFFFF80
FFFFF801FFFFFFFFFFFFFFFFFF80
FFFFF801FFFFFFFFFFFFFFFFFFC0
FFFFF800FFFFFFFFFFFFFFFFFFC0
FFFFF8007FFFFFFFFFFFFFFFFFE0
FFFFF8001FFFFFFFFFFFFFFFFFE0
FFFFF80003FFFFFFFFFFFFFFFFF0
FFFFF8000000000000001FFFFFF0
FFFFF8000000000000000FFFFFF0
FFFFF80000000000000007FFFFF8
FFFFF80000000000000003FFFFF8
FFFFF80000000000000001FFFFF8
FFFFF80000000000000001FFFFF8
FFFFF80000000000000000FFFFFC
FFFFF80000000000000000FFFFFC
FFFFF80000000000000000FFFFFC
FFFFF800000000000000007FFFFC
FFFFF800000000000000007FFFFC
FFFFF800000000000000007FFFFC
FFFFF800000000000000007FFFFC
FFFFF800000000000000007FFFFC
FFFFF800000000000000007FFFFC
FFFFF800000000000000007FFFFC
FFFFF800000000000000007FFFFC
FFFFF800000000000000007FFFFC
FFFFF800000000000000007FFFFC
FFFFF80000000000000000FFFFFC
FFFFF80000000000000000FFFFFC
FFFFF80000000000000000FFFFFC
FFFFF80000000000000001FFFFF8
FFFFF80000000000000001FFFFF8
FFFFF80000000000000003FFFFF8
FFFFF80000000000000007FFFFF8
FFFFF80000000000000007FFFFF0
FFFFFC000000000000001FFFFFF0
FFFFFF000000000000007FFFFFF0
FFFFFFFFFFFFFFFFFFFFFFFFFFE0
FFFFFFFFFFFFFFFFFFFFFFFFFFE0
FFFFFFFFFFFFFFFFFFFFFFFFFFC0
FFFFFFFFFFFFFFFFFFFFFFFFFFC0
FFFFFFFFFFFFFFFFFFFFFFFFFF80
FFFFFFFFFFFFFFFFFFFFFFFFFF80
FFFFFFFFFFFFFFFFFFFFFFFFFF00
FFFFFFFFFFFFFFFFFFFFFFFFFE00
FFFFFFFFFFFFFFFFFFFFFFFFFE00
FFFFFFFFFFFFFFFFFFFFFFFFFC00
FFFFFFFFFFFFFFFFFFFFFFFFF800
FFFFFFFFFFFFFFFFFFFFFFFFF000
FFFFFFFFFFFFFFFFFFFFFFFFE000
FFFFFFFFFFFFFFFFFFFFFFFFC000
7FFFFFFFFFFFFFFFFFFFFFFF8000
7FFFFFFFFFFFFFFFFFFFFFFE0000
3FFFFFFFFFFFFFFFFFFFFFFC0000
1FFFFFFFFFFFFFFFFFFFFFF00000
0FFFFFFFFFFFFFFFFFFFFF800000
07FFFFFFFFFFFFFFFFFFFC000000
007FFFFFFFFFFFFFFFFE00000000
ENDCHAR
STARTCHAR 0063
ENCODING 99
SWIDTH 718 0
DWIDTH 115 0
BBX 102 71 7 1
BITMAP
0000007FFFFFFFFFFFFFFFFE00
000007FFFFFFFFFFFFFFFFFF80
00001FFFFFFFFFFFFFFFFFFFC0
00007FFFFFFFFFFFFFFFFFFFE0
0000FFFFFFFFFFFFFFFFFFFFF0
0003FFFFFFFFFFFFFFFFFFFFF0
0007FFFFFFFFFFFFFFFFFFFFF8
000FFFFFFFFFFFFFFFFFFFFFF8
001FFFFFFFFFFFFFFFFFFFFFF8
003FFFFFFFFFFFFFFFFFFFFFFC
007FFFFFFFFFFFFFFFFFFFFFFC
00FFFFFFFFFFFFFFFFFFFFFFFC
01FFFFFFFFFFFFFFFFFFFFFFF8
01FFFFFFFFFFFFFFFFFFFFFFF8
03FFFFFFFFFFFFFFFFFFFFFFF8
07FFFFFFFFFFFFFFFFFFFFFFF0
07FFFFFFFFFFFFFFFFFFFFFFF0
0FFFFFFFFFFFFFFFFFFFFFFFE0
0FFFFFFFFFFFFFFFFFFFFFFFC0
0FFFFFFFFFFFFFFFFFFFFFFF00
1FFFFFFFFFFFFFFFFFFFFFF800
1FFFFFF0000000000000000000
3FFFFFE0000000000000000000
3FFFFFC0000000000000000000
3FFFFF80000000000000000000
3FFFFF00000000000000000000
7FFFFF00000000000000000000
7FFFFE00000000000000000000
7FFFFE00000000000000000000
7FFFFE00000000000000000000
7FFFFC00000000000000000000
7FFFFC00000000000000000000
7FFFFC00000000000000000000
7FFFFC00000000000000000000
FFFFFC00000000000000000000
FFFFFC00000000000000000000
7FFFFC00000000000000000000
7FFFFC00000000000000000000
7FFFFC00000000000000000000
7FFFFC00000000000000000000
7FFFFC00000000000000000000
7FFFFE00000000000000000000
7FFFFE00000000000000000000
7FFFFE00000000000000000000
3FFFFF00000000000000000000
3FFFFF80000000000000000000
3FFFFF80000000000000000000
3FFFFFC0000000000000000000
1FFFFFE0000000000000000000
1FFFFFFC000000000000000000
0FFFFFFFFFFFFFFFFFFFFFFE00
0FFFFFFFFFFFFFFFFFFFFFFF80
0FFFFFFFFFFFFFFFFFFFFFFFC0
07FFFFFFFFFFFFFFFFFFFFFFE0
03FFFFFFFFFFFFFFFFFFFFFFF0
03FFFFFFFFFFFFFFFFFFFFFFF0
01FFFFFFFFFFFFFFFFFFFFFFF8
01FFFFFFFFFFFFFFFFFFFFFFF8
00FFFFFFFFFFFFFFFFFFFFFFF8
007FFFFFFFFFFFFFFFFFFFFFFC
003FFFFFFFFFFFFFFFFFFFFFFC
001FFFFFFFFFFFFFFFFFFFFFFC
000FFFFFFFFFFFFFFFFFFFFFF8
0007FFFFFFFFFFFFFFFFFFFFF8
0003FFFFFFFFFFFFFFFFFFFFF8
0001FFFFFFFFFFFFFFFFFFFFF0
00007FFFFFFFFFFFFFFFFFFFE0
00001FFFFFFFFFFFFFFFFFFFE0
000007FFFFFFFFFFFFFFFFFF80
0000007FFFFFFFFFFFFFFFFF00
00000001FFFFFFFFFFFFFFF800
ENDCHAR
STARTCHAR 0064
ENCODING 100
SWIDTH 806 0
DWIDTH 129 0
BBX 111 95 7 0
BITMAP
0000000000000000000000007F00
000000000000000000000001FFC0
000000000000000000000007FFE0
00000000000000000000000FFFF0
00000000000000000000000FFFF8
00000000000000000000001FFFFC
00000000000000000000001FFFFC
00000000000000000000003FFFFE
00000000000000000000003FFFFE
00000000000000000000003FFFFE
00000000000000000000003FFFFE
00000000000000000000003FFFFE
00000000000000000000003FFFFE
00000000000000000000003FFFFE
00000000000000000000003FFFFE
00000000000000000000003FFFFE
00000000000000000000003FFFFE
00000000000000000000003FFFFE
00000000000000000000003FFFFE
00000000000000000000003FFFFE
00000000000000000000003FFFFE
00000000000000000000003FFFFE
00000000000000000000003FFFFE
00000000000000000000003FFFFE
0000007FFFFFFFFFFFE0003FFFFE
000007FFFFFFFFFFFFF8003FFFFE
00001FFFFFFFFFFFFFFC003FFFFE
00007FFFFFFFFFFFFFFE003FFFFE
0000FFFFFFFFFFFFFFFF003FFFFE
0003FFFFFFFFFFFFFFFF003FFFFE
0007FFFFFFFFFFFFFFFF803FFFFE
000FFFFFFFFFFFFFFFFF803FFFFE
001FFFFFFFFFFFFFFFFF803FFFFE
003FFFFFFFFFFFFFFFFFC03FFFFE
007FFFFFFFFFFFFFFFFFC03FFFFE
00FFFFFFFFFFFFFFFFFFC03FFFFE
01FFFFFFFFFFFFFFFFFF803FFFFE
01FFFFFFFFFFFFFFFFFF803FFFFE
03FFFFFFFFFFFFFFFFFF803FFFFE
07FFFFFFFFFFFFFFFFFF003FFFFE
07FFFFFFFFFFFFFFFFFF003FFFFE
0FFFFFFFFFFFFFFFFFFE003FFFFE
0FFFFFFFFFFFFFFFFFFC003FFFFE
0FFFFFFFFFFFFFFFFFF0003FFFFE
1FFFFFFFFFFFFFFFFF80003FFFFE
1FFFFFF0000000000000003FFFFE
3FFFFFE0000000000000003FFFFE
3FFFFFC0000000000000003FFFFE
3FFFFF80000000000000003FFFFE
3FFFFF00000000000000003FFFFE
7FFFFF00000000000000003FFFFE
7FFFFE00000000000000003FFFFE
7FFFFE00000000000000003FFFFE
7FFFFE00000000000000003FFFFE
7FFFFC00000000000000003FFFFE
7FFFFC00000000000000003FFFFE
7FFFFC00000000000000003FFFFE
7FFFFC00000000000000003FFFFE
FFFFFC00000000000000003FFFFE
FFFFFC00000000000000003FFFFE
7FFFFC00000000000000003FFFFE
7FFFFC00000000000000003FFFFE
7FFFFC00000000000000003FFFFE
7FFFFC00000000000000003FFFFE
7FFFFC00000000000000003FFFFE
7FFFFE00000000000000003FFFFE
7FFFFE00000000000000003FFFFE
7FFFFE00000000000000003FFFFE
3FFFFF00000000000000003FFFFE
3FFFFF80000000000000003FFFFE
3FFFFF80000000000000003FFFFE
3FFFFFC0000000000000003FFFFE
1FFFFFE0000000000000007FFFFE
1FFFFFFC00000000000001FFFFFE
0FFFFFFFFFFFFFFFFFFFFFFFFFFE
0FFFFFFFFFFFFFFFFFFFFFFFFFFE
0FFFFFFFFFFFFFFFFFFFFFFFFFFE
07FFFFFFFFFFFFFFFFFFFFFFFFFE
03FFFFFFFFFFFFFFFFFFFFFFFFFE
03FFFFFFFFFFFFFFFFFFFFFFFFFE
01FFFFFFFFFFFFFFFFFFFFFFFFFE
01FFFFFFFFFFFFFFFFFFFFFFFFFE
00FFFFFFFFFFFFFFFFFFFFFFFFFE
007FFFFFFFFFFFFFFFFFFFFFFFFE
003FFFFFFFFFFFFFFFFFFFFFFFFE
001FFFFFFFFFFFFFFFFFFFFFFFFE
000FFFFFFFFFFFFFFFFFFFFFFFFE
0007FFFFFFFFFFFFFFFFFFFFFFFC
0003FFFFFFFFFFFFFFFFFFFFFFFC
0001FFFFFFFFFFFFFFFFFFFFFFFC
00007FFFFFFFFFFFFFFFFFFFFFF8
00001FFFFFFFFFFFFFFFFFFFFFF0
000007FFFFFFFFFFFFFFFFFFFFE0
0000007FFFFFFFFFFFFFFFFFFF80
00000001FFFFFFFFFFFFFFFFFC00
ENDCHAR
STARTCHAR 0065
ENCODING 101
SWIDTH 731 0
DWIDTH 117 0
BBX 101 70 8 1
BITMAP
0000003FFFFFFFFFFFFFFFFC00
000007FFFFFFFFFFFFFFFFFF00
00001FFFFFFFFFFFFFFFFFFF80
00007FFFFFFFFFFFFFFFFFFFC0
0001FFFFFFFFFFFFFFFFFFFFE0
0003FFFFFFFFFFFFFFFFFFFFF0
0007FFFFFFFFFFFFFFFFFFFFF0
001FFFFFFFFFFFFFFFFFFFFFF8
003FFFFFFFFFFFFFFFFFFFFFF8
007FFFFFFFFFFFFFFFFFFFFFF8
00FFFFFFFFFFFFFFFFFFFFFFF8
00FFFFFFFFFFFFFFFFFFFFFFF8
01FFFFFFFFFFFFFFFFFFFFFFF8
03FFFFFFFFFFFFFFFFFFFFFFF0
07FFFFFFFFFFFFFFFFFFFFFFF0
07FFFFFFFFFFFFFFFFFFFFFFE0
0FFFFFFFFFFFFFFFFFFFFFFFC0
0FFFFFFFFFFFFFFFFFFFFFFF80
1FFFFFFFFFFFFFFFFFFFFFFF00
1FFFFFFFFFFFFFFFFFFFFFFC00
3FFFFFF8000000000000000000
3FFFFFE0000000000000000000
3FFFFFC0000000000000000000
7FFFFF80000000000000000000
7FFFFF00000000000000000000
7FFFFE00000000000000000000
7FFFFE00000000000000000000
FFFFFC00000000000000000000
FFFFFC000FFFFFFFFFFFFFFC00
FFFFFC003FFFFFFFFFFFFFFF00
FFFFFC007FFFFFFFFFFFFFFF80
FFFFF800FFFFFFFFFFFFFFFFC0
FFFFF801FFFFFFFFFFFFFFFFC0
FFFFF801FFFFFFFFFFFFFFFFE0
FFFFF801FFFFFFFFFFFFFFFFE0
FFFFF801FFFFFFFFFFFFFFFFE0
FFFFF801FFFFFFFFFFFFFFFFE0
FFFFF801FFFFFFFFFFFFFFFFC0
FFFFF800FFFFFFFFFFFFFFFFC0
FFFFF8007FFFFFFFFFFFFFFF80
FFFFFC003FFFFFFFFFFFFFFF00
FFFFFC000FFFFFFFFFFFFFFC00
7FFFFC00000000000000000000
7FFFFC00000000000000000000
7FFFFE00000000000000000000
7FFFFE00000000000000000000
3FFFFF00000000000000000000
3FFFFF80000000000000000000
3FFFFFC0000000000000000000
1FFFFFE0000000000000000000
1FFFFFF8000000000000000000
0FFFFFFFFFFFFFFFFFFFFFFC00
0FFFFFFFFFFFFFFFFFFFFFFF00
07FFFFFFFFFFFFFFFFFFFFFFC0
07FFFFFFFFFFFFFFFFFFFFFFE0
03FFFFFFFFFFFFFFFFFFFFFFE0
03FFFFFFFFFFFFFFFFFFFFFFF0
01FFFFFFFFFFFFFFFFFFFFFFF0
00FFFFFFFFFFFFFFFFFFFFFFF8
007FFFFFFFFFFFFFFFFFFFFFF8
003FFFFFFFFFFFFFFFFFFFFFF8
001FFFFFFFFFFFFFFFFFFFFFF8
000FFFFFFFFFFFFFFFFFFFFFF8
0007FFFFFFFFFFFFFFFFFFFFF0
0003FFFFFFFFFFFFFFFFFFFFF0
0000FFFFFFFFFFFFFFFFFFFFE0
00003FFFFFFFFFFFFFFFFFFFE0
00000FFFFFFFFFFFFFFFFFFF80
000001FFFFFFFFFFFFFFFFFF00
0000000FFFFFFFFFFFFFFFFC00
ENDCHAR
STARTCHAR 0066
ENCODING 102
SWIDTH 793 0
DWIDTH 127 0
BBX 113 95 7 -2
BITMAP
000000000000000FFFFFFFFFFE0000
00000000000007FFFFFFFFFFFFE000
0000000000003FFFFFFFFFFFFFF800
000000000000FFFFFFFFFFFFFFFC00
000000000003FFFFFFFFFFFFFFFE00
000000000007FFFFFFFFFFFFFFFF00
00000000001FFFFFFFFFFFFFFFFF00
00000000003FFFFFFFFFFFFFFFFF80
00000000007FFFFFFFFFFFFFFFFF80
0000000000FFFFFFFFFFFFFFFFFF80
0000000001FFFFFFFFFFFFFFFFFF80
0000000003FFFFFFFFFFFFFFFFFF80
0000000003FFFFFFFFFFFFFFFFFF80
0000000007FFFFFFFFFFFFFFFFFF80
000000000FFFFFFFFFFFFFFFFFFF80
000000000FFFFFFFFFFFFFFFFFFF00
000000001FFFFFFFFFFFFFFFFFFF00
000000003FFFFFFFFFFFFFFFFFFE00
000000003FFFFFFFFFFFFFFFFFFC00
000000007FFFFFFFFFFFFFFFFFF800
000000007FFFFFFFFFFFFFFFFFE000
000000007FFFFFFF80000000000000
00000000FFFFFFF000000000000000
00000000FFFFFFC000000000000000
00000001FFFFFF8000000000000000
00000001FFFFFF0000000000000000
00000001FFFFFE0000000000000000
00000001FFFFFC0000000000000000
00000003FFFFF80000000000000000
00000003FFFFF80000000000000000
00000003FFFFF00000000000000000
00000003FFFFF00000000000000000
00000007FFFFE00000000000000000
00000007FFFFE00000000000000000
00000007FFFFE00000000000000000
00000007FFFFC00000000000000000
00000007FFFFC00000000000000000
00000007FFFFC00000000000000000
00000007FFFFC00000000000000000
0000000FFFFFC00000000000000000
0000000FFFFFC00000000000000000
0000000FFFFF800000000000000000
007FFFFFFFFFFFFFFFFFFFFFFF0000
03FFFFFFFFFFFFFFFFFFFFFFFFE000
0FFFFFFFFFFFFFFFFFFFFFFFFFF800
1FFFFFFFFFFFFFFFFFFFFFFFFFFC00
3FFFFFFFFFFFFFFFFFFFFFFFFFFE00
7FFFFFFFFFFFFFFFFFFFFFFFFFFF00
7FFFFFFFFFFFFFFFFFFFFFFFFFFF00
FFFFFFFFFFFFFFFFFFFFFFFFFFFF00
FFFFFFFFFFFFFFFFFFFFFFFFFFFF80
FFFFFFFFFFFFFFFFFFFFFFFFFFFF80
FFFFFFFFFFFFFFFFFFFFFFFFFFFF80
FFFFFFFFFFFFFFFFFFFFFFFFFFFF80
FFFFFFFFFFFFFFFFFFFFFFFFFFFF80
FFFFFFFFFFFFFFFFFFFFFFFFFFFF80
FFFFFFFFFFFFFFFFFFFFFFFFFFFF00
7FFFFFFFFFFFFFFFFFFFFFFFFFFF00
7FFFFFFFFFFFFFFFFFFFFFFFFFFE00
3FFFFFFFFFFFFFFFFFFFFFFFFFFE00
1FFFFFFFFFFFFFFFFFFFFFFFFFFC00
0FFFFFFFFFFFFFFFFFFFFFFFFFF800
03FFFFFFFFFFFFFFFFFFFFFFFFE000
0000000FFFFF800000000000000000
0000000FFFFF800000000000000000
0000000FFFFF800000000000000000
0000000FFFFF800000000000000000
0000000FFFFF800000000000000000
0000000FFFFF800000000000000000
0000000FFFFF800000000000000000
0000000FFFFF800000000000000000
0000000FFFFF800000000000000000
0000000FFFFF800000000000000000
0000000FFFFF800000000000000000
0000000FFFFF800000000000000000
0000000FFFFF800000000000000000
0000000FFFFF800000000000000000
0000000FFFFF800000000000000000
0000000FFFFF800000000000000000
0000000FFFFF800000000000000000
0000000FFFFF800000000000000000
0000000FFFFF800000000000000000
0000000FFFFF800000000000000000
0000000FFFFF800000000000000000
0000000FFFFF800000000000000000
0000000FFFFF800000000000000000
00000007FFFF800000000000000000
00000007FFFF800000000000000000
00000007FFFF000000000000000000
00000003FFFF000000000000000000
00000003FFFE000000000000000000
00000001FFFC000000000000000000
000000007FF8000000000000000000
000000003FF0000000000000000000
000000000200000000000000000000
ENDCHAR
STARTCHAR 0067
ENCODING 103
SWIDTH 812 0
DWIDTH 130 0
BBX 111 107 8 -35
BITMAP
0000001FFFFFFFFFFFFFFFFFFF00
000003FFFFFFFFFFFFFFFFFFFFC0
00000FFFFFFFFFFFFFFFFFFFFFE0
00007FFFFFFFFFFFFFFFFFFFFFF0
0000FFFFFFFFFFFFFFFFFFFFFFF8
0003FFFFFFFFFFFFFFFFFFFFFFF8
0007FFFFFFFFFFFFFFFFFFFFFFFC
000FFFFFFFFFFFFFFFFFFFFFFFFC
001FFFFFFFFFFFFFFFFFFFFFFFFC
003FFFFFFFFFFFFFFFFFFFFFFFFE
007FFFFFFFFFFFFFFFFFFFFFFFFE
00FFFFFFFFFFFFFFFFFFFFFFFFFE
01FFFFFFFFFFFFFFFFFFFFFFFFFE
01FFFFFFFFFFFFFFFFFFFFFFFFFE
03FFFFFFFFFFFFFFFFFFFFFFFFFE
07FFFFFFFFFFFFFFFFFFFFFFFFFE
07FFFFFFFFFFFFFFFFFFFFFFFFFE
0FFFFFFFFFFFFFFFFFFFFFFFFFFE
0FFFFFFFFFFFFFFFFFFFFFFFFFFE
1FFFFFFFFFFFFFFFFFFFFFFFFFFE
1FFFFFFFFFFFFFFFFFFFFFFFFFFE
1FFFFFF000000000000000FFFFFE
3FFFFFC0000000000000007FFFFE
3FFFFF80000000000000007FFFFE
3FFFFF80000000000000007FFFFE
7FFFFF00000000000000007FFFFE
7FFFFE00000000000000007FFFFE
7FFFFE00000000000000007FFFFE
7FFFFE00000000000000007FFFFE
7FFFFC00000000000000007FFFFE
FFFFFC00000000000000007FFFFE
FFFFFC00000000000000007FFFFE
FFFFFC00000000000000007FFFFE
FFFFF800000000000000007FFFFE
FFFFF800000000000000007FFFFE
FFFFF800000000000000007FFFFE
FFFFF800000000000000007FFFFE
FFFFF800000000000000007FFFFE
FFFFFC00000000000000007FFFFE
FFFFFC00000000000000007FFFFE
FFFFFC00000000000000007FFFFE
7FFFFC00000000000000007FFFFE
7FFFFE00000000000000007FFFFE
7FFFFE00000000000000007FFFFE
7FFFFF00000000000000007FFFFE
7FFFFF00000000000000007FFFFE
3FFFFF80000000000000007FFFFE
3FFFFFC0000000000000007FFFFE
3FFFFFE0000000000000007FFFFE
1FFFFFF8000000000000007FFFFE
1FFFFFFFFFFFFFFFFFE0007FFFFE
1FFFFFFFFFFFFFFFFFF8007FFFFE
0FFFFFFFFFFFFFFFFFFC007FFFFE
0FFFFFFFFFFFFFFFFFFE007FFFFE
07FFFFFFFFFFFFFFFFFF007FFFFE
07FFFFFFFFFFFFFFFFFF007FFFFE
03FFFFFFFFFFFFFFFFFF807FFFFE
01FFFFFFFFFFFFFFFFFF807FFFFE
01FFFFFFFFFFFFFFFFFF807FFFFE
00FFFFFFFFFFFFFFFFFF807FFFFE
007FFFFFFFFFFFFFFFFF807FFFFE
003FFFFFFFFFFFFFFFFF807FFFFE
001FFFFFFFFFFFFFFFFF807FFFFE
000FFFFFFFFFFFFFFFFF807FFFFC
0007FFFFFFFFFFFFFFFF007FFFFC
0001FFFFFFFFFFFFFFFF007FFFFC
0000FFFFFFFFFFFFFFFE007FFFFC
00003FFFFFFFFFFFFFFC007FFFFC
00000FFFFFFFFFFFFFF8007FFFFC
000001FFFFFFFFFFFFF0007FFFFC
00000007FFFFFFFFFF80007FFFFC
0000000000000000000000FFFFFC
0000000000000000000000FFFFFC
0000000000000000000000FFFFF8
0000000000000000000000FFFFF8
0000000000000000000001FFFFF8
0000000000000000000001FFFFF8
0000000000000000000003FFFFF8
0000000000000000000003FFFFF0
0000000000000000000007FFFFF0
000000000000000000000FFFFFF0
000000000000000000001FFFFFF0
000000000000000000003FFFFFE0
000000000000000000007FFFFFE0
00000000000000000001FFFFFFE0
00000000000000000007FFFFFFC0
000003FFFFFFFFFFFFFFFFFFFFC0
00000FFFFFFFFFFFFFFFFFFFFF80
00003FFFFFFFFFFFFFFFFFFFFF80
00007FFFFFFFFFFFFFFFFFFFFF00
00007FFFFFFFFFFFFFFFFFFFFF00
0000FFFFFFFFFFFFFFFFFFFFFE00
0001FFFFFFFFFFFFFFFFFFFFFE00
0001FFFFFFFFFFFFFFFFFFFFFC00
0001FFFFFFFFFFFFFFFFFFFFF800
0001FFFFFFFFFFFFFFFFFFFFF800
0001FFFFFFFFFFFFFFFFFFFFF000
0001FFFFFFFFFFFFFFFFFFFFE000
0001FFFFFFFFFFFFFFFFFFFFC000
0001FFFFFFFFFFFFFFFFFFFF8000
0001FFFFFFFFFFFFFFFFFFFF0000
0000FFFFFFFFFFFFFFFFFFFE0000
0000FFFFFFFFFFFFFFFFFFF80000
00007FFFFFFFFFFFFFFFFFF00000
00003FFFFFFFFFFFFFFFFFC00000
00000FFFFFFFFFFFFFFFFE000000
000003FFFFFFFFFFFFFFE0000000
ENDCHAR
STARTCHAR 0068
ENCODING 104
SWIDTH 756 0
DWIDTH 121 0
BBX 101 97 10 -2
BITMAP
01FC0000000000000000000000
07FF0000000000000000000000
0FFF8000000000000000000000
1FFFC000000000000000000000
3FFFE000000000000000000000
7FFFF000000000000000000000
7FFFF000000000000000000000
FFFFF000000000000000000000
FFFFF800000000000000000000
FFFFF800000000000000000000
FFFFF800000000000000000000
FFFFF800000000000000000000
FFFFF800000000000000000000
FFFFF800000000000000000000
FFFFF800000000000000000000
FFFFF800000000000000000000
FFFFF800000000000000000000
FFFFF800000000000000000000
FFFFF800000000000000000000
FFFFF800000000000000000000
FFFFF800000000000000000000
FFFFF800000000000000000000
FFFFF800000000000000000000
FFFFF800000000000000000000
FFFFFFFFFFFFFFFFFFF0000000
FFFFFFFFFFFFFFFFFFFF000000
FFFFFFFFFFFFFFFFFFFFC00000
FFFFFFFFFFFFFFFFFFFFF00000
FFFFFFFFFFFFFFFFFFFFFC0000
FFFFFFFFFFFFFFFFFFFFFE0000
FFFFFFFFFFFFFFFFFFFFFF0000
FFFFFFFFFFFFFFFFFFFFFF8000
FFFFFFFFFFFFFFFFFFFFFFC000
FFFFFFFFFFFFFFFFFFFFFFE000
FFFFFFFFFFFFFFFFFFFFFFF000
FFFFFFFFFFFFFFFFFFFFFFF800
FFFFFFFFFFFFFFFFFFFFFFFC00
FFFFFFFFFFFFFFFFFFFFFFFC00
FFFFFFFFFFFFFFFFFFFFFFFE00
FFFFFFFFFFFFFFFFFFFFFFFF00
FFFFFFFFFFFFFFFFFFFFFFFF00
FFFFFFFFFFFFFFFFFFFFFFFF80
FFFFFFFFFFFFFFFFFFFFFFFF80
FFFFFFFFFFFFFFFFFFFFFFFFC0
FFFFFFFFFFFFFFFFFFFFFFFFC0
FFFFF80000000000007FFFFFC0
FFFFF80000000000001FFFFFE0
FFFFF80000000000001FFFFFE0
FFFFF80000000000000FFFFFE0
FFFFF800000000000007FFFFE0
FFFFF800000000000007FFFFF0
FFFFF800000000000003FFFFF0
FFFFF800000000000003FFFFF0
FFFFF800000000000001FFFFF0
FFFFF800000000000001FFFFF0
FFFFF800000000000001FFFFF0
FFFFF800000000000001FFFFF8
FFFFF800000000000000FFFFF8
FFFFF800000000000000FFFFF8
FFFFF800000000000000FFFFF8
FFFFF800000000000000FFFFF8
FFFFF800000000000000FFFFF8
FFFFF800000000000000FFFFF8
FFFFF800000000000000FFFFF8
FFFFF800000000000000FFFFF8
FFFFF800000000000000FFFFF8
FFFFF800000000000000FFFFF8
FFFFF800000000000000FFFFF8
FFFFF800000000000000FFFFF8
FFFFF800000000000000FFFFF8
FFFFF800000000000000FFFFF8
FFFFF800000000000000FFFFF8
FFFFF800000000000000FFFFF8
FFFFF800000000000000FFFFF8
FFFFF800000000000000FFFFF8
FFFFF800000000000000FFFFF8
FFFFF800000000000000FFFFF8
FFFFF800000000000000FFFFF8
FFFFF800000000000000FFFFF8
FFFFF800000000000000FFFFF8
FFFFF800000000000000FFFFF8
FFFFF800000000000000FFFFF8
FFFFF800000000000000FFFFF8
FFFFF800000000000000FFFFF8
FFFFF800000000000000FFFFF8
FFFFF800000000000000FFFFF8
FFFFF800000000000000FFFFF8
FFFFF800000000000000FFFFF8
FFFFF800000000000000FFFFF8
FFFFF000000000000000FFFFF0
7FFFF0000000000000007FFFF0
7FFFF0000000000000007FFFE0
3FFFE0000000000000003FFFE0
1FFFC0000000000000001FFFC0
0FFF80000000000000000FFF80
07FF000000000000000003FE00
00F80000000000000000002000
ENDCHAR
STARTCHAR 0069
ENCODING 105
SWIDTH 250 0
DWIDTH 40 0
BBX 26 106 7 -2
BITMAP
001F0000
01FFE000
07FFF800
0FFFFE00
1FFFFF00
3FFFFF00
3FFFFF80
7FFFFF80
7FFFFFC0
7FFFFFC0
FFFFFFC0
7FFFFFC0
7FFFFFC0
7FFFFFC0
7FFFFF80
3FFFFF80
3FFFFF00
1FFFFE00
0FFFFC00
03FFF800
01FFE000
001E0000
00000000
00000000
00000000
00000000
00000000
00000000
00000000
00000000
00000000
001F0000
00FFC000
01FFF000
03FFF800
07FFFC00
0FFFFE00
0FFFFE00
1FFFFE00
1FFFFF00
1FFFFF00
1FFFFF00
1FFFFF00
1FFFFF00
1FFFFF00
1FFFFF00
1FFFFF00
1FFFFF00
1FFFFF00
1FFFFF00
1FFFFF00
1FFFFF00
1FFFFF00
1FFFFF00
1FFFFF00
1FFFFF00
1FFFFF00
1FFFFF00
1FFFFF00
1FFFFF00
1FFFFF00
1FFFFF00
1FFFFF00
1FFFFF00
1FFFFF00
1FFFFF00
1FFFFF00
1FFFFF00
1FFFFF00
1FFFFF00
1FFFFF00
1FFFFF00
1FFFFF00
1FFFFF00
1FFFFF00
1FFFFF00
1FFFFF00
1FFFFF00
1FFFFF00
1FFFFF00
1FFFFF00
1FFFFF00
1FFFFF00
1FFFFF00
1FFFFF00
1FFFFF00
1FFFFF00
1FFFFF00
1FFFFF00
1FFFFF00
1FFFFF00
1FFFFF00
1FFFFF00
1FFFFF00
1FFFFF00
1FFFFF00
1FFFFF00
1FFFFF00
1FFFFE00
0FFFFE00
0FFFFC00
07FFFC00
03FFF800
01FFF000
007FC000
00040000
ENDCHAR
STARTCHAR 006A
ENCODING 106
SWIDTH 250 0
DWIDTH 40 0
BBX 50 143 -17 -40
BITMAP
000000001F0000
00000001FFE000
00000007FFF800
0000000FFFFE00
0000001FFFFF00
0000003FFFFF00
0000003FFFFF80
0000007FFFFF80
0000007FFFFFC0
0000007FFFFFC0
000000FFFFFFC0
0000007FFFFFC0
0000007FFFFFC0
0000007FFFFFC0
0000007FFFFF80
0000003FFFFF80
0000003FFFFF00
0000001FFFFE00
0000000FFFFC00
00000003FFF800
00000001FFE000
000000001E0000
00000000000000
00000000000000
00000000000000
00000000000000
00000000000000
00000000000000
00000000000000
00000000000000
00000000000000
000000001F0000
00000000FFC000
00000001FFF000
00000003FFF800
00000007FFFC00
0000000FFFFE00
0000000FFFFE00
0000001FFFFE00
0000001FFFFF00
0000001FFFFF00
0000001FFFFF00
0000001FFFFF00
0000001FFFFF00
0000001FFFFF00
0000001FFFFF00
0000001FFFFF00
0000001FFFFF00
0000001FFFFF00
0000001FFFFF00
0000001FFFFF00
0000001FFFFF00
0000001FFFFF00
0000001FFFFF00
0000001FFFFF00
0000001FFFFF00
0000001FFFFF00
0000001FFFFF00
0000001FFFFF00
0000001FFFFF00
0000001FFFFF00
0000001FFFFF00
0000001FFFFF00
0000001FFFFF00
0000001FFFFF00
0000001FFFFF00
0000001FFFFF00
0000001FFFFF00
0000001FFFFF00
0000001FFFFF00
0000001FFFFF00
0000001FFFFF00
0000001FFFFF00
0000001FFFFF00
0000001FFFFF00
0000001FFFFF00
0000001FFFFF00
0000001FFFFF00
0000001FFFFF00
0000001FFFFF00
0000001FFFFF00
0000001FFFFF00
0000001FFFFF00
0000001FFFFF00
0000001FFFFF00
0000001FFFFF00
0000001FFFFF00
0000001FFFFF00
0000001FFFFF00
0000001FFFFF00
0000001FFFFF00
0000001FFFFF00
0000001FFFFF00
0000001FFFFF00
0000001FFFFF00
0000001FFFFF00
0000001FFFFF00
0000001FFFFF00
0000001FFFFF00
0000001FFFFF00
0000001FFFFF00
0000001FFFFF00
0000003FFFFF00
0000003FFFFF00
0000003FFFFE00
0000003FFFFE00
0000003FFFFE00
0000003FFFFE00
0000003FFFFE00
0000007FFFFE00
0000007FFFFE00
0000007FFFFC00
000000FFFFFC00
000000FFFFFC00
000001FFFFFC00
000003FFFFF800
000003FFFFF800
000007FFFFF800
00000FFFFFF800
00001FFFFFF000
00007FFFFFF000
0001FFFFFFF000
00FFFFFFFFE000
07FFFFFFFFE000
0FFFFFFFFFC000
1FFFFFFFFFC000
3FFFFFFFFF8000
7FFFFFFFFF8000
7FFFFFFFFF0000
7FFFFFFFFE0000
FFFFFFFFFE0000
FFFFFFFFFC0000
FFFFFFFFF80000
FFFFFFFFF00000
FFFFFFFFE00000
7FFFFFFFC00000
7FFFFFFF800000
7FFFFFFF000000
3FFFFFFE000000
1FFFFFF8000000
0FFFFFE0000000
07FFFF80000000
01FFF800000000
ENDCHAR
STARTCHAR 006B
ENCODING 107
SWIDTH 737 0
DWIDTH 118 0
BBX 102 97 10 -3
BITMAP
01FC0000000000000000000000
07FF0000000000000000000000
0FFF8000000000000000000000
1FFFC000000000000000000000
3FFFE000000000000000000000
7FFFF000000000000000000000
7FFFF000000000000000000000
FFFFF000000000000000000000
FFFFF800000000000000000000
FFFFF800000000000000000000
FFFFF800000000000000000000
FFFFF800000000000000000000
FFFFF800000000000000000000
FFFFF800000000000000000000
FFFFF800000000000000000000
FFFFF800000000000000000000
FFFFF800000000000000000000
FFFFF800000000000000000000
FFFFF800000000000000000000
FFFFF800000000000000000000
FFFFF800000000000000000000
FFFFF800000000000000000000
FFFFF80000000000000003FE00
FFFFF8000000000000003FFF80
FFFFF800000000000001FFFFC0
FFFFF80000000000001FFFFFE0
FFFFF8000000000001FFFFFFF0
FFFFF800000000000FFFFFFFF8
FFFFF80000000000FFFFFFFFF8
FFFFF8000000000FFFFFFFFFF8
FFFFF800000000FFFFFFFFFFF8
FFFFF800000007FFFFFFFFFFFC
FFFFF80000007FFFFFFFFFFFFC
FFFFF8000007FFFFFFFFFFFFFC
FFFFF800001FFFFFFFFFFFFFF8
FFFFF80000FFFFFFFFFFFFFFF8
FFFFF80003FFFFFFFFFFFFFFF8
FFFFF80007FFFFFFFFFFFFFFF0
FFFFF8001FFFFFFFFFFFFFFFE0
FFFFF8003FFFFFFFFFFFFFFFE0
FFFFF8007FFFFFFFFFFFFFFF80
FFFFF800FFFFFFFFFFFFFFFF00
FFFFF801FFFFFFFFFFFFFFF800
FFFFF801FFFFFFFFFFFFFF8000
FFFFF803FFFFFFFFFFFFF80000
FFFFF807FFFFFFFFFFFF800000
FFFFF807FFFFFFFFFFF8000000
FFFFF80FFFFFFFFFFF80000000
FFFFF80FFFFFFFFFF800000000
FFFFF80FFFFFFFFFC000000000
FFFFF81FFFFFFFFC0000000000
FFFFF81FFFFFFFC00000000000
FFFFF81FFFFFFC000000000000
FFFFF83FFFFFE0000000000000
FFFFF83FFFFF80000000000000
FFFFF83FFFFF00000000000000
FFFFF83FFFFF00000000000000
FFFFF83FFFFE00000000000000
FFFFF83FFFFE00000000000000
FFFFF83FFFFE00000000000000
FFFFF83FFFFE00000000000000
FFFFF83FFFFF00000000000000
FFFFF83FFFFF00000000000000
FFFFF83FFFFF80000000000000
FFFFF83FFFFFC0000000000000
FFFFF81FFFFFF8000000000000
FFFFF81FFFFFFF800000000000
FFFFF81FFFFFFFF80000000000
FFFFF80FFFFFFFFF8000000000
FFFFF80FFFFFFFFFF800000000
FFFFF80FFFFFFFFFFF80000000
FFFFF807FFFFFFFFFFF8000000
FFFFF807FFFFFFFFFFFF000000
FFFFF803FFFFFFFFFFFFF00000
FFFFF803FFFFFFFFFFFFFF0000
FFFFF801FFFFFFFFFFFFFFF000
FFFFF800FFFFFFFFFFFFFFFE00
FFFFF8007FFFFFFFFFFFFFFF80
FFFFF8003FFFFFFFFFFFFFFFC0
FFFFF8001FFFFFFFFFFFFFFFE0
FFFFF8000FFFFFFFFFFFFFFFF0
FFFFF80003FFFFFFFFFFFFFFF8
FFFFF80000FFFFFFFFFFFFFFF8
FFFFF800003FFFFFFFFFFFFFF8
FFFFF8000007FFFFFFFFFFFFFC
FFFFF80000007FFFFFFFFFFFFC
FFFFF80000000FFFFFFFFFFFFC
FFFFF800000000FFFFFFFFFFFC
FFFFF8000000000FFFFFFFFFF8
FFFFF00000000001FFFFFFFFF8
7FFFF000000000001FFFFFFFF8
7FFFF0000000000001FFFFFFF0
3FFFE00000000000001FFFFFE0
1FFFC000000000000003FFFFE0
0FFF80000000000000003FFF80
07FF000000000000000003FF00
00F80000000000000000003000
ENDCHAR
STARTCHAR 006C
ENCODING 108
SWIDTH 256 0
DWIDTH 41 0
BBX 21 97 10 -2
BITMAP
01FC00
07FF00
0FFF80
1FFFC0
3FFFE0
7FFFF0
7FFFF0
FFFFF0
FFFFF8
FFFFF8
FFFFF8
FFFFF8
FFFFF8
FFFFF8
FFFFF8
FFFFF8
FFFFF8
FFFFF8
FFFFF8
FFFFF8
FFFFF8
FFFFF8
FFFFF8
FFFFF8
FFFFF8
FFFFF8
FFFFF8
FFFFF8
FFFFF8
FFFFF8
FFFFF8
FFFFF8
FFFFF8
FFFFF8
FFFFF8
FFFFF8
FFFFF8
FFFFF8
FFFFF8
FFFFF8
FFFFF8
FFFFF8
FFFFF8
FFFFF8
FFFFF8
FFFFF8
FFFFF8
FFFFF8
FFFFF8
FFFFF8
FFFFF8
FFFFF8
FFFFF8
FFFFF8
FFFFF8
FFFFF8
FFFFF8
FFFFF8
FFFFF8
FFFFF8
FFFFF8
FFFFF8
FFFFF8
FFFFF8
FFFFF8
FFFFF8
FFFFF8
FFFFF8
FFFFF8
FFFFF8
FFFFF8
FFFFF8
FFFFF8
FFFFF8
FFFFF8
FFFFF8
FFFFF8
FFFFF8
FFFFF8
FFFFF8
FFFFF8
FFFFF8
FFFFF8
FFFFF8
FFFFF8
FFFFF8
FFFFF8
FFFFF8
FFFFF8
FFFFF0
7FFFF0
7FFFF0
3FFFE0
1FFFC0
0FFF80
07FF00
00F800
ENDCHAR
STARTCHAR 006D
ENCODING 109
SWIDTH 812 0
DWIDTH 130 0
BBX 111 75 10 -2
BITMAP
0000000FFE00000000FFE0000000
000000FFFFE000000FFFFE000000
000007FFFFF800003FFFFFC00000
00001FFFFFFE0001FFFFFFF00000
00007FFFFFFF8003FFFFFFFC0000
0001FFFFFFFFE00FFFFFFFFF0000
0003FFFFFFFFF83FFFFFFFFF8000
000FFFFFFFFFFC7FFFFFFFFFC000
001FFFFFFFFFFEFFFFFFFFFFF000
003FFFFFFFFFFFFFFFFFFFFFF800
007FFFFFFFFFFFFFFFFFFFFFFC00
00FFFFFFFFFFFFFFFFFFFFFFFE00
01FFFFFFFFFFFFFFFFFFFFFFFE00
03FFFFFFFFFFFFFFFFFFFFFFFF00
03FFFFFFFFFFFFFFFFFFFFFFFF80
07FFFFFFFFFFFFFFFFFFFFFFFFC0
0FFFFFFFFFFFFFFFFFFFFFFFFFC0
0FFFFFFFFFFFFFFFFFFFFFFFFFE0
1FFFFFFFFFFFFFFFFFFFFFFFFFF0
1FFFFFFFFFFFFFFFFFFFFFFFFFF0
3FFFFFFC0FFFFFFFFFE07FFFFFF0
3FFFFFF003FFFFFFFF001FFFFFF8
3FFFFFC000FFFFFFFE000FFFFFF8
7FFFFF80007FFFFFFC0003FFFFF8
7FFFFF00003FFFFFF80001FFFFFC
7FFFFE00003FFFFFF00001FFFFFC
7FFFFE00001FFFFFF00000FFFFFC
FFFFFC00000FFFFFE00000FFFFFC
FFFFFC00000FFFFFE000007FFFFC
FFFFFC00000FFFFFC000007FFFFE
FFFFF800000FFFFFC000007FFFFE
FFFFF8000007FFFFC000007FFFFE
FFFFF8000007FFFFC000003FFFFE
FFFFF8000007FFFFC000003FFFFE
FFFFF8000007FFFFC000003FFFFE
FFFFF8000007FFFFC000003FFFFE
FFFFF8000007FFFFC000003FFFFE
FFFFF8000007FFFFC000003FFFFE
FFFFF8000007FFFFC000003FFFFE
FFFFF8000007FFFFC000003FFFFE
FFFFF8000007FFFFC000003FFFFE
FFFFF8000007FFFFC000003FFFFE
FFFFF8000007FFFFC000003FFFFE
FFFFF8000007FFFFC000003FFFFE
FFFFF8000007FFFFC000003FFFFE
FFFFF8000007FFFFC000003FFFFE
FFFFF8000007FFFFC000003FFFFE
FFFFF8000007FFFFC000003FFFFE
FFFFF8000007FFFFC000003FFFFE
FFFFF8000007FFFFC000003FFFFE
FFFFF8000007FFFFC000003FFFFE
FFFFF8000007FFFFC000003FFFFE
FFFFF8000007FFFFC000003FFFFE
FFFFF8000007FFFFC000003FFFFE
FFFFF8000007FFFFC000003FFFFE
FFFFF8000007FFFFC000003FFFFE
FFFFF8000007FFFFC000003FFFFE
FFFFF8000007FFFFC000003FFFFE
FFFFF8000007FFFFC000003FFFFE
FFFFF8000007FFFFC000003FFFFE
FFFFF8000007FFFFC000003FFFFE
FFFFF8000007FFFFC000003FFFFE
FFFFF8000007FFFFC000003FFFFE
FFFFF8000007FFFFC000003FFFFE
FFFFF8000007FFFFC000003FFFFE
FFFFF8000007FFFFC000003FFFFE
FFFFF8000007FFFFC000003FFFFC
FFFFF8000007FFFF8000003FFFFC
FFFFF0000007FFFF8000003FFFFC
7FFFF0000003FFFF8000003FFFFC
7FFFF0000003FFFF0000001FFFF8
3FFFE0000001FFFF0000000FFFF8
1FFFC0000000FFFE00000007FFF0
0FFF800000007FFC00000003FFC0
03FE000000001FF000000000FF80
ENDCHAR
STARTCHAR 006E
ENCODING 110
SWIDTH 750 0
DWIDTH 120 0
BBX 100 75 10 -2
BITMAP
00000000007FFFC00000000000
000000001FFFFFFF0000000000
00000001FFFFFFFFF000000000
0000000FFFFFFFFFFE00000000
0000007FFFFFFFFFFFC0000000
000001FFFFFFFFFFFFF0000000
000007FFFFFFFFFFFFFE000000
00001FFFFFFFFFFFFFFF800000
00007FFFFFFFFFFFFFFFC00000
0001FFFFFFFFFFFFFFFFF00000
0003FFFFFFFFFFFFFFFFFC0000
000FFFFFFFFFFFFFFFFFFE0000
001FFFFFFFFFFFFFFFFFFF0000
003FFFFFFFFFFFFFFFFFFF8000
007FFFFFFFFFFFFFFFFFFFE000
00FFFFFFFFFFFFFFFFFFFFF000
01FFFFFFFFFFFFFFFFFFFFF800
03FFFFFFFFFFFFFFFFFFFFFC00
07FFFFFFFFFFFFFFFFFFFFFC00
0FFFFFFFFFFFFFFFFFFFFFFE00
0FFFFFFFFFE000FFFFFFFFFF00
1FFFFFFFFC000007FFFFFFFF00
3FFFFFFFE0000000FFFFFFFF80
3FFFFFFF800000001FFFFFFF80
3FFFFFFE0000000007FFFFFFC0
7FFFFFF80000000003FFFFFFC0
7FFFFFE00000000000FFFFFFE0
7FFFFFC000000000007FFFFFE0
FFFFFF8000000000003FFFFFE0
FFFFFF0000000000001FFFFFE0
FFFFFE0000000000000FFFFFE0
FFFFFE00000000000007FFFFE0
FFFFFC00000000000007FFFFF0
FFFFFC00000000000003FFFFF0
FFFFF800000000000003FFFFF0
FFFFF800000000000003FFFFF0
FFFFF800000000000003FFFFF0
FFFFF800000000000003FFFFF0
FFFFF800000000000003FFFFF0
FFFFF800000000000003FFFFF0
FFFFF800000000000003FFFFF0
FFFFF800000000000003FFFFF0
FFFFF800000000000003FFFFF0
FFFFF800000000000003FFFFF0
FFFFF800000000000003FFFFF0
FFFFF800000000000003FFFFF0
FFFFF800000000000003FFFFF0
FFFFF800000000000003FFFFF0
FFFFF800000000000003FFFFF0
FFFFF800000000000003FFFFF0
FFFFF800000000000003FFFFF0
FFFFF800000000000003FFFFF0
FFFFF800000000000003FFFFF0
FFFFF800000000000003FFFFF0
FFFFF800000000000003FFFFF0
FFFFF800000000000003FFFFF0
FFFFF800000000000003FFFFF0
FFFFF800000000000003FFFFF0
FFFFF800000000000003FFFFF0
FFFFF800000000000003FFFFF0
FFFFF800000000000003FFFFF0
FFFFF800000000000003FFFFF0
FFFFF800000000000003FFFFF0
FFFFF800000000000003FFFFF0
FFFFF800000000000003FFFFF0
FFFFF800000000000003FFFFF0
FFFFF800000000000003FFFFE0
FFFFF800000000000001FFFFE0
FFFFF000000000000001FFFFE0
7FFFF000000000000001FFFFE0
7FFFF000000000000000FFFFC0
3FFFE0000000000000007FFF80
1FFFC0000000000000003FFF80
0FFF80000000000000001FFE00
03FE000000000000000007F800
ENDCHAR
STARTCHAR 006F
ENCODING 111
SWIDTH 806 0
DWIDTH 129 0
BBX 113 71 8 1
BITMAP
0000007FFFFFFFFFFFFFFF80000000
000007FFFFFFFFFFFFFFFFF0000000
00001FFFFFFFFFFFFFFFFFFE000000
00007FFFFFFFFFFFFFFFFFFF800000
0001FFFFFFFFFFFFFFFFFFFFC00000
0003FFFFFFFFFFFFFFFFFFFFE00000
0007FFFFFFFFFFFFFFFFFFFFF80000
000FFFFFFFFFFFFFFFFFFFFFFC0000
001FFFFFFFFFFFFFFFFFFFFFFE0000
003FFFFFFFFFFFFFFFFFFFFFFF0000
007FFFFFFFFFFFFFFFFFFFFFFF8000
00FFFFFFFFFFFFFFFFFFFFFFFF8000
01FFFFFFFFFFFFFFFFFFFFFFFFC000
03FFFFFFFFFFFFFFFFFFFFFFFFE000
03FFFFFFFFFFFFFFFFFFFFFFFFF000
07FFFFFFFFFFFFFFFFFFFFFFFFF000
07FFFFFFFFFFFFFFFFFFFFFFFFF800
0FFFFFFFFFFFFFFFFFFFFFFFFFF800
0FFFFFFFFFFFFFFFFFFFFFFFFFFC00
1FFFFFFFFFFFFFFFFFFFFFFFFFFC00
1FFFFFFFFFFFFFFFFFFFFFFFFFFE00
3FFFFFF000000000000003FFFFFE00
3FFFFFC000000000000001FFFFFE00
3FFFFF8000000000000000FFFFFF00
7FFFFF00000000000000007FFFFF00
7FFFFF00000000000000003FFFFF00
7FFFFE00000000000000003FFFFF00
7FFFFE00000000000000001FFFFF80
7FFFFC00000000000000001FFFFF80
FFFFFC00000000000000001FFFFF80
FFFFFC00000000000000001FFFFF80
FFFFFC00000000000000000FFFFF80
FFFFFC00000000000000000FFFFF80
FFFFF800000000000000000FFFFF80
FFFFF800000000000000000FFFFF80
FFFFF800000000000000000FFFFF80
FFFFF800000000000000000FFFFF80
FFFFFC00000000000000000FFFFF80
FFFFFC00000000000000000FFFFF80
FFFFFC00000000000000001FFFFF80
FFFFFC00000000000000001FFFFF80
7FFFFC00000000000000001FFFFF80
7FFFFE00000000000000001FFFFF80
7FFFFE00000000000000003FFFFF00
7FFFFF00000000000000003FFFFF00
7FFFFF00000000000000007FFFFF00
3FFFFF8000000000000000FFFFFF00
3FFFFFC000000000000001FFFFFE00
3FFFFFE000000000000003FFFFFE00
1FFFFFF80000000000000FFFFFFE00
1FFFFFFFFFFFFFFFFFFFFFFFFFFC00
0FFFFFFFFFFFFFFFFFFFFFFFFFFC00
0FFFFFFFFFFFFFFFFFFFFFFFFFF800
07FFFFFFFFFFFFFFFFFFFFFFFFF800
07FFFFFFFFFFFFFFFFFFFFFFFFF000
03FFFFFFFFFFFFFFFFFFFFFFFFF000
03FFFFFFFFFFFFFFFFFFFFFFFFE000
01FFFFFFFFFFFFFFFFFFFFFFFFC000
00FFFFFFFFFFFFFFFFFFFFFFFF8000
007FFFFFFFFFFFFFFFFFFFFFFF8000
003FFFFFFFFFFFFFFFFFFFFFFF0000
003FFFFFFFFFFFFFFFFFFFFFFE0000
001FFFFFFFFFFFFFFFFFFFFFFC0000
0007FFFFFFFFFFFFFFFFFFFFF80000
0003FFFFFFFFFFFFFFFFFFFFF00000
0001FFFFFFFFFFFFFFFFFFFFC00000
00007FFFFFFFFFFFFFFFFFFF800000
00001FFFFFFFFFFFFFFFFFFE000000
000007FFFFFFFFFFFFFFFFF0000000
000000FFFFFFFFFFFFFFFF80000000
00000001FFFFFFFFFFFFC000000000
ENDCHAR
STARTCHAR 0070
ENCODING 112
SWIDTH 812 0
DWIDTH 130 0
BBX 110 94 10 -23
BITMAP
01FFFFFFFFFFFFFFFFFFF0000000
07FFFFFFFFFFFFFFFFFFFF000000
1FFFFFFFFFFFFFFFFFFFFFE00000
3FFFFFFFFFFFFFFFFFFFFFF80000
7FFFFFFFFFFFFFFFFFFFFFFE0000
7FFFFFFFFFFFFFFFFFFFFFFF0000
FFFFFFFFFFFFFFFFFFFFFFFF8000
FFFFFFFFFFFFFFFFFFFFFFFFC000
FFFFFFFFFFFFFFFFFFFFFFFFE000
FFFFFFFFFFFFFFFFFFFFFFFFF000
FFFFFFFFFFFFFFFFFFFFFFFFF800
FFFFFFFFFFFFFFFFFFFFFFFFFC00
FFFFFFFFFFFFFFFFFFFFFFFFFE00
FFFFFFFFFFFFFFFFFFFFFFFFFF00
FFFFFFFFFFFFFFFFFFFFFFFFFF00
FFFFFFFFFFFFFFFFFFFFFFFFFF80
FFFFFFFFFFFFFFFFFFFFFFFFFFC0
FFFFFFFFFFFFFFFFFFFFFFFFFFC0
FFFFFFFFFFFFFFFFFFFFFFFFFFE0
FFFFFFFFFFFFFFFFFFFFFFFFFFE0
FFFFFFFFFFFFFFFFFFFFFFFFFFE0
FFFFFC000000000000001FFFFFF0
FFFFF8000000000000000FFFFFF0
FFFFF80000000000000007FFFFF8
FFFFF80000000000000003FFFFF8
FFFFF80000000000000003FFFFF8
FFFFF80000000000000001FFFFF8
FFFFF80000000000000000FFFFFC
FFFFF80000000000000000FFFFFC
FFFFF80000000000000000FFFFFC
FFFFF80000000000000000FFFFFC
FFFFF800000000000000007FFFFC
FFFFF800000000000000007FFFFC
FFFFF800000000000000007FFFFC
FFFFF800000000000000007FFFFC
FFFFF800000000000000007FFFFC
FFFFF800000000000000007FFFFC
FFFFF800000000000000007FFFFC
FFFFF800000000000000007FFFFC
FFFFF800000000000000007FFFFC
FFFFF80000000000000000FFFFFC
FFFFF80000000000000000FFFFFC
FFFFF80000000000000000FFFFFC
FFFFF80000000000000001FFFFF8
FFFFF80000000000000001FFFFF8
FFFFF80000000000000003FFFFF8
FFFFF80000000000000003FFFFF8
FFFFF80000000000000007FFFFF0
FFFFF8000000000000000FFFFFF0
FFFFF8000000000000007FFFFFF0
FFFFF8000FFFFFFFFFFFFFFFFFE0
FFFFF8003FFFFFFFFFFFFFFFFFE0
FFFFF8007FFFFFFFFFFFFFFFFFE0
FFFFF800FFFFFFFFFFFFFFFFFFC0
FFFFF801FFFFFFFFFFFFFFFFFFC0
FFFFF803FFFFFFFFFFFFFFFFFF80
FFFFF803FFFFFFFFFFFFFFFFFF00
FFFFF803FFFFFFFFFFFFFFFFFF00
FFFFF807FFFFFFFFFFFFFFFFFE00
FFFFF807FFFFFFFFFFFFFFFFFC00
FFFFF807FFFFFFFFFFFFFFFFF800
FFFFF807FFFFFFFFFFFFFFFFF000
FFFFF807FFFFFFFFFFFFFFFFE000
FFFFF803FFFFFFFFFFFFFFFFC000
FFFFF803FFFFFFFFFFFFFFFF8000
FFFFF801FFFFFFFFFFFFFFFF0000
FFFFF801FFFFFFFFFFFFFFFC0000
FFFFF800FFFFFFFFFFFFFFF80000
FFFFF8007FFFFFFFFFFFFFE00000
FFFFF8001FFFFFFFFFFFFF000000
FFFFF80003FFFFFFFFFF80000000
FFFFF80000000000000000000000
FFFFF80000000000000000000000
FFFFF80000000000000000000000
FFFFF80000000000000000000000
FFFFF80000000000000000000000
FFFFF80000000000000000000000
FFFFF80000000000000000000000
FFFFF80000000000000000000000
FFFFF80000000000000000000000
FFFFF80000000000000000000000
FFFFF80000000000000000000000
FFFFF80000000000000000000000
FFFFF80000000000000000000000
FFFFF80000000000000000000000
FFFFF80000000000000000000000
FFFFF80000000000000000000000
FFFFF00000000000000000000000
7FFFF00000000000000000000000
7FFFE00000000000000000000000
3FFFE00000000000000000000000
1FFFC00000000000000000000000
0FFF800000000000000000000000
03FE000000000000000000000000
ENDCHAR
STARTCHAR 0071
ENCODING 113
SWIDTH 812 0
DWIDTH 130 0
BBX 110 94 9 -23
BITMAP
0000003FFFFFFFFFFFFFFFFFFF00
000003FFFFFFFFFFFFFFFFFFFF80
00001FFFFFFFFFFFFFFFFFFFFFE0
00007FFFFFFFFFFFFFFFFFFFFFF0
0001FFFFFFFFFFFFFFFFFFFFFFF8
0003FFFFFFFFFFFFFFFFFFFFFFF8
0007FFFFFFFFFFFFFFFFFFFFFFFC
000FFFFFFFFFFFFFFFFFFFFFFFFC
001FFFFFFFFFFFFFFFFFFFFFFFFC
003FFFFFFFFFFFFFFFFFFFFFFFFC
007FFFFFFFFFFFFFFFFFFFFFFFFC
00FFFFFFFFFFFFFFFFFFFFFFFFFC
01FFFFFFFFFFFFFFFFFFFFFFFFFC
03FFFFFFFFFFFFFFFFFFFFFFFFFC
03FFFFFFFFFFFFFFFFFFFFFFFFFC
07FFFFFFFFFFFFFFFFFFFFFFFFFC
0FFFFFFFFFFFFFFFFFFFFFFFFFFC
0FFFFFFFFFFFFFFFFFFFFFFFFFFC
1FFFFFFFFFFFFFFFFFFFFFFFFFFC
1FFFFFFFFFFFFFFFFFFFFFFFFFFC
1FFFFFFFFFFFFFFFFFFFFFFFFFFC
3FFFFFE000000000000000FFFFFC
3FFFFFC0000000000000007FFFFC
3FFFFF80000000000000007FFFFC
7FFFFF00000000000000007FFFFC
7FFFFF00000000000000007FFFFC
7FFFFE00000000000000007FFFFC
7FFFFE00000000000000007FFFFC
FFFFFC00000000000000007FFFFC
FFFFFC00000000000000007FFFFC
FFFFFC00000000000000007FFFFC
FFFFF800000000000000007FFFFC
FFFFF800000000000000007FFFFC
FFFFF800000000000000007FFFFC
FFFFF800000000000000007FFFFC
FFFFF800000000000000007FFFFC
FFFFF800000000000000007FFFFC
FFFFF800000000000000007FFFFC
FFFFF800000000000000007FFFFC
FFFFF800000000000000007FFFFC
FFFFFC00000000000000007FFFFC
FFFFFC00000000000000007FFFFC
FFFFFC00000000000000007FFFFC
7FFFFE00000000000000007FFFFC
7FFFFE00000000000000007FFFFC
7FFFFF00000000000000007FFFFC
7FFFFF00000000000000007FFFFC
3FFFFF80000000000000007FFFFC
3FFFFFC0000000000000007FFFFC
3FFFFFF8000000000000007FFFFC
1FFFFFFFFFFFFFFFFFC0007FFFFC
1FFFFFFFFFFFFFFFFFF0007FFFFC
1FFFFFFFFFFFFFFFFFF8007FFFFC
0FFFFFFFFFFFFFFFFFFC007FFFFC
0FFFFFFFFFFFFFFFFFFE007FFFFC
07FFFFFFFFFFFFFFFFFF007FFFFC
03FFFFFFFFFFFFFFFFFF007FFFFC
03FFFFFFFFFFFFFFFFFF007FFFFC
01FFFFFFFFFFFFFFFFFF807FFFFC
00FFFFFFFFFFFFFFFFFF807FFFFC
007FFFFFFFFFFFFFFFFF807FFFFC
003FFFFFFFFFFFFFFFFF807FFFFC
001FFFFFFFFFFFFFFFFF807FFFFC
000FFFFFFFFFFFFFFFFF007FFFFC
0007FFFFFFFFFFFFFFFF007FFFFC
0003FFFFFFFFFFFFFFFE007FFFFC
0000FFFFFFFFFFFFFFFE007FFFFC
00007FFFFFFFFFFFFFFC007FFFFC
00001FFFFFFFFFFFFFF8007FFFFC
000003FFFFFFFFFFFFE0007FFFFC
00000007FFFFFFFFFF00007FFFFC
00000000000000000000007FFFFC
00000000000000000000007FFFFC
00000000000000000000007FFFFC
00000000000000000000007FFFFC
00000000000000000000007FFFFC
00000000000000000000007FFFFC
00000000000000000000007FFFFC
00000000000000000000007FFFFC
00000000000000000000007FFFFC
00000000000000000000007FFFFC
00000000000000000000007FFFFC
00000000000000000000007FFFFC
00000000000000000000007FFFFC
00000000000000000000007FFFFC
00000000000000000000007FFFFC
00000000000000000000007FFFFC
00000000000000000000003FFFFC
00000000000000000000003FFFF8
00000000000000000000001FFFF8
00000000000000000000001FFFF0
00000000000000000000000FFFE0
000000000000000000000007FFC0
000000000000000000000001FF00
ENDCHAR
STARTCHAR 0072
ENCODING 114
SWIDTH 725 0
DWIDTH 116 0
BBX 100 73 10 -1
BITMAP
000000FFFFFFFFFFFFFFFFFC00
000007FFFFFFFFFFFFFFFFFF00
00001FFFFFFFFFFFFFFFFFFF80
00007FFFFFFFFFFFFFFFFFFFC0
0001FFFFFFFFFFFFFFFFFFFFE0
0003FFFFFFFFFFFFFFFFFFFFE0
0007FFFFFFFFFFFFFFFFFFFFF0
001FFFFFFFFFFFFFFFFFFFFFF0
003FFFFFFFFFFFFFFFFFFFFFF0
007FFFFFFFFFFFFFFFFFFFFFF0
007FFFFFFFFFFFFFFFFFFFFFF0
00FFFFFFFFFFFFFFFFFFFFFFF0
01FFFFFFFFFFFFFFFFFFFFFFF0
03FFFFFFFFFFFFFFFFFFFFFFF0
03FFFFFFFFFFFFFFFFFFFFFFF0
07FFFFFFFFFFFFFFFFFFFFFFE0
0FFFFFFFFFFFFFFFFFFFFFFFC0
0FFFFFFFFFFFFFFFFFFFFFFFC0
1FFFFFFFFFFFFFFFFFFFFFFF00
1FFFFFFFFFFFFFFFFFFFFFFE00
1FFFFFFFFFFFFFFFFFFFFFF000
3FFFFFE0000000000000000000
3FFFFFC0000000000000000000
3FFFFF80000000000000000000
7FFFFF00000000000000000000
7FFFFF00000000000000000000
7FFFFE00000000000000000000
7FFFFE00000000000000000000
FFFFFC00000000000000000000
FFFFFC00000000000000000000
FFFFFC00000000000000000000
FFFFF800000000000000000000
FFFFF800000000000000000000
FFFFF800000000000000000000
FFFFF800000000000000000000
FFFFF800000000000000000000
FFFFF800000000000000000000
FFFFF800000000000000000000
FFFFF800000000000000000000
FFFFF800000000000000000000
FFFFF800000000000000000000
FFFFF800000000000000000000
FFFFF800000000000000000000
FFFFF800000000000000000000
FFFFF800000000000000000000
FFFFF800000000000000000000
FFFFF800000000000000000000
FFFFF800000000000000000000
FFFFF800000000000000000000
FFFFF800000000000000000000
FFFFF800000000000000000000
FFFFF800000000000000000000
FFFFF800000000000000000000
FFFFF800000000000000000000
FFFFF800000000000000000000
FFFFF800000000000000000000
FFFFF800000000000000000000
FFFFF800000000000000000000
FFFFF800000000000000000000
FFFFF800000000000000000000
FFFFF800000000000000000000
FFFFF800000000000000000000
FFFFF800000000000000000000
FFFFF800000000000000000000
FFFFF800000000000000000000
FFFFF000000000000000000000
7FFFF000000000000000000000
7FFFE000000000000000000000
3FFFE000000000000000000000
1FFFC000000000000000000000
0FFF8000000000000000000000
03FE0000000000000000000000
00200000000000000000000000
ENDCHAR
STARTCHAR 0073
ENCODING 115
SWIDTH 743 0
DWIDTH 119 0
BBX 104 70 8 1
BITMAP
000003FFFFFFFFFFFFFFFFFC00
00007FFFFFFFFFFFFFFFFFFF80
0003FFFFFFFFFFFFFFFFFFFFC0
000FFFFFFFFFFFFFFFFFFFFFE0
003FFFFFFFFFFFFFFFFFFFFFF0
007FFFFFFFFFFFFFFFFFFFFFF8
01FFFFFFFFFFFFFFFFFFFFFFF8
03FFFFFFFFFFFFFFFFFFFFFFF8
07FFFFFFFFFFFFFFFFFFFFFFF8
0FFFFFFFFFFFFFFFFFFFFFFFF8
0FFFFFFFFFFFFFFFFFFFFFFFF8
1FFFFFFFFFFFFFFFFFFFFFFFF8
3FFFFFFFFFFFFFFFFFFFFFFFF8
3FFFFFFFFFFFFFFFFFFFFFFFF0
3FFFFFFFFFFFFFFFFFFFFFFFE0
7FFFFFFFFFFFFFFFFFFFFFFFC0
7FFFFFFFFFFFFFFFFFFFFFFF80
7FFFFFFFFFFFFFFFFFFFFFFC00
FFFFFC00000000000000000000
FFFFF800000000000000000000
FFFFF000000000000000000000
FFFFE000000000000000000000
FFFFE000000000000000000000
FFFFF000000000000000000000
FFFFF800000000000000000000
FFFFFC00000000000000000000
7FFFFFFFFFFFFFFFFFFFC00000
7FFFFFFFFFFFFFFFFFFFFE0000
7FFFFFFFFFFFFFFFFFFFFF8000
7FFFFFFFFFFFFFFFFFFFFFF000
3FFFFFFFFFFFFFFFFFFFFFF800
3FFFFFFFFFFFFFFFFFFFFFFE00
1FFFFFFFFFFFFFFFFFFFFFFF00
0FFFFFFFFFFFFFFFFFFFFFFF80
0FFFFFFFFFFFFFFFFFFFFFFFC0
07FFFFFFFFFFFFFFFFFFFFFFE0
03FFFFFFFFFFFFFFFFFFFFFFF0
01FFFFFFFFFFFFFFFFFFFFFFF8
00FFFFFFFFFFFFFFFFFFFFFFF8
003FFFFFFFFFFFFFFFFFFFFFFC
001FFFFFFFFFFFFFFFFFFFFFFC
0007FFFFFFFFFFFFFFFFFFFFFE
0000FFFFFFFFFFFFFFFFFFFFFE
00000FFFFFFFFFFFFFFFFFFFFE
00000000000000000000FFFFFF
000000000000000000003FFFFF
000000000000000000001FFFFF
000000000000000000000FFFFF
000000000000000000000FFFFF
000000000000000000001FFFFF
000000000000000000003FFFFF
000000000000000000007FFFFF
007FFFFFFFFFFFFFFFFFFFFFFE
01FFFFFFFFFFFFFFFFFFFFFFFE
07FFFFFFFFFFFFFFFFFFFFFFFE
0FFFFFFFFFFFFFFFFFFFFFFFFC
0FFFFFFFFFFFFFFFFFFFFFFFFC
1FFFFFFFFFFFFFFFFFFFFFFFF8
1FFFFFFFFFFFFFFFFFFFFFFFF8
3FFFFFFFFFFFFFFFFFFFFFFFF0
3FFFFFFFFFFFFFFFFFFFFFFFE0
3FFFFFFFFFFFFFFFFFFFFFFFC0
3FFFFFFFFFFFFFFFFFFFFFFF80
1FFFFFFFFFFFFFFFFFFFFFFF00
1FFFFFFFFFFFFFFFFFFFFFFE00
0FFFFFFFFFFFFFFFFFFFFFF800
0FFFFFFFFFFFFFFFFFFFFFF000
07FFFFFFFFFFFFFFFFFFFF8000
01FFFFFFFFFFFFFFFFFFFE0000
007FFFFFFFFFFFFFFFFF800000
ENDCHAR
STARTCHAR 0074
ENCODING 116
SWIDTH 775 0
DWIDTH 124 0
BBX 113 95 5 0
BITMAP
000000000FC0000000000000000000
000000003FF0000000000000000000
00000000FFFC000000000000000000
00000001FFFE000000000000000000
00000003FFFF000000000000000000
00000003FFFF000000000000000000
00000007FFFF800000000000000000
00000007FFFF800000000000000000
00000007FFFF800000000000000000
0000000FFFFF800000000000000000
0000000FFFFFC00000000000000000
0000000FFFFFC00000000000000000
0000000FFFFFC00000000000000000
0000000FFFFFC00000000000000000
0000000FFFFFC00000000000000000
0000000FFFFFC00000000000000000
0000000FFFFFC00000000000000000
0000000FFFFFC00000000000000000
0000000FFFFFC00000000000000000
0000000FFFFFC00000000000000000
0000000FFFFFC00000000000000000
0000000FFFFFC00000000000000000
0000000FFFFFC00000000000000000
0000000FFFFFC00000000000000000
03FFFFFFFFFFFFFFFFFFFFFFFFE000
07FFFFFFFFFFFFFFFFFFFFFFFFF800
1FFFFFFFFFFFFFFFFFFFFFFFFFFC00
3FFFFFFFFFFFFFFFFFFFFFFFFFFE00
3FFFFFFFFFFFFFFFFFFFFFFFFFFF00
7FFFFFFFFFFFFFFFFFFFFFFFFFFF00
7FFFFFFFFFFFFFFFFFFFFFFFFFFF00
FFFFFFFFFFFFFFFFFFFFFFFFFFFF80
FFFFFFFFFFFFFFFFFFFFFFFFFFFF80
FFFFFFFFFFFFFFFFFFFFFFFFFFFF80
FFFFFFFFFFFFFFFFFFFFFFFFFFFF80
FFFFFFFFFFFFFFFFFFFFFFFFFFFF80
FFFFFFFFFFFFFFFFFFFFFFFFFFFF80
FFFFFFFFFFFFFFFFFFFFFFFFFFFF80
7FFFFFFFFFFFFFFFFFFFFFFFFFFF00
7FFFFFFFFFFFFFFFFFFFFFFFFFFF00
3FFFFFFFFFFFFFFFFFFFFFFFFFFE00
1FFFFFFFFFFFFFFFFFFFFFFFFFFC00
0FFFFFFFFFFFFFFFFFFFFFFFFFF800
03FFFFFFFFFFFFFFFFFFFFFFFFF000
00FFFFFFFFFFFFFFFFFFFFFFFF8000
0000000FFFFFC00000000000000000
0000000FFFFFC00000000000000000
0000000FFFFFC00000000000000000
0000000FFFFFC00000000000000000
0000000FFFFFC00000000000000000
0000000FFFFFC00000000000000000
0000000FFFFFC00000000000000000
00000007FFFFC00000000000000000
00000007FFFFC00000000000000000
00000007FFFFC00000000000000000
00000007FFFFC00000000000000000
00000007FFFFC00000000000000000
00000007FFFFC00000000000000000
00000007FFFFC00000000000000000
00000007FFFFC00000000000000000
00000007FFFFE00000000000000000
00000007FFFFE00000000000000000
00000003FFFFE00000000000000000
00000003FFFFF00000000000000000
00000003FFFFF00000000000000000
00000003FFFFF80000000000000000
00000003FFFFF80000000000000000
00000001FFFFFC0000000000000000
00000001FFFFFE0000000000000000
00000001FFFFFF0000000000000000
00000000FFFFFF8000000000000000
00000000FFFFFFC000000000000000
00000000FFFFFFF000000000000000
000000007FFFFFFE00000000000000
000000007FFFFFFFFFFFFFFFFFE000
000000007FFFFFFFFFFFFFFFFFF800
000000003FFFFFFFFFFFFFFFFFFC00
000000003FFFFFFFFFFFFFFFFFFE00
000000001FFFFFFFFFFFFFFFFFFF00
000000000FFFFFFFFFFFFFFFFFFF00
000000000FFFFFFFFFFFFFFFFFFF80
0000000007FFFFFFFFFFFFFFFFFF80
0000000003FFFFFFFFFFFFFFFFFF80
0000000003FFFFFFFFFFFFFFFFFF80
0000000001FFFFFFFFFFFFFFFFFF80
0000000000FFFFFFFFFFFFFFFFFF80
00000000007FFFFFFFFFFFFFFFFF80
00000000003FFFFFFFFFFFFFFFFF80
00000000001FFFFFFFFFFFFFFFFF80
00000000000FFFFFFFFFFFFFFFFF00
000000000003FFFFFFFFFFFFFFFE00
000000000000FFFFFFFFFFFFFFFE00
0000000000003FFFFFFFFFFFFFF800
00000000000007FFFFFFFFFFFFF000
000000000000003FFFFFFFFFFF8000
ENDCHAR
ENDFONT
